<?xml version="1.0" encoding="utf-8" ?>
<svg baseProfile="full" height="200mm" version="1.1" viewBox="0,0,200,200" width="200mm" xmlns="http://www.w3.org/2000/svg" xmlns:ev="http://www.w3.org/2001/xml-events" xmlns:xlink="http://www.w3.org/1999/xlink"><defs /><rect fill="#1a1a1a" height="200" width="200" x="0" y="0" /><text alignment-baseline="middle" fill="#e1ed5e" style="dominant-baseline: central; font-size:9.0px; font-family:Arial;" text-anchor="middle" x="100.0" y="100.0">2024</text><line stroke="#e1ed5e" stroke-width="0.3" x1="100.0" x2="100.0" y1="15.0" y2="10.0" /><path d="M 100.0 14.0 a86.0,86.0 0 0,1 42.35913384403234,11.155469271406648" fill="none" id="id73" stroke="none" /><text fill="#e1ed5e" style="font-size:6.75px; font-family:Arial;" text-anchor="middle"><textPath startOffset="22.145653131862478" xlink:href="#id73">January</textPath></text><path d="M 104.9986988182912 79.60360301121754 l 1.9007291579311827 -7.7556235897747925 a28.985140487059763,28.985140487059763 0 0,0 0.4822502219665235,0.12258612059906712 l -2.0335846731231007 7.721852237340458" fill="red" stroke="none" /><path d="M 106.72888874123014 80.10723608172694 l 2.7402376380083955 -8.101025668452627 a29.55193072900419,29.55193072900419 0 0,0 0.47915532562625623,0.16667509505560446 l -2.87889873567967 8.052792140828432" fill="red" stroke="none" /><path d="M 107.74402155503746 80.48000691201159 l 3.4868546005722783 -8.789151375452512 a30.455545299249053,30.455545299249053 0 0,0 0.48430921355698553,0.19696434092688628 l -3.6372182753197033 8.727999777946332" fill="red" stroke="none" /><line stroke="#e1ed5e" stroke-width="0.3" x1="143.13028292997686" x2="145.6673583964461" y1="26.7553504044142" y2="22.446841604673864" /><path d="M 143.63769802327073 25.89364864446614 a86.0,86.0 0 0,1 29.32050498858742,28.57503671076993" fill="none" id="id74" stroke="none" /><text fill="#e1ed5e" style="font-size:6.75px; font-family:Arial;" text-anchor="middle"><textPath startOffset="20.669276256404974" xlink:href="#id74">February</textPath></text><path d="M 110.65571695917076 81.90426304109057 l 7.081480020181246 -12.025901233673993 a34.955990103117294,34.955990103117294 0 0,0 0.5144643572845748,0.3089210647877845 l -7.286877134023255 11.902566168350289" fill="red" stroke="none" /><path d="M 111.27062007382361 82.28071324371311 l 2.3750629787856483 -3.733993490126273 a25.425339708712038,25.425339708712038 0 0,0 0.3662633603158013,0.23740748508832193 l -2.4388119713584566 3.692672163334056" fill="red" stroke="none" /><path d="M 112.45986205192187 83.09580414077388 l 6.898876461374128 -9.359650887441807 a32.62744860939373,32.62744860939373 0 0,0 0.44800129933267885,0.3361885270473324 l -7.0585307496175735 9.239843333130459" fill="red" stroke="none" /><path d="M 113.31354834802062 83.75963576809568 l 3.904618735288918 -4.762999974926853 a27.158913559153305,27.158913559153305 0 0,0 0.3580135394977245,0.29866762784176953 l -3.9858066089485353 4.695270163173213" fill="red" stroke="none" /><path d="M 113.59037401385872 83.9905735841838 l 4.643832702798068 -5.470423247144885 a28.175702939397645,28.175702939397645 0 0,0 0.3660433301892178,0.3161795104571472 l -4.737055512750147 5.389899604223018" fill="red" stroke="none" /><path d="M 113.86319453409587 84.22622945171908 l 6.750491211436381 -7.680819828034595 a31.22566011690244,31.22566011690244 0 0,0 0.3995917587589604,0.3573174146873224 l -6.881347997018716 7.563806883463888" fill="red" stroke="none" /><path d="M 114.65682725009322 84.96080404539774 l 3.4143665699078825 -3.50344089000307 a25.89203404970264,25.89203404970264 0 0,0 0.3156461867140002,0.3129483722692727 l -3.474004676751845 3.4443125075051375" fill="red" stroke="none" /><path d="M 115.6541949942343 86.00192230759917 l 4.339620159107237 -3.880515105699515 a26.82157200512817,26.82157200512817 0 0,0 0.30396368497421805,0.34585487565661516 l -4.405594908040043 3.805447952231602" fill="red" stroke="none" /><path d="M 115.8921839302757 86.27271002978787 l 6.63552973650724 -5.731612546056145 a29.768217450666928,29.768217450666928 0 0,0 0.33071842694966563,0.38958547536705646 l -6.73294272696402 5.616860288239537" fill="red" stroke="none" /><path d="M 116.35404254752997 86.82634096563983 l 9.61742042295364 -7.747113111260606 a33.349596639182664,33.349596639182664 0 0,0 0.35530591870231404,0.44891742135176255 l -9.748992772297514 7.580875745994165" fill="red" stroke="none" /><path d="M 116.57777611688842 87.10902102172516 l 6.239981434247475 -4.852247305461122 a28.90453491440881,28.90453491440881 0 0,0 0.30122382435770334,0.39431165549889896 l -6.322357235959485 4.744414736721342" fill="red" stroke="none" /><path d="M 117.62189284568427 88.57770195909679 l 3.69731260753482 -2.396553362540428 a25.406085398325793,25.406085398325793 0 0,0 0.2340775261722784,0.36800875038650344 l -3.737907825332988 2.3327309374752523" fill="red" stroke="none" /><path d="M 117.81537515405839 88.88188828441811 l 6.942450520969608 -4.332602586505536 a29.18346286169282,29.18346286169282 0 0,0 0.26158393422364806,0.4272776977584776 l -7.015802419648659 4.212787772622503" fill="red" stroke="none" /><line stroke="#e1ed5e" stroke-width="0.3" x1="172.87174338648825" x2="177.1583165268699" y1="56.24261187166439" y2="53.66864786411523" /><path d="M 173.72905801456457 55.72781907015455 a86.0,86.0 0 0,1 12.242430191666344,42.057860355516425" fill="none" id="id75" stroke="none" /><text fill="#e1ed5e" style="font-size:6.75px; font-family:Arial;" text-anchor="middle"><textPath startOffset="22.145653131862474" xlink:href="#id75">March</textPath></text><path d="M 118.00360718960297 89.18935116829356 l 16.766429124942274 -10.067758950890731 a40.556914784672784,40.556914784672784 0 0,0 0.3532821881020649,0.5999503902607803 l -16.936785023174107 9.778457392336394" fill="red" stroke="none" /><path d="M 118.18653347947321 89.5 l 19.07912449758626 -11.015337664583813 a43.03067532916762,43.03067532916762 0 0,0 0.3638482009075233,0.6428849077423451 l -19.265406063515158 10.68619598674235" fill="red" stroke="none" /><path d="M 118.36410011445183 89.81374322990088 l 22.694279872872148 -12.588134488313232 a46.95171417930058,46.95171417930058 0 0,0 0.384902663785615,0.7081775488750186 l -22.907027886273102 12.19670210596361" fill="red" stroke="none" /><path d="M 118.53625476483649 90.13048839642627 l 12.968221253251262 -6.904847379389355 a35.69189163470578,35.69189163470578 0 0,0 0.2833119208821966,0.5432879643686093 l -13.084841243108402 6.681213171916246" fill="red" stroke="none" /><path d="M 119.83427380445688 93.10060997987247 l 4.103778042671149 -1.4275070290731577 a25.34497071814795,25.34497071814795 0 0,0 0.13941493370321975,0.41215547908328243 l -4.127678397946735 1.3568498755157137" fill="red" stroke="none" /><path d="M 120.7213421655516 96.59031103205396 l 21.453780684303105 -3.530211447481058 a42.74228825386379,42.74228825386379 0 0,0 0.11291801785335798,0.7250146765390106 l -21.51122019429473 3.1614085890106063" fill="red" stroke="none" /><line stroke="#e1ed5e" stroke-width="0.3" x1="184.99686870605535" x2="189.99668451229388" y1="99.2704041080226" y2="99.22748670261217" /><path d="M 185.99683186730306 99.26182062694052 a86.0,86.0 0 0,1 -10.086455211305974,41.156179273409016" fill="none" id="id76" stroke="none" /><text fill="#e1ed5e" style="font-size:6.75px; font-family:Arial;" text-anchor="middle"><textPath startOffset="21.40746469413373" xlink:href="#id76">April</textPath></text><path d="M 120.99922638620191 99.81974689727618 l 18.588291451233093 -0.15955812594225724 a39.58897624592434,39.58897624592434 0 0,0 0.0,0.679622457332166 l -18.588291451233093 -0.15955812594225496" fill="red" stroke="none" /><path d="M 120.77682067341334 103.0534771498775 l 20.219515354954105 2.9715724599266307 a41.436708249466676,41.436708249466676 0 0,0 -0.1094688925896358,0.7028688181104088 l -20.1655249702262 -3.31822945996849" fill="red" stroke="none" /><path d="M 120.51834098615036 104.47187691870673 l 14.492240723904418 3.1585164140372806 a35.83243968932072,35.83243968932072 0 0,0 -0.13614473767132684,0.5998788345698116 l -14.435885124675428 -3.406829582546109" fill="red" stroke="none" /><path d="M 120.43855184770803 104.8234425847677 l 21.936401619645828 5.1769310525115495 a43.53899578820801,43.53899578820801 0 0,0 -0.17791375817060504,0.7259488465549295 l -21.844300334958927 -5.552735723674579" fill="red" stroke="none" /><path d="M 120.35273937422433 105.17358676015961 l 5.898145033816065 1.4992854030793041 a27.08571865598598,27.08571865598598 0 0,0 -0.11841685202776552,0.44964807507380883 l -5.87153870098357 -1.600313982525916" fill="red" stroke="none" /><path d="M 119.94978838288452 106.5578916946017 l 8.483412761175728 2.788666276586756 a29.930002893541044,29.930002893541044 0 0,0 -0.16463579364691858,0.48671647005370466 l -8.434291545956444 -2.933884421114621" fill="red" stroke="none" /><line stroke="#e1ed5e" stroke-width="0.3" x1="174.33088141563837" x2="178.70328620479359" y1="141.23008692659167" y2="143.65538615756765" /><path d="M 175.20536237346943 141.71514677278685 a86.0,86.0 0 0,1 -30.301960400862466,31.631185727798858" fill="none" id="id77" stroke="none" /><text fill="#e1ed5e" style="font-size:6.75px; font-family:Arial;" text-anchor="middle"><textPath startOffset="22.145653131862474" xlink:href="#id77">May</textPath></text><path d="M 118.36410011445183 110.18625677009912 l 29.236482287204343 16.21698388572566 a54.43295474348474,54.43295474348474 0 0,0 -0.4602607907497233,0.8132367159175831 l -28.95378813143324 -16.716477371742364" fill="red" stroke="none" /><path d="M 118.00360718960297 110.81064883170644 l 3.7225348292798506 2.235275207869509 a25.34208714906986,25.34208714906986 0 0,0 -0.2271520309056167,0.3710357713464677 l -3.683614833918829 -2.2988480953405332" fill="red" stroke="none" /><path d="M 117.423217284605 111.72311816256416 l 11.789641557585453 7.932596994928917 a35.209917070141586,35.209917070141586 0 0,0 -0.34172106975125244,0.49858125322497293 l -11.65173075101888 -8.133812983223935" fill="red" stroke="none" /><path d="M 117.01052211995028 112.31430620078461 l 24.807740532005212 17.95889102677469 a51.625900104566114,51.625900104566114 0 0,0 -0.52584170331113,0.7134052613647758 l -24.495796809110256 -18.38210259740834" fill="red" stroke="none" /><path d="M 114.13192950727249 115.5334660781643 l 10.172965798866615 11.181871454262495 a36.11699316545987,36.11699316545987 0 0,0 -0.4621856756923858,0.4132892811824366 l -9.979515096350852 -11.35485626532832" fill="red" stroke="none" /><line stroke="#e1ed5e" stroke-width="0.3" x1="143.1302829299769" x2="145.66735839644613" y1="173.24464959558577" y2="177.55315839532614" /><path d="M 143.63769802327073 174.10635135553383 a86.0,86.0 0 0,1 -40.68552437913181,11.842963189579606" fill="none" id="id78" stroke="none" /><text fill="#e1ed5e" style="font-size:6.75px; font-family:Arial;" text-anchor="middle"><textPath startOffset="21.407464694133747" xlink:href="#id78">June</textPath></text><path d="M 109.71004243097381 118.62028667847754 l 29.130127292921426 55.86086003543263 a84.0,84.0 0 0,0 -1.2842911131456707,0.655768193308655 l -28.166908958062173 -56.352686180414125" fill="red" stroke="none" /><path d="M 106.38641147887787 120.00534299687104 l 1.5632700303282785 4.896921104579553 a26.14039390438118,26.14039390438118 0 0,0 -0.42865188101900725,0.13279744846656089 l -1.4789775164376469 -4.9230351408527575" fill="red" stroke="none" /><path d="M 106.0420521117495 120.11202640906438 l 1.8158415840080564 6.044346062694375 a27.311212243604384,27.311212243604384 0 0,0 -0.4501667937068824,0.13103699284692424 l -1.7118147779195672 -6.074626749843818" fill="red" stroke="none" /><path d="M 104.9986988182912 120.39639698878246 l 4.807040649103823 19.614366254987345 a41.19482615391682,41.19482615391682 0 0,0 -0.6882828537945187,0.1624328793984598 l -4.469625641569425 -19.69399527803203" fill="red" stroke="none" /><path d="M 104.29559338865022 120.5559693870025 l 1.1424150760933593 5.46686969801961 a26.584959847770655,26.584959847770655 0 0,0 -0.447517939914537,0.08951612145378406 l -1.0484006506478638 -5.485675216136255" fill="red" stroke="none" /><path d="M 103.94208987418118 120.62667999033965 l 0.9066148982921566 4.743792246855096 a25.82964962032732,25.82964962032732 0 0,0 -0.43623236023220113,0.07949606769880072 l -0.8250478045088983 -4.758656488485261" fill="red" stroke="none" /><path d="M 102.51750503828377 120.84855314841334 l 0.7259079400390364 6.011559078776 a27.055227897860316,27.055227897860316 0 0,0 -0.4615674680862776,0.05171959753667562 l -0.6226045703519595 -6.023134436819646" fill="red" stroke="none" /><path d="M 101.44090949804482 120.95050786540614 l 1.6832953885343827 24.47474551673376 a45.53256308407135,45.53256308407135 0 0,0 -0.7802452375089475,0.046937615968695175 l -1.2629057988929702 -24.500035110527147" fill="red" stroke="none" /><line stroke="#e1ed5e" stroke-width="0.3" x1="101.45913802915013" x2="101.54496967792366" y1="184.9874750549273" y2="189.98673829345242" /><path d="M 101.47630435890484 185.9873277026323 a86.0,86.0 0 0,1 -42.54439059252881,-10.42667462771756" fill="none" id="id79" stroke="none" /><text fill="#e1ed5e" style="font-size:6.75px; font-family:Arial;" text-anchor="middle"><textPath startOffset="22.145653131862474" xlink:href="#id79">July</textPath></text><path d="M 96.05791012581884 120.62667999033965 l -1.1922418495176326 6.2383131501280165 a27.351219692846513,27.351219692846513 0 0,0 -0.4604167755445767,-0.09209624983275246 l 1.2991551105931674 -6.2169275036324025" fill="red" stroke="none" /><path d="M 91.26138138417905 119.09545874513695 l -23.629268481556352 51.63421603620757 a77.7841051232405,77.7841051232405 0 0,0 -1.2093994382925946,-0.5660600032784725 l 24.512156633720437 -51.220979801358574" fill="red" stroke="none" /><path d="M 90.93487009805054 118.94263497670748 l -3.142256995762334 6.566108585044211 a28.279255523610132,28.279255523610132 0 0,0 -0.43609271713429293,-0.21331480083511714 l 3.2545099621586964 -6.51120003411187" fill="red" stroke="none" /><path d="M 90.28995756902619 118.62028667847754 l -8.784949094200462 16.846298227086024 a39.99929194848101,39.99929194848101 0 0,0 -0.6061058123154849,-0.3227172060123516 l 9.07284372230251 -16.6930105533511" fill="red" stroke="none" /><line stroke="#e1ed5e" stroke-width="0.3" x1="58.13341422392154" x2="55.670673884152215" y1="173.97424548756322" y2="178.32567169271397" /><path d="M 57.64086615596767 174.84453072859336 a86.0,86.0 0 0,1 -31.369924170532244,-30.572349798747897" fill="none" id="id80" stroke="none" /><text fill="#e1ed5e" style="font-size:6.75px; font-family:Arial;" text-anchor="middle"><textPath startOffset="22.145653131862474" xlink:href="#id80">August</textPath></text><path d="M 88.72937992617639 117.7192867562869 l -2.5799078084855727 4.056043586236409 a25.807017149307285,25.807017149307285 0 0,0 -0.37176159410738774,-0.24097137380425585 l 2.649155034849972 -4.011158370728258" fill="red" stroke="none" /><path d="M 88.1277618465304 117.32195027204791 l -5.34698768422254 7.8014148279436055 a30.457925280572155,30.457925280572155 0 0,0 -0.42873867740951416,-0.2992928943555278 l 5.48012145280582 -7.708477117782948" fill="red" stroke="none" /><path d="M 87.54013794807813 116.9041958592261 l -4.638475940554748 6.292983458460618 a28.81774263195996,28.81774263195996 0 0,0 -0.39569095020306855,-0.2969338658456554 l 4.745819879668583 -6.212430565350948" fill="red" stroke="none" /><path d="M 87.2517909369889 116.68781488649013 l -15.968908054756996 20.903813252512055 a47.30542592236783,47.30542592236783 0 0,0 -0.6410787515381318,-0.49850671472621294 l 16.325396750930356 -20.626605486165047" fill="red" stroke="none" /><path d="M 86.96720088162412 116.46651593811092 l -3.1057836941030024 3.9240562395505747 a26.004409028617854,26.004409028617854 0 0,0 -0.3476532286738636,-0.28004483193885554 l 3.172687693132128 -3.870163113818309" fill="red" stroke="none" /><path d="M 86.40962598614128 116.0094264158162 l -9.119938693748354 10.743264849475905 a35.09223266213388,35.09223266213388 0 0,0 -0.45589910338885864,-0.3937947872259508 l 9.303017276900077 -10.585125929785232" fill="red" stroke="none" /><path d="M 85.86807049272751 115.53346607816431 l -5.026766075250952 5.525296476506985 a28.46975758164844,28.46975758164844 0 0,0 -0.3586785844767925,-0.33198754303137357 l 5.120874431041712 -5.438191187343232" fill="red" stroke="none" /><path d="M 84.3458050057657 113.99807769240083 l -9.225264100799782 8.249288044736536 a33.37563133640213,33.37563133640213 0 0,0 -0.3782395710219334,-0.4303671993425774 l 9.365514735780307 -8.089708567582658" fill="red" stroke="none" /><path d="M 84.1078160697243 113.72728997021213 l -8.95612681343578 7.736089030772496 a32.83466438013271,32.83466438013271 0 0,0 -0.3647859859668732,-0.42971697422766103 l 9.087607362909766 -7.5812052740952804" fill="red" stroke="none" /><path d="M 82.98947788004972 112.3143062007846 l -12.073001654061777 8.739922154201947 a35.90448282230847,35.90448282230847 0 0,0 -0.35713830269860125,-0.5023597484005548 l 12.221255055290339 -8.531385179091888" fill="red" stroke="none" /><path d="M 82.78059297857968 112.02048342749411 l -11.128916682894902 7.76884815988667 a34.57231698223229,34.57231698223229 0 0,0 -0.335533001097751,-0.48955267612684183 l 11.260639420807978 -7.576660748689777" fill="red" stroke="none" /><path d="M 81.99639281039703 110.81064883170644 l -26.172594726665213 15.715891133636163 a51.52857593879163,51.52857593879163 0 0,0 -0.4488538675609312,-0.7622519959467742 l 26.438522304355914 -15.26428796939583" fill="red" stroke="none" /><line stroke="#e1ed5e" stroke-width="0.3" x1="26.387840678322732" x2="22.057713659400548" y1="142.50000000000003" y2="145.00000000000006" /><path d="M 25.521815274538298 143.00000000000003 a86.0,86.0 0 0,1 -11.493303480769221,-40.785679425670985" fill="none" id="id81" stroke="none" /><text fill="#e1ed5e" style="font-size:6.75px; font-family:Arial;" text-anchor="middle"><textPath startOffset="21.40746469413373" xlink:href="#id81">September</textPath></text><path d="M 80.9802524753101 108.90220220490708 l -8.949337324297298 4.188741746303258 a30.881102972911698,30.881102972911698 0 0,0 -0.22060215182606988,-0.4820555140896753 l 9.019923940978424 -4.034497249998894" fill="red" stroke="none" /><path d="M 80.5471966667186 107.91128576633889 l -5.299104302063622 2.155099587499373 a26.72057345343884,26.72057345343884 0 0,0 -0.16915564002691236,-0.4263827135103602 l 5.335318617056659 -2.0638158567754474" fill="red" stroke="none" /><path d="M 80.28708602549918 107.23885506374661 l -14.078491482315806 5.169817079732672 a35.99769752513813,35.99769752513813 0 0,0 -0.2080321166885871,-0.5819028552646386 l 14.165163769048336 -4.927379268087112" fill="red" stroke="none" /><path d="M 79.94057633289273 106.21446072829308 l -7.233043033092734 2.2408152208737295 a28.57219679965271,28.57219679965271 0 0,0 -0.1411244475066902,-0.46975738751074075 l 7.270443800603054 -2.116320229772265" fill="red" stroke="none" /><path d="M 79.34024301695615 103.76489593502545 l -16.00303516023705 2.9162860953444367 a37.26658719368272,37.26658719368272 0 0,0 -0.10928902732211969,-0.6303500671651581 l 16.050739005051405 -2.641142995258686" fill="red" stroke="none" /><path d="M 79.0935383218832 101.97986365728391 l -17.938987852180315 1.6988408006968236 a39.01924929698197,39.01924929698197 0 0,0 -0.0574258876582589,-0.6673758616513296 l 17.965507362536314 -1.3906438916698323" fill="red" stroke="none" /><path d="M 79.00696218219943 100.54070618675478 l -13.466559111703035 0.34685079354368115 a34.47102519417041,34.47102519417041 0 0,0 -0.010158395108487154,-0.5916755876641533 l 13.470528938410187 -0.11562828991047547" fill="red" stroke="none" /><line stroke="#e1ed5e" stroke-width="0.3" x1="15.003131293944662" x2="10.003315487706104" y1="100.72959589197737" y2="100.7725132973878" /><path d="M 14.003168132696942 100.73817937305945 a86.0,86.0 0 0,1 10.791469493833615,-42.45332614584628" fill="none" id="id82" stroke="none" /><text fill="#e1ed5e" style="font-size:6.75px; font-family:Arial;" text-anchor="middle"><textPath startOffset="22.145653131862435" xlink:href="#id82">October</textPath></text><path d="M 79.03789590574601 98.7389718711861 l -7.182713947326838 -0.43209423481901116 a28.195699067977156,28.195699067977156 0 0,0 0.03321190033922184,-0.48289374192208356 l 7.174238085822552 0.5553314008954197" fill="red" stroke="none" /><path d="M 79.0935383218832 98.0201363427161 l -37.93877128019842 -3.592841085026553 a59.10851444642605,59.10851444642605 0 0,0 0.10433386735676334,-1.0093355226220715 l 37.87150502035999 4.243581129931537" fill="red" stroke="none" /><path d="M 79.22317932658666 96.9465228501225 l -9.01235528845512 -1.3245058699038321 a30.109163718188114,30.109163718188114 0 0,0 0.07954340362141378,-0.5107257118371148 l 8.98829039269544 1.479019763672397" fill="red" stroke="none" /><path d="M 79.34024301695615 96.23510406497455 l -14.969161036462722 -2.727879789833644 a36.21568632311197,36.21568632311197 0 0,0 0.11670713195387059,-0.6106610301224772 l 14.920127612226691 2.984443384989436" fill="red" stroke="none" /><path d="M 79.64726062577567 94.8264132398404 l -13.314743072090913 -3.384555622027738 a34.73818036838913,34.73818036838913 0 0,0 0.15187287502480448,-0.576686043763574 l 13.254680716261383 3.6126221701640966" fill="red" stroke="none" /><line stroke="#e1ed5e" stroke-width="0.3" x1="26.387840678322718" x2="22.05771365940052" y1="57.49999999999999" y2="54.99999999999999" /><path d="M 25.521815274538284 56.99999999999999 a86.0,86.0 0 0,1 29.574782752854787,-30.34633250058573" fill="none" id="id83" stroke="none" /><text fill="#e1ed5e" style="font-size:6.75px; font-family:Arial;" text-anchor="middle"><textPath startOffset="21.40746469413373" xlink:href="#id83">November</textPath></text><path d="M 82.576782715395 88.27688183743585 l -3.937248857381136 -2.649156745079654 a25.745519995211282,25.745519995211282 0 0,0 0.24986672409764876,-0.36456301781598677 l 3.891192396468174 2.7163544979656757" fill="red" stroke="none" /><path d="M 84.34580500576568 86.00192230759919 l -7.446719547435097 -6.65890253806788 a30.98972547318688,30.98972547318688 0 0,0 0.35800850714640636,-0.3935140632134549 l 7.331313339446825 6.785754176838996" fill="red" stroke="none" /><path d="M 84.83555147118756 85.47280134310135 l -6.860184507733277 -6.571901574756721 a30.50010640932161,30.50010640932161 0 0,0 0.36543949232811057,-0.37497311259078175 l 6.746358214254363 6.688697379415233" fill="red" stroke="none" /><path d="M 85.34317274990677 84.96080404539775 l -4.989860854705868 -5.120036819676868 a28.149369789301208,28.149369789301208 0 0,0 0.34895502198606004,-0.334291017380696 l 4.90123334685451 5.204939967363132" fill="red" stroke="none" /><path d="M 85.60350026404147 84.71141617570332 l -5.685637669030372 -6.037950174821579 a29.293570884554196,29.293570884554196 0 0,0 0.36905746418844876,-0.3415940791448069 l 5.58115043352797 6.134662000098752" fill="red" stroke="none" /><path d="M 86.68645165197937 83.75963576809568 l -8.096665672698899 -9.876615621269455 a33.77119928376989,33.77119928376989 0 0,0 0.45148753252847046,-0.3636863970794145 l 7.925927369815183 10.014150312142268" fill="red" stroke="none" /><path d="M 87.54013794807813 83.09580414077388 l -12.456519185136182 -16.899660618415165 a41.994365892478825,41.994365892478825 0 0,0 0.5839596332336938,-0.42274174077841375 l 12.16457854152852 17.11100313056666" fill="red" stroke="none" /><path d="M 88.72937992617638 82.28071324371311 l -2.6086139138295055 -4.101174351794429 a25.860503843763663,25.860503843763663 0 0,0 0.37662236776165753,-0.23504021235315933 l 2.5378274172781494 4.1453503609891245" fill="red" stroke="none" /><line stroke="#e1ed5e" stroke-width="0.3" x1="56.869717070023135" x2="54.33264160355391" y1="26.7553504044142" y2="22.446841604673864" /><path d="M 56.362301976729285 25.89364864446614 a86.0,86.0 0 0,1 42.16139366436587,-11.88097634709845" fill="none" id="id84" stroke="none" /><text fill="#e1ed5e" style="font-size:6.75px; font-family:Arial;" text-anchor="middle"><textPath startOffset="22.145653131862474" xlink:href="#id84">December</textPath></text><path d="M 89.34428304082924 81.90426304109057 l -4.8504888627113765 -8.237190507036091 a30.55921281573397,30.55921281573397 0 0,0 0.454324591301388,-0.2623044250873217 l 4.708371803549589 8.319241829399587" fill="red" stroke="none" /><path d="M 89.97174638481275 81.54914285379989 l -6.709502041261508 -12.344728048956757 a35.050257230541796,35.050257230541796 0 0,0 0.5311135171579203,-0.2827880327987673 l 6.496599708317026 12.458086549478098" fill="red" stroke="none" /><path d="M 91.92203290615298 80.6158196554323 l -5.11019629529869 -12.262610807075834 a34.28479318552974,34.28479318552974 0 0,0 0.5452025587293348,-0.2217291342923054 l 4.898939275378915 12.348527197947432" fill="red" stroke="none" /><path d="M 92.93061703081487 80.22567764915836 l -1.8832231988687143 -5.267710457240321 a26.59422050674411,26.59422050674411 0 0,0 0.43119897997660717,-0.14999338863978243 l 1.7925184468471027 5.29926227844869" fill="red" stroke="none" /><path d="M 93.61358852112211 79.99465700312896 l -3.1119749242854304 -9.748217126925613 a31.232894267169343,31.232894267169343 0 0,0 0.5121590334966744,-0.1586681777664759 l 2.94417525791714 9.800201892498732" fill="red" stroke="none" /><path d="M 97.12497278360702 79.19773525538626 l -1.647725040784484 -11.922117581805564 a33.03544288526291,33.03544288526291 0 0,0 0.5624239759591171,-0.07281704380818323 l 1.4428232429345724 11.948646221814142" fill="red" stroke="none" /><path d="M 99.63950707515114 79.00309439819443 l -0.23744734877579843 -13.830117663848084 a34.832155863759034,34.832155863759034 0 0,0 0.5979402736246472,-0.005132598105385302 l 3.3879010807719587e-15 13.832155863759034" fill="red" stroke="none" /></svg>