<?xml version="1.0" encoding="utf-8" ?>
<svg baseProfile="full" height="200mm" version="1.1" viewBox="0,0,200,200" width="200mm" xmlns="http://www.w3.org/2000/svg" xmlns:ev="http://www.w3.org/2001/xml-events" xmlns:xlink="http://www.w3.org/1999/xlink"><defs /><rect fill="#fdf6e3" height="200" width="200" x="0" y="0" /><text alignment-baseline="middle" fill="#2aa198" style="dominant-baseline: central; font-size:9.0px; font-family:Arial;" text-anchor="middle" x="100.0" y="100.0">2025</text><line stroke="#2aa198" stroke-width="0.3" x1="100.0" x2="100.0" y1="15.0" y2="10.0" /><path d="M 100.0 14.0 a86.0,86.0 0 0,1 42.46469731375804,11.215312516191453" fill="none" id="id85" stroke="none" /><text fill="#2aa198" style="font-size:6.75px; font-family:Arial;" text-anchor="middle"><textPath startOffset="22.20632615414155" xlink:href="#id85">January</textPath></text><path d="M 100.36148047927253 79.00311137660856 l 0.26283147304572063 -15.26678059454014 a36.2690428680075,36.2690428680075 0 0,0 0.6241269552130216,0.016119357899275363 l -0.52558506345361 15.259994444498506" fill="#859900" stroke="none" /><path d="M 100.72285384407766 79.0124445844662 l 0.52558506345361 -15.259994444498506 a36.2690428680075,36.2690428680075 0 0,0 0.623757015821202,0.026860289208997908 l -0.7881829116641436 15.248686428765314" fill="#859900" stroke="none" /><path d="M 101.08401301168833 79.027996857942 l 0.7881829116641436 -15.248686428765314 a36.2690428680075,36.2690428680075 0 0,0 0.623202243763815,0.03759326123533918 l -1.0505472042675703 15.23285989814967" fill="#859900" stroke="none" /><path d="M 101.80526077348638 79.07773832637324 l 1.3126001970617074 -15.212519542394165 a36.2690428680075,36.2690428680075 0 0,0 0.6215389139372707,0.059022609093800735 l -1.5742642380892224 15.187671388785185" fill="#859900" stroke="none" /><path d="M 102.16513564639614 79.11191278185805 l 1.5742642380892224 -15.187671388785185 a36.2690428680075,36.2690428680075 0 0,0 0.6204308490486392,0.06971263494766801 l -1.835461790647587 15.158322800366918" fill="#859900" stroke="none" /><path d="M 102.52436894288641 79.15227682838746 l 3.6527781885489294 -30.16679027713706 a51.38713583277486,51.38713583277486 0 0,0 0.877215778105547,0.11388778425950564 l -4.171508695162323 30.09944416971342" fill="#859900" stroke="none" /><path d="M 102.88285421437855 79.19881850522331 l 3.74577848901509 -27.02759570727348 a48.28592652274421,48.28592652274421 0 0,0 0.822311673013144,0.12118736500698973 l -4.21045914245689 26.95911385810552" fill="#859900" stroke="none" /><path d="M 103.59715602781102 79.31037775812273 l 10.791468083433088 -62.06886672563182 a84.0,84.0 0 0,0 1.4224195155883965,0.2599380745970459 l -11.858282720124386 61.87391316968404" fill="#859900" stroke="none" /><path d="M 104.66035177308747 79.52364482259891 l 3.3885290953936877 -14.888302142108792 a36.2690428680075,36.2690428680075 0 0,0 0.6075519132145638,0.14378790864284277 l -3.6443046955707756 14.827768321325081" fill="#859900" stroke="none" /><path d="M 105.01212808612495 79.60689891045804 l 3.6443046955707756 -14.827768321325081 a36.2690428680075,36.2690428680075 0 0,0 0.6049868253602293,0.15422461237790297 l -3.89900040961603 14.76284071277831" fill="#859900" stroke="none" /><path d="M 105.36241919743992 79.69619591428918 l 3.89900040961603 -14.76284071277831 a36.2690428680075,36.2690428680075 0 0,0 0.6022424668528539,0.16461561603186856 l -4.152540765692595 14.693538555920147" fill="#859900" stroke="none" /><path d="M 105.71112130821622 79.79150937346287 l 4.152540765692595 -14.693538555920147 a36.2690428680075,36.2690428680075 0 0,0 0.5993196509050939,0.17495784052611138 l -4.404850634321116 14.619882386475332" fill="#859900" stroke="none" /><path d="M 106.0581310904928 79.89281104454417 l 9.912073750291082 -32.8985848705536 a55.359366881772246,55.359366881772246 0 0,0 0.910041105002934,0.28275420117752137 l -10.476900228004734 32.72309053449356" fill="#859900" stroke="none" /><path d="M 107.08798089147638 80.2323363322302 l 10.14384037904898 -28.29014750219165 a51.053784176562274,51.053784176562274 0 0,0 0.8246831394705854,0.30373776005432657 l -10.62930584429214 28.111346474331" fill="#859900" stroke="none" /><path d="M 107.4271985657038 80.35727306442388 l 5.400295870901677 -14.28217331542273 a36.2690428680075,36.2690428680075 0 0,0 0.5820608588508233,0.22583057037611945 l -5.6453398947521665 14.187100041156064" fill="#859900" stroke="none" /><path d="M 107.76421540070413 80.48803036053334 l 5.6453398947521665 -14.187100041156064 a36.2690428680075,36.2690428680075 0 0,0 0.5780873182148745,0.23581633200797705 l -5.888711082555429 14.087822822964508" fill="#859900" stroke="none" /><path d="M 108.09893153111575 80.62456947434976 l 5.888711082555429 -14.087822822964508 a36.2690428680075,36.2690428680075 0 0,0 0.5739424778303914,0.24573221617132773 l -6.130337318176135 13.984371078830389" fill="#859900" stroke="none" /><path d="M 108.43124777332544 80.76684994638697 l 10.791347044232442 -24.616949064049862 a47.878380759470794,47.878380759470794 0 0,0 0.7519593387299776,0.3373822361995313 l -11.2134885014292 24.4275464973338" fill="#859900" stroke="none" /><path d="M 109.41281617654863 81.2277094730956 l 9.274440981549446 -18.4963243002704 a41.69128483543294,41.69128483543294 0 0,0 0.6387492216547859,0.32719216048594973 l -9.591450690792987 18.333939614471948" fill="#859900" stroke="none" /><path d="M 109.73455568895987 81.39251694778311 l 7.0779689578921205 -13.529450304286804 a36.2690428680075,36.2690428680075 0 0,0 0.5506935226733914,0.294161408087691 l -7.309807527093823 13.40561016969736" fill="#859900" stroke="none" /><path d="M 110.05341064243156 81.56283822128135 l 7.309807527093823 -13.40561016969736 a36.2690428680075,36.2690428680075 0 0,0 0.5455484264008228,0.3035971086393091 l -7.539480042566681 13.277797663497871" fill="#859900" stroke="none" /><path d="M 110.36928655335952 81.73862282372117 l 7.539480042566681 -13.277797663497871 a36.2690428680075,36.2690428680075 0 0,0 0.5402416723556108,0.31294284681547785 l -7.76691844738762 13.146050659292342" fill="#859900" stroke="none" /><line stroke="#2aa198" stroke-width="0.3" x1="143.23703022742887" x2="145.7803849466894" y1="26.81831364943548" y2="22.513508569990506" /><path d="M 143.74570117128098 25.957352633546492 a86.0,86.0 0 0,1 28.547481713284135,27.462654790039103" fill="none" id="id86" stroke="none" /><text fill="#2aa198" style="font-size:6.75px; font-family:Arial;" text-anchor="middle"><textPath startOffset="19.985693538727396" xlink:href="#id86">February</textPath></text><path d="M 110.68208982089419 81.91981866633111 l 15.47372736620168 -26.190361753133217 a51.41991596575379,51.41991596575379 0 0,0 0.7581693588047007,0.45678855546497554 l -15.922258791224019 25.92012658820963" fill="#859900" stroke="none" /><path d="M 111.2981086023043 82.29822771554956 l 8.214824027428028 -12.870910469094326 a36.2690428680075,36.2690428680075 0 0,0 0.5233674253452264,0.3404127318565941 l -8.435158478557534 12.727598813078204" fill="#859900" stroke="none" /><path d="M 111.60114157652 82.49532879139004 l 8.435158478557534 -12.727598813078204 a36.2690428680075,36.2690428680075 0 0,0 0.51743023722014,0.3493712059298474 l -8.652993410184216 12.580515694849687" fill="#859900" stroke="none" /><path d="M 111.90073688211348 82.69761687909136 l 8.652993410184216 -12.580515694849687 a36.2690428680075,36.2690428680075 0 0,0 0.5113397233486997,0.3582261537747303 l -8.868264273116566 12.42970469831102" fill="#859900" stroke="none" /><path d="M 112.19680574252982 82.90503203632743 l 13.146628901564204 -18.42623426549032 a43.63536968291379,43.63536968291379 0 0,0 0.6076842017334301,0.44150841615632336 l -13.461858419651422 18.19720661451732" fill="#859900" stroke="none" /><path d="M 112.48926042617603 83.11751280151076 l 18.025771212511803 -24.366523024878855 a51.309336385473216,51.309336385473216 0 0,0 0.7055127728290638,0.5313775936811636 l -18.44253013909925 24.052628841691845" fill="#859900" stroke="none" /><path d="M 113.34407831869373 83.78471172551755 l 18.43313156169559 -22.399339612360315 a50.00880477097655,50.00880477097655 0 0,0 0.6599792060932897,0.552713605117243 l -18.815968304747994 22.078724849849255" fill="#859900" stroke="none" /><path d="M 113.89432698308785 84.25364557470405 l 10.102527348899127 -11.449131463556352 a36.2690428680075,36.2690428680075 0 0,0 0.46457019151923995,0.41709570493394 l -10.298108528014357 11.273536749853116" fill="#859900" stroke="none" /><path d="M 114.16331599549186 84.49514656593476 l 10.298108528014357 -11.273536749853116 a36.2690428680075,36.2690428680075 0 0,0 0.4573217435121488,0.4250307198704245 l -10.490638155321353 11.094601443908052" fill="#859900" stroke="none" /><path d="M 114.42810811169701 84.74124197986012 l 13.754913009904737 -14.546805969388055 a41.020169725081516,41.020169725081516 0 0,0 0.508878169678396,0.4895403960469716 l -14.00327442319555 14.307882486578782" fill="#859900" stroke="none" /><path d="M 114.94478906791727 85.2469230424477 l 10.86631547292184 -10.726922119041891 a36.2690428680075,36.2690428680075 0 0,0 0.43477210529339855,0.4480708720518491 l -11.049351841918348 10.538287051439925" fill="#859900" stroke="none" /><path d="M 115.19652480421416 85.50635884689758 l 10.390858271454345 -9.910250731630558 a35.35907396670256,35.35907396670256 0 0,0 0.41628183568725524,0.44406043789954563 l -10.559907429112062 9.729920876852958" fill="#859900" stroke="none" /><path d="M 115.4437574822437 85.77008943001954 l 11.27059495199359 -10.384749852601407 a36.32544746730119,36.32544746730119 0 0,0 0.4197428969242264,0.4634905904785606 l -11.447681489533853 10.189206474853298" fill="#859900" stroke="none" /><path d="M 115.68641384162765 86.03803664274999 l 5.999209046604885 -5.339699546807889 a29.03136977327319,29.03136977327319 0 0,0 0.32903343892948606,0.3761420998775043 l -6.090234349112217 5.235641890727437" fill="#859900" stroke="none" /><path d="M 115.92442197804982 86.31012108654704 l 22.268314168117172 -19.143584928134814 a50.36587577087866,50.36587577087866 0 0,0 0.5595154409415348,0.6622898018200174 l -22.594540222545827 18.75743617668569" fill="#859900" stroke="none" /><path d="M 116.15771136456269 86.58626213691792 l 11.748227974971417 -9.753092307219786 a36.2690428680075,36.2690428680075 0 0,0 0.39464433268024207,0.4837872885948242 l -11.914370799728069 9.54942084901686" fill="#859900" stroke="none" /><path d="M 116.38621287248628 86.86637796730983 l 11.914370799728069 -9.54942084901686 a36.2690428680075,36.2690428680075 0 0,0 0.38625825896154614,0.4905087637408304 l -12.076983139283579 9.342919691322992" fill="#859900" stroke="none" /><path d="M 117.04232023915458 87.72973835380427 l 21.550220101062987 -15.515894283316612 a47.55475403417091,47.55475403417091 0 0,0 0.4725750969172314,0.6684239606727145 l -21.8141078177841 15.142643822312106" fill="#859900" stroke="none" /><path d="M 117.2510076193507 88.02491185347247 l 12.543160707437613 -8.70705401226178 a36.2690428680075,36.2690428680075 0 0,0 0.35159475150182107,0.5159219133153128 l -12.691179924608168 8.48985407567606" fill="#859900" stroke="none" /><line stroke="#2aa198" stroke-width="0.3" x1="172.23445277983987" x2="176.4835382374775" y1="55.19839476539836" y2="52.563006222186495" /><path d="M 173.08426987136738 54.67131705675599 a86.0,86.0 0 0,1 12.851231095245387,41.99856678651699" fill="none" id="id87" stroke="none" /><text fill="#2aa198" style="font-size:6.75px; font-family:Arial;" text-anchor="middle"><textPath startOffset="22.20632615414155" xlink:href="#id87">March</textPath></text><path d="M 117.84615892207809 88.93136811851018 l 6.921264057782879 -4.2927402106348875 a29.14441616529747,29.14441616529747 0 0,0 0.2607512078871898,0.4286064258527786 l -6.994131063956292 4.172966011575027" fill="#859900" stroke="none" /><path d="M 118.3937258080291 89.86733742301442 l 23.173992029786092 -12.765996636585523 a47.457599602418625,47.457599602418625 0 0,0 0.3880040705842039,0.7189126151868217 l -23.390304199588762 12.365203038066241" fill="#859900" stroke="none" /><path d="M 118.56541770881063 90.18545643968196 l 27.33131223878275 -14.448603243701095 a51.91541305542796,51.91541305542796 0 0,0 0.41085009159086994,0.7936316059958978 l -27.575971763533737 13.975998915444855" fill="#859900" stroke="none" /><path d="M 118.73160827565052 90.50648371742162 l 13.619701416553898 -6.9027098612769855 a36.2690428680075,36.2690428680075 0 0,0 0.2774408845956672,0.5593038936726085 l -13.736502314102975 6.667246379105427" fill="#859900" stroke="none" /><path d="M 118.89224826269711 90.83032412892265 l 13.736502314102975 -6.667246379105427 a36.2690428680075,36.2690428680075 0 0,0 0.2677722816136502,0.5639967155241056 l -13.84923278955838 6.429807247940781" fill="#859900" stroke="none" /><path d="M 119.04729006885535 91.15688171328212 l 13.84923278955838 -6.429807247940781 a36.2690428680075,36.2690428680075 0 0,0 0.2580243319255888,0.5685224129767533 l -13.957859438447317 6.190462826121965" fill="#859900" stroke="none" /><path d="M 119.196687751892 91.48605970444005 l 5.1244458144192775 -2.2727475841501734 a26.605829687582357,26.605829687582357 0 0,0 0.18207166183090437,0.4202464983978203 l -5.162808186092863 2.1842019411657505" fill="#859900" stroke="none" /><path d="M 119.7369772167798 92.82701384747503 l 10.98859621053312 -3.993572449728069 a32.69178633012808,32.69178633012808 0 0,0 0.1876616249962344,0.5305446846505527 l -11.055710916339164 3.8038301386509015" fill="#859900" stroke="none" /><path d="M 119.85752413597 93.16781622104841 l 15.90462036449397 -5.472146906161661 a37.81967124236651,37.81967124236651 0 0,0 0.2065002787291289,0.6174095495485097 l -15.99645793699487 5.197564253690837" fill="#859900" stroke="none" /><path d="M 120.18372546131832 94.20196356495316 l 14.675531871664946 -4.215736517952366 a36.2690428680075,36.2690428680075 0 0,0 0.16720586516756297,0.6015284603209758 l -14.745924507398872 3.962496754212438" fill="#859900" stroke="none" /><path d="M 120.28053869075195 94.5502522615342 l 14.745924507398872 -3.962496754212438 a36.2690428680075,36.2690428680075 0 0,0 0.15682676818896352,0.604317511497038 l -14.81194760745814 3.7080828171665496" fill="#859900" stroke="none" /><path d="M 120.37134235888165 94.90015583598534 l 14.81194760745814 -3.7080828171665496 a36.2690428680075,36.2690428680075 0 0,0 0.14640120005435137,0.606927490352187 l -14.873581607773309 3.4525700951549565" fill="#859900" stroke="none" /><path d="M 120.45610955862082 95.25157060432595 l 14.873581607773309 -3.4525700951549565 a36.2690428680075,36.2690428680075 0 0,0 0.13593225008456702,0.6093576234933922 l -14.930808244859914 3.1960343021116007" fill="#859900" stroke="none" /><path d="M 120.53481517161879 95.60439243477599 l 21.823577654476043 -4.67147535717053 a43.317957425660566,43.317957425660566 0 0,0 0.14979907465598374,0.73047348808111 l -21.900756025047023 4.295126212926008" fill="#859900" stroke="none" /><path d="M 120.78858239683441 97.02765380044208 l 14.20840897624081 -2.0315146851343187 a35.35290693734328,35.35290693734328 0 0,0 0.08094805764206874,0.6031570528735705 l -14.241273032940715 1.7866392901960837" fill="#859900" stroke="none" /><path d="M 120.87857604477298 97.74499172005257 l 14.953046153650607 -1.615016407948946 a36.04000888534144,36.04000888534144 0 0,0 0.06130727180106734,0.6173558604612809 l -14.978630551133904 1.35738501678323" fill="#859900" stroke="none" /><path d="M 120.91429891909075 98.10471618934814 l 14.826548606703687 -1.3436031325189701 a35.88730375066828,35.88730375066828 0 0,0 0.05045672226500301,0.615699813823963 l -14.847479812788185 1.0881894014872384" fill="#859900" stroke="none" /><path d="M 120.94382443527127 98.46500227214037 l 5.468958777521775 -0.40082647384668985 a26.483627628893927,26.483627628893927 0 0,0 0.029408692588806618,0.45493945775339834 l -5.475048061114997 0.30662795184025626" fill="#859900" stroke="none" /><path d="M 120.96714384426684 98.82574320788733 l 30.47491304173385 -1.7067357334930424 a51.52266816261681,51.52266816261681 0 0,0 0.04196985459263246,0.8859172966985575 l -30.49977650455998 1.1819073301714853" fill="#859900" stroke="none" /><line stroke="#2aa198" stroke-width="0.3" x1="184.98032266829074" x2="189.97916517819016" y1="98.17113171792111" y2="98.06355123074" /><path d="M 185.9800911702706 98.14961562048488 a86.0,86.0 0 0,1 -9.607161424134198,41.387399972396054" fill="none" id="id88" stroke="none" /><text fill="#2aa198" style="font-size:6.75px; font-family:Arial;" text-anchor="middle"><textPath startOffset="21.466115282336823" xlink:href="#id88">April</textPath></text><path d="M 120.99513854157772 99.54816195383933 l 15.418130470846004 -0.3318148119671232 a36.421700563993284,36.421700563993284 0 0,0 0.00809427701394534,0.6269106749363033 l -15.421557754977664 0.06636787897035724" fill="#859900" stroke="none" /><path d="M 120.99980553446 99.90962569577887 l 14.887165890308133 -0.06406808181882218 a35.88730375066828,35.88730375066828 0 0,0 -0.002658570272254444,0.6177581027948542 l -14.886063022746374 -0.1921994991797168" fill="#859900" stroke="none" /><path d="M 120.99824983174949 100.27111621757518 l 15.038755430768184 0.19417096768052142 a36.04000888534144,36.04000888534144 0 0,0 -0.013348425235331432,0.6202488690560547 l -15.033184942847846 -0.45300965252669095" fill="#859900" stroke="none" /><path d="M 120.9764740272857 100.99374915477107 l 14.946869074269609 0.708099868915442 a35.96363259866117,35.96363259866117 0 0,0 -0.03461696429329284,0.6181091518180093 l -14.932465759088785 -0.9652807370688746" fill="#859900" stroke="none" /><path d="M 120.8583938346157 102.4346265915055 l 15.89274756188798 1.8550280588740116 a37.00064230476721,37.00064230476721 0 0,0 -0.07928443145770227,0.6319749273658439 l -15.858461621183428 -2.1283207405272506" fill="#859900" stroke="none" /><path d="M 120.76222939487914 103.15116336523771 l 15.927068671024072 2.4173124358280584 a37.109466653614746,37.109466653614746 0 0,0 -0.1012880726273079,0.6307209249372618 l -15.883098844035477 -2.691112590458525" fill="#859900" stroke="none" /><path d="M 120.70491114924044 103.5080841355445 l 4.765654620544544 0.8074566101400522 a25.8335752957388,25.8335752957388 0 0,0 -0.0780586790291939,0.43779452615595205 l -4.751049499176162 -0.8893698870292226" fill="#859900" stroke="none" /><path d="M 120.49622156327973 104.57218783832717 l 14.455667770162394 3.2246933011324437 a35.81097490267539,35.81097490267539 0 0,0 -0.13938899152475534,0.6004841273398062 l -14.398018212707086 -3.473046085820815" fill="#859900" stroke="none" /><path d="M 120.41448212921028 104.9243191809786 l 21.533087469496653 5.1941457530294075 a43.15068861396203,43.15068861396203 0 0,0 -0.18038772574680043,0.7205592956070597 l -21.440488429454792 -5.564032888033863" fill="#859900" stroke="none" /><path d="M 120.32669344350535 105.2749913415812 l 40.842276990235995 10.599001657241653 a63.195146946981616,63.195146946981616 0 0,0 -0.28230753814097187,1.0505713704045168 l -40.65378137575325 -11.300463960821718" fill="#859900" stroke="none" /><path d="M 120.13307415673323 105.97154293290107 l 14.638703445901601 4.341892620505418 a36.2690428680075,36.2690428680075 0 0,0 -0.1826806534410754,0.5970109452773036 l -14.561796019954393 -4.593230538334779" fill="#859900" stroke="none" /><path d="M 120.02730092923936 106.31721596034902 l 14.561796019954393 4.593230538334779 a36.2690428680075,36.2690428680075 0 0,0 -0.19293014936096953,0.5937779445130229 l -14.480573619577177 -4.843207382825597" fill="#859900" stroke="none" /><line stroke="#2aa198" stroke-width="0.3" x1="174.80103733775053" x2="179.2010983576182" y1="140.37084112569926" y2="142.7455964860345" /><path d="M 175.68104954172406 140.8457921977663 a86.0,86.0 0 0,1 -30.038265399797805,32.042727171017184" fill="none" id="id89" stroke="none" /><text fill="#2aa198" style="font-size:6.75px; font-family:Arial;" text-anchor="middle"><textPath startOffset="22.206326154141568" xlink:href="#id89">May</textPath></text><line stroke="#2aa198" stroke-width="0.3" x1="143.8653032363475" x2="146.44561519142675" y1="172.8068346515853" y2="177.08958963109032" /><path d="M 144.38136562736335 173.6633856474863 a86.0,86.0 0 0,1 -40.68145358897372,12.25698825130547" fill="none" id="id90" stroke="none" /><text fill="#2aa198" style="font-size:6.75px; font-family:Arial;" text-anchor="middle"><textPath startOffset="21.466115282336833" xlink:href="#id90">June</textPath></text><line stroke="#2aa198" stroke-width="0.3" x1="102.19456741930631" x2="102.32365962044197" y1="184.97166512339345" y2="189.96999836594603" /><path d="M 102.22038585953345 185.97133177190398 a86.0,86.0 0 0,1 -42.740103519485714,-10.115201625700543" fill="none" id="id91" stroke="none" /><text fill="#2aa198" style="font-size:6.75px; font-family:Arial;" text-anchor="middle"><textPath startOffset="22.20632615414155" xlink:href="#id91">July</textPath></text><line stroke="#2aa198" stroke-width="0.3" x1="58.666819895761336" x2="56.23545636021788" y1="174.27360380694188" y2="178.64263932499728" /><path d="M 58.180547188652646 175.14741091055294 a86.0,86.0 0 0,1 -31.652253787137756,-30.449443065178592" fill="none" id="id92" stroke="none" /><text fill="#2aa198" style="font-size:6.75px; font-family:Arial;" text-anchor="middle"><textPath startOffset="22.20632615414155" xlink:href="#id92">August</textPath></text><line stroke="#2aa198" stroke-width="0.3" x1="26.63291911575756" x2="22.317208475507996" y1="142.92168965132927" y2="145.44649492493687" /><path d="M 25.769776987707644 143.4266507060508 a86.0,86.0 0 0,1 -11.730757126820373,-40.83630448921669" fill="none" id="id93" stroke="none" /><text fill="#2aa198" style="font-size:6.75px; font-family:Arial;" text-anchor="middle"><textPath startOffset="21.46611528233685" xlink:href="#id93">September</textPath></text><line stroke="#2aa198" stroke-width="0.3" x1="15.007084014347285" x2="10.007500721073583" y1="101.09737516637583" y2="101.16192664675087" /><path d="M 14.007167355692545 101.11028546245083 a86.0,86.0 0 0,1 10.666146001902534,-42.60595125391555" fill="none" id="id94" stroke="none" /><text fill="#2aa198" style="font-size:6.75px; font-family:Arial;" text-anchor="middle"><textPath startOffset="22.20632615414155" xlink:href="#id94">October</textPath></text><line stroke="#2aa198" stroke-width="0.3" x1="26.266209847984257" x2="21.92892807433627" y1="57.711370442889674" y2="55.22380399835377" /><path d="M 25.39875349325466 57.213857153982495 a86.0,86.0 0 0,1 29.58750427330802,-30.492523968695096" fill="none" id="id95" stroke="none" /><text fill="#2aa198" style="font-size:6.75px; font-family:Arial;" text-anchor="middle"><textPath startOffset="21.46611528233685" xlink:href="#id95">November</textPath></text><line stroke="#2aa198" stroke-width="0.3" x1="56.762969772571076" x2="54.21961505331055" y1="26.818313649435495" y2="22.513508569990535" /><path d="M 56.25429882871897 25.957352633546506 a86.0,86.0 0 0,1 42.265352541879196,-11.944610805530505" fill="none" id="id96" stroke="none" /><text fill="#2aa198" style="font-size:6.75px; font-family:Arial;" text-anchor="middle"><textPath startOffset="22.20632615414155" xlink:href="#id96">December</textPath></text></svg>