<?xml version="1.0" encoding="utf-8" ?>
<svg baseProfile="full" height="200mm" version="1.1" viewBox="0,0,200,200" width="200mm" xmlns="http://www.w3.org/2000/svg" xmlns:ev="http://www.w3.org/2001/xml-events" xmlns:xlink="http://www.w3.org/1999/xlink"><defs /><rect fill="#1a1a1a" height="200" width="200" x="0" y="0" /><text alignment-baseline="middle" fill="#e1ed5e" style="dominant-baseline: central; font-size:9.0px; font-family:Arial;" text-anchor="middle" x="100.0" y="100.0">2023</text><line stroke="#e1ed5e" stroke-width="0.3" x1="100.0" x2="100.0" y1="15.0" y2="10.0" /><path d="M 100.0 14.0 a86.0,86.0 0 0,1 42.46469731375804,11.215312516191453" fill="none" id="id61" stroke="none" /><text fill="#e1ed5e" style="font-size:6.75px; font-family:Arial;" text-anchor="middle"><textPath startOffset="22.20632615414155" xlink:href="#id61">January</textPath></text><path d="M 109.08828744355905 81.06846463323043 l 5.6426829369178115 -11.754101336158136 a34.0383576016022,34.0383576016022 0 0,0 0.5260202412139905,0.2581158478828794 l -5.844174445142233 11.655230328140425" fill="red" stroke="none" /><path d="M 110.05341064243156 81.56283822128135 l 1.6834546783648825 -3.087323034548513 a24.516473115745725,24.516473115745725 0 0,0 0.3687696799131973,0.20521992761323332 l -1.7363484473501147 3.0578877093751" fill="red" stroke="none" /><line stroke="#e1ed5e" stroke-width="0.3" x1="143.23703022742887" x2="145.7803849466894" y1="26.81831364943548" y2="22.513508569990506" /><path d="M 143.74570117128098 25.957352633546492 a86.0,86.0 0 0,1 28.547481713284135,27.462654790039103" fill="none" id="id62" stroke="none" /><text fill="#e1ed5e" style="font-size:6.75px; font-family:Arial;" text-anchor="middle"><textPath startOffset="19.985693538727396" xlink:href="#id62">February</textPath></text><path d="M 115.4437574822437 85.77008943001954 l 8.70134874125518 -8.017440999616412 a32.83185657871466,32.83185657871466 0 0,0 0.3793742280574932,0.41891449804916725 l -8.838066609928708 7.866473714297695" fill="red" stroke="none" /><path d="M 116.60985879189232 87.15038557335679 l 1.5671364187594397 -1.212358213715741 a22.981345248402253,22.981345248402253 0 0,0 0.23936062532580346,0.3149705253916304 l -1.5877729843093542 1.185202912443077" fill="red" stroke="none" /><path d="M 117.04232023915458 87.72973835380427 l 4.9864059899333295 -3.590151183174504 a27.14438200427775,27.14438200427775 0 0,0 0.2697471413102548,0.38153820154920753 l -5.047465751047467 3.5037864812935036" fill="red" stroke="none" /><path d="M 117.2510076193507 88.02491185347247 l 5.169954271088187 -3.5888140261645627 a27.293489753669142,27.293489753669142 0 0,0 0.2645850838270546,0.3882459624316645 l -5.230963820583975 3.499290040462492" fill="red" stroke="none" /><line stroke="#e1ed5e" stroke-width="0.3" x1="172.23445277983987" x2="176.4835382374775" y1="55.19839476539836" y2="52.563006222186495" /><path d="M 173.08426987136738 54.67131705675599 a86.0,86.0 0 0,1 12.851231095245387,41.99856678651699" fill="none" id="id63" stroke="none" /><text fill="#e1ed5e" style="font-size:6.75px; font-family:Arial;" text-anchor="middle"><textPath startOffset="22.20632615414155" xlink:href="#id63">March</textPath></text><path d="M 117.84615892207809 88.93136811851018 l 1.6446233573251574 -1.0200363341722576 a22.935267451927782,22.935267451927782 0 0,0 0.20519878172844772,0.3372928437747621 l -1.661937937339829 0.991575717190414" fill="red" stroke="none" /><path d="M 119.196687751892 91.48605970444005 l 5.365036443946653 -2.3794521512057774 a26.869021092546316,26.869021092546316 0 0,0 0.18387275944913667,0.42440368002467743 l -5.40519991323847 2.286749326594497" fill="red" stroke="none" /><path d="M 119.61058180528143 92.48833698450437 l 3.2493901802223166 -1.2446506830876958 a24.47961087856615,24.47961087856615 0 0,0 0.14733859477697425,0.39479418186168524 l -3.270333363500916 1.1885333641966773" fill="red" stroke="none" /><path d="M 119.7369772167798 92.82701384747503 l 5.567309919463741 -2.0233208216492944 a26.92357720357209,26.92357720357209 0 0,0 0.15455020406999326,0.4369342388601743 l -5.601313204343544 1.9271889563625053" fill="red" stroke="none" /><path d="M 120.6074358757038 95.95851677861258 l 5.438814246858622 -1.066647818559393 a26.542421671135266,26.542421671135266 0 0,0 0.0840690458635631,0.44910020461843425 l -5.456369016632045 0.972869536478396" fill="red" stroke="none" /><path d="M 120.94382443527127 98.46500227214037 l 1.838181485191391 -0.1347225007487457 a22.843111858978837,22.843111858978837 0 0,0 0.025366088960543515,0.3924021689228863 l -1.84022816515635 0.10306126757282409" fill="red" stroke="none" /><line stroke="#e1ed5e" stroke-width="0.3" x1="184.98032266829074" x2="189.97916517819016" y1="98.17113171792111" y2="98.06355123074" /><path d="M 185.9800911702706 98.14961562048488 a86.0,86.0 0 0,1 -9.607161424134198,41.387399972396054" fill="none" id="id64" stroke="none" /><text fill="#e1ed5e" style="font-size:6.75px; font-family:Arial;" text-anchor="middle"><textPath startOffset="21.466115282336823" xlink:href="#id64">April</textPath></text><path d="M 120.49622156327973 104.57218783832717 l 5.003810839190551 1.116223446043573 a26.126799946935538,26.126799946935538 0 0,0 -0.10169475436705587,0.43809834021427874 l -4.983855518892942 -1.2021904436064166" fill="red" stroke="none" /><path d="M 120.41448212921028 104.9243191809786 l 4.032630003009901 0.9727387228303712 a25.14829186100367,25.14829186100367 0 0,0 -0.10513026143817764,0.41994313535062094 l -4.015288427276662 -1.0420096975783881" fill="red" stroke="none" /><path d="M 120.13307415673323 105.97154293290107 l 5.971128101971809 1.7710582865385136 a27.22824359386129,27.22824359386129 0 0,0 -0.13714377161485358,0.44819378072286137 l -5.9397575578508235 -1.873579039813432" fill="red" stroke="none" /><path d="M 119.41010516605496 108.01547362559984 l 7.070842586270285 2.9199302000761302 a28.650020081877567,28.650020081877567 0 0,0 -0.19215843892157622,0.45420578692538244 l -7.019533166156399 -3.041210512667676" fill="red" stroke="none" /><path d="M 118.97047184881838 109.00673069616215 l 7.058207770048239 3.351069867370927 a28.813319792583094,28.813319792583094 0 0,0 -0.21657565216085892,0.4462099910405877 l -6.9994788612726655 -3.4720688143767897" fill="red" stroke="none" /><line stroke="#e1ed5e" stroke-width="0.3" x1="174.80103733775053" x2="179.2010983576182" y1="140.37084112569926" y2="142.7455964860345" /><path d="M 175.68104954172406 140.8457921977663 a86.0,86.0 0 0,1 -30.038265399797805,32.042727171017184" fill="none" id="id65" stroke="none" /><text fill="#e1ed5e" style="font-size:6.75px; font-family:Arial;" text-anchor="middle"><textPath startOffset="22.206326154141568" xlink:href="#id65">May</textPath></text><path d="M 116.71984013943494 112.70617746262583 l 1.5041404301073107 1.1430656677498434 a22.88918965545331,22.88918965545331 0 0,0 -0.24109203386614197,0.3116439533052094 l -1.4842415790231003 -1.1687876151683054" fill="red" stroke="none" /><path d="M 116.498646956653 112.99209946851258 l 4.450842284334926 3.5048804807246996 a26.665172920943256,26.665172920943256 0 0,0 -0.28707228425643905,0.3581668139914781 l -4.389852088023633 -3.580975128294428" fill="red" stroke="none" /><path d="M 113.48314897796784 116.09983520530334 l 11.286710608090099 13.477132166760894 a38.57904797738247,38.57904797738247 0 0,0 -0.5127887953711887,0.42199026810704066 l -11.05305168417422 -13.669417553725113" fill="red" stroke="none" /><path d="M 113.20401910651253 116.32954008644616 l 7.7078280986622705 9.5323466969585 a33.258721285254154,33.258721285254154 0 0,0 -0.4482681838853876,0.3561313562195004 l -7.542602422059532 -9.663611967183126" fill="red" stroke="none" /><path d="M 112.34349029814194 116.9893568818739 l 4.278489829902525 5.88883604879762 a28.279001664665127,28.279001664665127 0 0,0 -0.3962732088393737,0.2827304128006342 l -4.176489293214266 -5.961610723442473" fill="red" stroke="none" /><line stroke="#e1ed5e" stroke-width="0.3" x1="143.8653032363475" x2="146.44561519142675" y1="172.8068346515853" y2="177.08958963109032" /><path d="M 144.38136562736335 173.6633856474863 a86.0,86.0 0 0,1 -40.68145358897372,12.25698825130547" fill="none" id="id66" stroke="none" /><text fill="#e1ed5e" style="font-size:6.75px; font-family:Arial;" text-anchor="middle"><textPath startOffset="21.466115282336833" xlink:href="#id66">June</textPath></text><path d="M 105.53697534728816 120.25689768951611 l 2.144563529336009 7.845836630589983 a29.133652633673613,29.133652633673613 0 0,0 -0.4848804776799484,0.12806134116535706 l -2.0091926088445633 -7.881589321058924" fill="red" stroke="none" /><path d="M 103.7750983002368 120.6578951692458 l 0.35617967044883925 1.9490677350274772 a22.981345248402253,22.981345248402253 0 0,0 -0.3897537974844943,0.0677636935847899 l -0.322576901492295 -1.9549100071332735" fill="red" stroke="none" /><path d="M 103.41894727170886 120.7198165907248 l 0.4075571605644974 2.4699151364543344 a23.503314526865058,23.503314526865058 0 0,0 -0.3997400493011977,0.062431174631518614 l -0.36498124765478257 -2.476564618432959" fill="red" stroke="none" /><path d="M 102.70371172650421 120.8252237178851 l 0.9088011715241117 7.000002081041472 a28.05874979751716,28.05874979751716 0 0,0 -0.4795007545615021,0.05806086367041786 l -0.7881729939112293 -7.0146084734372405" fill="red" stroke="none" /><line stroke="#e1ed5e" stroke-width="0.3" x1="102.19456741930631" x2="102.32365962044197" y1="184.97166512339345" y2="189.96999836594603" /><path d="M 102.22038585953345 185.97133177190398 a86.0,86.0 0 0,1 -42.740103519485714,-10.115201625700543" fill="none" id="id67" stroke="none" /><text fill="#e1ed5e" style="font-size:6.75px; font-family:Arial;" text-anchor="middle"><textPath startOffset="22.20632615414155" xlink:href="#id67">July</textPath></text><path d="M 98.73552117531835 120.96189622390904 l -0.31858972788101714 5.281420837969864 a26.291021213570552,26.291021213570552 0 0,0 -0.4515010146078413,-0.03113815342566501 l 0.4094535032677885 -5.275154340027914" fill="red" stroke="none" /><line stroke="#e1ed5e" stroke-width="0.3" x1="58.666819895761336" x2="56.23545636021788" y1="174.27360380694188" y2="178.64263932499728" /><path d="M 58.180547188652646 175.14741091055294 a86.0,86.0 0 0,1 -31.652253787137756,-30.449443065178592" fill="none" id="id68" stroke="none" /><text fill="#e1ed5e" style="font-size:6.75px; font-family:Arial;" text-anchor="middle"><textPath startOffset="22.20632615414155" xlink:href="#id68">August</textPath></text><path d="M 89.4739219176387 118.17145234162733 l -4.396484688347489 7.589770032095283 a29.771185025694393,29.771185025694393 0 0,0 -0.4412261570264199,-0.26068419081103006 l 4.526478716402291 -7.512967268990503" fill="red" stroke="none" /><line stroke="#e1ed5e" stroke-width="0.3" x1="26.63291911575756" x2="22.317208475507996" y1="142.92168965132927" y2="145.44649492493687" /><path d="M 25.769776987707644 143.4266507060508 a86.0,86.0 0 0,1 -11.730757126820373,-40.83630448921669" fill="none" id="id69" stroke="none" /><text fill="#e1ed5e" style="font-size:6.75px; font-family:Arial;" text-anchor="middle"><textPath startOffset="21.46611528233685" xlink:href="#id69">September</textPath></text><path d="M 80.58989483394504 108.01547362559985 l -6.7633811260005 2.792962870193205 a28.317374245575913,28.317374245575913 0 0,0 -0.18217158246059437,-0.45213492788445075 l 6.810455322718481 -2.6761285744659493" fill="red" stroke="none" /><path d="M 80.45479744820244 107.68017299344265 l -7.226021950309407 2.839423049503576 a28.763872518299458,28.763872518299458 0 0,0 -0.17711110750757666,-0.4623812137520612 l 7.273827337410496 -2.714618268918357" fill="red" stroke="none" /><path d="M 80.32549172779595 107.34259656027581 l -59.023524816612166 22.027789680827432 a84.0,84.0 0 0,0 -0.4939029559791117,-1.3590088119755315 l 59.3939520335965 -21.008533071845783" fill="red" stroke="none" /><path d="M 79.86692584326677 105.97154293290107 l -4.505117691093082 1.3362342730525005 a25.69910708997784,25.69910708997784 0 0,0 -0.12214095776344361,-0.4251886973628399 l 4.52745128574263 -1.2584881001850647" fill="red" stroke="none" /><path d="M 79.4281124754447 104.21870165774334 l -6.276487243234598 1.2871267697839082 a27.40710445021626,27.40710445021626 0 0,0 -0.09079590921640264,-0.4629663849775707 l 6.2977130854266665 -1.1788966577383826" fill="red" stroke="none" /><path d="M 79.0235259727143 100.99374915477108 l -5.69395848062438 0.2697482150747463 a26.700344487713906,26.700344487713906 0 0,0 -0.017797517855532886,-0.459274854358413 l 5.697758131331113 -0.1716961137023365" fill="red" stroke="none" /><path d="M 79.0095281055655 100.63252640178507 l -4.73735422004838 0.14275532412318226 a25.739504624829024,25.739504624829024 0 0,0 -0.009533345404327659,-0.44297710037763277 l 4.739109628137715 -0.06118840795542062" fill="red" stroke="none" /><line stroke="#e1ed5e" stroke-width="0.3" x1="15.007084014347285" x2="10.007500721073583" y1="101.09737516637583" y2="101.16192664675087" /><path d="M 14.007167355692545 101.11028546245083 a86.0,86.0 0 0,1 10.666146001902534,-42.60595125391555" fill="none" id="id70" stroke="none" /><text fill="#e1ed5e" style="font-size:6.75px; font-family:Arial;" text-anchor="middle"><textPath startOffset="22.20632615414155" xlink:href="#id70">October</textPath></text><path d="M 79.05617556472873 98.46500227214037 l -12.09278216693691 -0.8862943445271114 a33.12521744968428,33.12521744968428 0 0,0 0.04657329256158718,-0.5683121350755854 l 12.075734390555827 1.0943203968104753" fill="red" stroke="none" /><path d="M 79.08570108090925 98.10471618934814 l -6.803059743306873 -0.6165030462779398 a27.830936822799092,27.830936822799092 0 0,0 0.047342907536508855,-0.4767366180276158 l 6.791439710088136 0.733515195009986" fill="red" stroke="none" /><path d="M 79.12142395522702 97.74499172005258 l -7.545833824190529 -0.8149941699169164 a28.589718281945412,28.589718281945412 0 0,0 0.057056428615389176,-0.48882463660288933 l 7.530687042571551 0.9447625448446675" fill="red" stroke="none" /><path d="M 79.26566170972629 96.67025291283419 l -2.1225156511874324 -0.34085680517330363 a23.14971069010892,23.14971069010892 0 0,0 0.06656990166290813,-0.39289932792056287 l 2.1163338880043012 0.37734192140969447" fill="red" stroke="none" /><path d="M 79.32604984820605 96.31383870115002 l -4.331570926759332 -0.7723182553992233 a25.39988433724906,25.39988433724906 0 0,0 0.0804502342602555,-0.42976836833045823 l 4.317634968589214 0.8467647011922542" fill="red" stroke="none" /><path d="M 79.46518482838121 95.60439243477599 l -2.2939708484408885 -0.49103902477517225 a23.345937249235103,23.345937249235103 0 0,0 0.08749791915300063,-0.39223601494509136 l 2.28517854228585 0.5304532092702229" fill="red" stroke="none" /><path d="M 79.81627453868168 94.20196356495316 l -2.0443987451493224 -0.58728000610476 a23.12707875612036,23.12707875612036 0 0,0 0.11320606253153774,-0.3816745651080818 l 2.0339867855060776 0.6223839579593811" fill="red" stroke="none" /><path d="M 80.2630227832202 92.82701384747504 l -4.511051164897102 -1.6394459589094985 a25.799725582208236,25.799725582208236 0 0,0 0.15528413959563314,-0.4160842916993397 l 4.482162436799841 1.7168533876381797" fill="red" stroke="none" /><path d="M 80.65960295795068 91.81776055985345 l -3.104019646021924 -1.313201167248587 a24.370376131613966,24.370376131613966 0 0,0 0.1667737835591009,-0.384936886171556 l 3.080955152620142 1.3664371980067425" fill="red" stroke="none" /><path d="M 81.10775173730289 90.83032412892265 l -3.774531244575195 -1.8320333078805036 a25.195644426957312,25.195644426957312 0 0,0 0.19273466639889714,-0.38854132663141444 l 3.742436565222885 1.8967342230108795" fill="red" stroke="none" /><line stroke="#e1ed5e" stroke-width="0.3" x1="26.266209847984257" x2="21.92892807433627" y1="57.711370442889674" y2="55.22380399835377" /><path d="M 25.39875349325466 57.213857153982495 a86.0,86.0 0 0,1 29.58750427330802,-30.492523968695096" fill="none" id="id71" stroke="none" /><text fill="#e1ed5e" style="font-size:6.75px; font-family:Arial;" text-anchor="middle"><textPath startOffset="21.46611528233685" xlink:href="#id71">November</textPath></text><path d="M 83.39014120810768 87.1503855733568 l -1.8946237742950136 -1.4657069207069893 a23.395390578492837,23.395390578492837 0 0,0 0.2491563636090561,-0.3164032795586273 l 1.8691133300919864 1.498102594218664" fill="red" stroke="none" /><path d="M 83.84228863543731 86.58626213691792 l -1.975834283625607 -1.6402894285865204 a23.567970117794015,23.567970117794015 0 0,0 0.2618170138159026,-0.3099087630208214 l 1.9473066563225803 1.6740571412364575" fill="red" stroke="none" /><path d="M 84.31358615837235 86.03803664274997 l -3.0315523043162087 -2.698285447252862 a25.058454598570925,25.058454598570925 0 0,0 0.2895520649846356,-0.31973062214378084 l 2.984656598715528 2.7500688566662013" fill="red" stroke="none" /><path d="M 85.57189188830299 84.74124197986013 l -2.6751167176699684 -2.829127585858919 a24.89361173593686,24.89361173593686 0 0,0 0.31388724435942505,-0.2917239849643998 l 2.626021589515687 2.874756156897966" fill="red" stroke="none" /><path d="M 85.83668400450813 84.49514656593479 l -2.416068175263585 -2.6449161309466582 a24.582313047077733,24.582313047077733 0 0,0 0.31487486234000506,-0.2826977603625316 l 2.3701823253276086 2.6861129000784687" fill="red" stroke="none" /><path d="M 86.93701828274178 83.55741782278169 l -2.1750256476317977 -2.7377392637314024 a24.49656300444203,24.49656300444203 0 0,0 0.33241537936914234,-0.2594554762829919 l 2.12757771310323 2.7747731292376163" fill="red" stroke="none" /><path d="M 87.51073957382395 83.11751280151077 l -1.9802274354557625 -2.676792955578957 a24.32964280714446,24.32964280714446 0 0,0 0.33882466620899365,-0.24617052953805751 l 1.9338574528929848 2.7104827199336827" fill="red" stroke="none" /><line stroke="#e1ed5e" stroke-width="0.3" x1="56.762969772571076" x2="54.21961505331055" y1="26.818313649435495" y2="22.513508569990535" /><path d="M 56.25429882871897 25.957352633546506 a86.0,86.0 0 0,1 42.265352541879196,-11.944610805530505" fill="none" id="id72" stroke="none" /><text fill="#e1ed5e" style="font-size:6.75px; font-family:Arial;" text-anchor="middle"><textPath startOffset="22.20632615414155" xlink:href="#id72">December</textPath></text><path d="M 92.23578459929587 80.48803036053334 l -1.2533558841836758 -3.1497634593472132 a24.38997209756316,24.38997209756316 0 0,0 0.39142053343175776,-0.15186508588867872 l 1.1989521857522405 3.1708712491264435" fill="red" stroke="none" /><path d="M 95.692805502759 79.44645832069477 l -0.5622158387704226 -2.6828430158738774 a23.741118986324302,23.741118986324302 0 0,0 0.4006976212186124,-0.08037617324894669 l 0.5159518080846738 2.6921231452000347" fill="red" stroke="none" /></svg>