<?xml version="1.0" encoding="utf-8" ?>
<svg baseProfile="full" height="200mm" version="1.1" viewBox="0,0,200,200" width="200mm" xmlns="http://www.w3.org/2000/svg" xmlns:ev="http://www.w3.org/2001/xml-events" xmlns:xlink="http://www.w3.org/1999/xlink"><defs /><rect fill="#1a1a1a" height="200" width="200" x="0" y="0" /><text alignment-baseline="middle" fill="#e1ed5e" style="dominant-baseline: central; font-size:9.0px; font-family:Arial;" text-anchor="middle" x="100.0" y="100.0">2021</text><line stroke="#e1ed5e" stroke-width="0.3" x1="100.0" x2="100.0" y1="15.0" y2="10.0" /><path d="M 100.0 14.0 a86.0,86.0 0 0,1 42.46469731375804,11.215312516191453" fill="none" id="id37" stroke="none" /><text fill="#e1ed5e" style="font-size:6.75px; font-family:Arial;" text-anchor="middle"><textPath startOffset="22.20632615414155" xlink:href="#id37">January</textPath></text><path d="M 105.01212808612495 79.60689891045804 l 3.663608191108152 -14.9063094378151 a36.349921368979395,36.349921368979395 0 0,0 0.6063359215500832,0.15456852703557644 l -3.9196530013432604 14.841037914610656" fill="red" stroke="none" /><path d="M 106.0581310904928 79.89281104454417 l 10.808379547314274 -35.873461074685025 a58.46633526134819,58.46633526134819 0 0,0 0.9611159112484051,0.29862339209740657 l -11.424280831273396 35.6820975477051" fill="red" stroke="none" /><path d="M 107.76421540070413 80.48803036053334 l 9.21443102083459 -23.156454199760997 a45.922421835434605,45.922421835434605 0 0,0 0.7319512064707815,0.2985812753197185 l -9.61166609689376 22.9944120382577" fill="red" stroke="none" /><path d="M 110.05341064243156 81.56283822128135 l 7.808161437530487 -14.319551915098454 a37.31002612149159,37.31002612149159 0 0,0 0.5612065946605868,0.31231086232312866 l -8.053492121263108 14.183025655215145" fill="red" stroke="none" /><path d="M 110.36928655335952 81.73862282372117 l 13.644980023220619 -24.030209357662276 a48.633972599088416,48.633972599088416 0 0,0 0.7244221686755499,0.4196320783124318 l -14.056598924361497 23.791773121959796" fill="red" stroke="none" /><line stroke="#e1ed5e" stroke-width="0.3" x1="143.23703022742887" x2="145.7803849466894" y1="26.81831364943548" y2="22.513508569990506" /><path d="M 143.74570117128098 25.957352633546492 a86.0,86.0 0 0,1 28.547481713284135,27.462654790039103" fill="none" id="id38" stroke="none" /><text fill="#e1ed5e" style="font-size:6.75px; font-family:Arial;" text-anchor="middle"><textPath startOffset="19.985693538727396" xlink:href="#id38">February</textPath></text><path d="M 113.34407831869373 83.78471172551755 l 16.14195277759035 -19.615173963347438 a46.40310392622012,46.40310392622012 0 0,0 0.6123938340406998,0.5128622245052383 l -16.477204148590168 19.334410581448378" fill="red" stroke="none" /><path d="M 114.68862486808459 84.99185889309783 l 12.603295865135646 -12.877450711331166 a39.0186515446331,39.0186515446331 0 0,0 0.4759610310229049,0.4739171030957793 l -12.823092696325874 12.658597757585271" fill="red" stroke="none" /><path d="M 115.92442197804982 86.31012108654704 l 13.04765224816116 -11.216782601489655 a38.2063198016899,38.2063198016899 0 0,0 0.42443470987862636,0.5023968228973769 l -13.238797571526906 10.990526828963173" fill="red" stroke="none" /><path d="M 117.65298651832404 88.62581576622439 l 15.314790413726612 -9.867636135481787 a39.218480955300265,39.218480955300265 0 0,0 0.36075848751036005,0.5706332909032191 l -15.482376497482928 9.60255519686436" fill="red" stroke="none" /><line stroke="#e1ed5e" stroke-width="0.3" x1="172.23445277983987" x2="176.4835382374775" y1="55.19839476539836" y2="52.563006222186495" /><path d="M 173.08426987136738 54.67131705675599 a86.0,86.0 0 0,1 12.851231095245387,41.99856678651699" fill="none" id="id39" stroke="none" /><text fill="#e1ed5e" style="font-size:6.75px; font-family:Arial;" text-anchor="middle"><textPath startOffset="22.20632615414155" xlink:href="#id39">March</textPath></text><path d="M 118.21658344932153 89.55222093294921 l 33.161372953834295 -19.019082208559702 a59.22828984193833,59.22828984193833 0 0,0 0.49961137927697075,0.8887528955979194 l -33.4838419744037 18.44544580302699" fill="red" stroke="none" /><path d="M 118.73160827565052 90.50648371742162 l 14.082407823567761 -7.137217798043397 a36.7877828717648,36.7877828717648 0 0,0 0.28140899828538724,0.5673033687335046 l -14.203176834806557 6.893754840810943" fill="red" stroke="none" /><path d="M 119.34039704204932 91.81776055985345 l 15.178811888087028 -6.421619629382281 a37.48130847349202,37.48130847349202 0 0,0 0.24626703411764309,0.5963551568417986 l -15.287100609090869 6.159389902087179" fill="red" stroke="none" /><path d="M 119.61058180528143 92.48833698450437 l 16.236084550984828 -6.219091154411701 a38.38641815710211,38.38641815710211 0 0,0 0.2310412913769336,0.6190757943870279 l -16.340730430863385 5.93869222299534" fill="red" stroke="none" /><path d="M 119.7369772167798 92.82701384747503 l 22.50021715683727 -8.177227157033256 a44.940067169549806,44.940067169549806 0 0,0 0.25797079264235484,0.7293181695204737 l -22.637641030289434 7.788711361086167" fill="red" stroke="none" /><path d="M 120.08093135843002 93.85539295169968 l 39.273349614666536 -12.017336075965227 a62.07082122771011,62.07082122771011 0 0,0 0.30383401826868417,1.0243772656206669 l -39.47438953004692 11.33952942359803" fill="red" stroke="none" /><path d="M 120.18372546131832 94.20196356495316 l 14.660867033018384 -4.211523853201758 a36.25378495082229,36.25378495082229 0 0,0 0.1671355238229377,0.6012754050786435 l -14.731189327407685 3.958537144704162" fill="red" stroke="none" /><path d="M 120.45610955862082 95.25157060432595 l 28.389210979927274 -6.5899218788779255 a50.144028040621585,50.144028040621585 0 0,0 0.18793411738686372,0.8424717980680975 l -28.498439484316172 6.100271911259864" fill="red" stroke="none" /><path d="M 120.73433829027371 96.67025291283417 l 9.167471279006525 -1.472212923345017 a30.28493083135645,30.28493083135645 0 0,0 0.07822757215235865,0.515421960012914 l -9.191454744598182 1.3141918509400208" fill="red" stroke="none" /><path d="M 120.78858239683441 97.02765380044208 l 14.861257027030389 -2.124858732631693 a36.01239438121385,36.01239438121385 0 0,0 0.08245809549313626,0.6144085888153554 l -14.89563112158136 1.8687318017516732" fill="red" stroke="none" /><path d="M 120.91429891909075 98.10471618934814 l 38.091930576549046 -3.4519454664726004 a59.24802089719327,59.24802089719327 0 0,0 0.08330135236490444,1.0164874934400963 l -38.145706412733446 2.7957440558247355" fill="red" stroke="none" /><path d="M 120.96714384426684 98.82574320788733 l 18.128361234864354 -1.0152718685970277 a39.15676893141776,39.15676893141776 0 0,0 0.031896715697680274,0.6732892553173592 l -18.14315155879553 0.7030715066566687" fill="red" stroke="none" /><line stroke="#e1ed5e" stroke-width="0.3" x1="184.98032266829074" x2="189.97916517819016" y1="98.17113171792111" y2="98.06355123074" /><path d="M 185.9800911702706 98.14961562048488 a86.0,86.0 0 0,1 -9.607161424134198,41.387399972396054" fill="none" id="id40" stroke="none" /><text fill="#e1ed5e" style="font-size:6.75px; font-family:Arial;" text-anchor="middle"><textPath startOffset="21.466115282336823" xlink:href="#id40">April</textPath></text><path d="M 120.92983693683757 101.71520430193887 l 26.209855106965765 2.1479028416861974 a47.297718367673326,47.297718367673326 0 0,0 -0.07348129318659674,0.8108599472166915 l -26.168999217502094 -2.5987441774514592" fill="red" stroke="none" /><path d="M 120.49622156327973 104.57218783832717 l 15.14844885150762 3.379235211453349 a36.52078391129355,36.52078391129355 0 0,0 -0.1421518194610336,0.6123863177793679 l -15.088036466116034 -3.639490186581282" fill="red" stroke="none" /><path d="M 120.13307415673323 105.97154293290107 l 20.363023840240974 6.039746844374492 a42.239851267425436,42.239851267425436 0 0,0 -0.2127545427341195,0.6952941555505608 l -20.256042525000723 -6.3893679724771095" fill="red" stroke="none" /><path d="M 120.02730092923936 106.31721596034902 l 52.686369374234 16.618873141204446 a76.24527547511795,76.24527547511795 0 0,0 -0.4055803854272179,1.2482480752305516 l -52.39249673779054 -17.52332011641279" fill="red" stroke="none" /><path d="M 119.54520255179757 107.68017299344265 l 13.34918527298619 5.245484253557748 a35.34279793160434,35.34279793160434 0 0,0 -0.22736760025661826,0.5643077375557446 l -13.25691505847218 -5.474491358956306" fill="red" stroke="none" /><line stroke="#e1ed5e" stroke-width="0.3" x1="174.80103733775053" x2="179.2010983576182" y1="140.37084112569926" y2="142.7455964860345" /><path d="M 175.68104954172406 140.8457921977663 a86.0,86.0 0 0,1 -30.038265399797805,32.042727171017184" fill="none" id="id41" stroke="none" /><text fill="#e1ed5e" style="font-size:6.75px; font-family:Arial;" text-anchor="middle"><textPath startOffset="22.206326154141568" xlink:href="#id41">May</textPath></text><path d="M 117.94076556474637 110.91462005526583 l 13.861210402210688 8.43274187493497 a37.22480475517766,37.22480475517766 0 0,0 -0.3377448374913097,0.5445522183334321 l -13.714000925051415 -8.670090424633674" fill="red" stroke="none" /><path d="M 117.55443506779137 111.5257021239791 l 8.426872803319984 5.532825487841048 a31.080889996534907,31.080889996534907 0 0,0 -0.2974839223987823,0.44469810083755934 l -8.330385775510479 -5.677060502884415" fill="red" stroke="none" /><path d="M 113.48314897796784 116.09983520530334 l 5.024509824179009 5.999620733175485 a28.825672361862622,28.825672361862622 0 0,0 -0.3831479152847411,0.31530464970207484 l -4.920491780349576 -6.085220501734738" fill="red" stroke="none" /><line stroke="#e1ed5e" stroke-width="0.3" x1="143.8653032363475" x2="146.44561519142675" y1="172.8068346515853" y2="177.08958963109032" /><path d="M 144.38136562736335 173.6633856474863 a86.0,86.0 0 0,1 -40.68145358897372,12.25698825130547" fill="none" id="id42" stroke="none" /><text fill="#e1ed5e" style="font-size:6.75px; font-family:Arial;" text-anchor="middle"><textPath startOffset="21.466115282336833" xlink:href="#id42">June</textPath></text><path d="M 103.7750983002368 120.6578951692458 l 2.011894852720363 11.009385624855213 a32.191706426420026,32.191706426420026 0 0,0 -0.5459575882780625,0.09492172484563755 l -1.8220882929702509 -11.042385928221858" fill="red" stroke="none" /><line stroke="#e1ed5e" stroke-width="0.3" x1="102.19456741930631" x2="102.32365962044197" y1="184.97166512339345" y2="189.96999836594603" /><path d="M 102.22038585953345 185.97133177190398 a86.0,86.0 0 0,1 -42.740103519485714,-10.115201625700543" fill="none" id="id43" stroke="none" /><text fill="#e1ed5e" style="font-size:6.75px; font-family:Arial;" text-anchor="middle"><textPath startOffset="22.20632615414155" xlink:href="#id43">July</textPath></text><path d="M 96.58105272829116 120.7198165907248 l -2.498869803041563 15.14387906229488 a36.34866193992057,36.34866193992057 0 0,0 -0.6164577778817839,-0.10717908648472775 l 2.759176552395397 -15.098621397289145" fill="red" stroke="none" /><path d="M 94.46302465271185 120.25689768951611 l -1.2860992995203722 4.705164877012178 a25.877768744835677,25.877768744835677 0 0,0 -0.4286699612059485,-0.12114641290530918 l 1.3669004288309345 -4.682329670768348" fill="red" stroke="none" /><path d="M 92.7421414339146 119.70592522655815 l -5.736188362812585 15.574414675320053 a37.59717594690407,37.59717594690407 0 0,0 -0.6053678477601654,-0.2288983207552612 l 6.0034264313330326 -15.473368104458158" fill="red" stroke="none" /><path d="M 91.40352486487194 119.15986991738527 l -6.510425887314909 14.51047215829272 a36.904070154863135,36.904070154863135 0 0,0 -0.5773413396341402,-0.26502909222151233 l 6.759235222716469 -14.396255995737134" fill="red" stroke="none" /><line stroke="#e1ed5e" stroke-width="0.3" x1="58.666819895761336" x2="56.23545636021788" y1="174.27360380694188" y2="178.64263932499728" /><path d="M 58.180547188652646 175.14741091055294 a86.0,86.0 0 0,1 -31.652253787137756,-30.449443065178592" fill="none" id="id44" stroke="none" /><text fill="#e1ed5e" style="font-size:6.75px; font-family:Arial;" text-anchor="middle"><textPath startOffset="22.20632615414155" xlink:href="#id44">August</textPath></text><path d="M 88.54995079064634 117.60387380957326 l -17.862681055245798 27.462972206296044 a53.761108297571774,53.761108297571774 0 0,0 -0.7714086739923502,-0.5112476054928167 l 18.33276442797811 -27.151426579711913" fill="red" stroke="none" /><path d="M 88.24862548938628 117.40417183066458 l -8.822692801675412 13.066697975699794 a36.76637257776475,36.76637257776475 0 0,0 -0.5214576642703287,-0.35866333638997105 l 9.046307350568632 -12.91289384994472" fill="red" stroke="none" /><path d="M 87.65650970185807 116.9893568818739 l -22.191682030468822 30.544229931582315 a58.75474451581949,58.75474451581949 0 0,0 -0.8130958007387894,-0.6015088350113241 l 22.714162801626173 -30.157711147831222" fill="red" stroke="none" /><path d="M 84.43433777217949 114.09645910891817 l -26.401714770270654 23.90972431608213 a56.61917264173575,56.61917264173575 0 0,0 -0.6479960516511478,-0.7280304333890435 l 26.80936967157014 -23.45171971295222" fill="red" stroke="none" /><line stroke="#e1ed5e" stroke-width="0.3" x1="26.63291911575756" x2="22.317208475507996" y1="142.92168965132927" y2="145.44649492493687" /><path d="M 25.769776987707644 143.4266507060508 a86.0,86.0 0 0,1 -11.730757126820373,-40.83630448921669" fill="none" id="id45" stroke="none" /><text fill="#e1ed5e" style="font-size:6.75px; font-family:Arial;" text-anchor="middle"><textPath startOffset="21.46611528233685" xlink:href="#id45">September</textPath></text><path d="M 80.20201598880116 107.00284435728193 l -59.3939520335965 21.008533071845783 a84.0,84.0 0 0,0 -0.4704366762270862,-1.3673091876428125 l 59.746779540766816 -19.983051181113673" fill="red" stroke="none" /><line stroke="#e1ed5e" stroke-width="0.3" x1="15.007084014347285" x2="10.007500721073583" y1="101.09737516637583" y2="101.16192664675087" /><path d="M 14.007167355692545 101.11028546245083 a86.0,86.0 0 0,1 10.666146001902534,-42.60595125391555" fill="none" id="id46" stroke="none" /><text fill="#e1ed5e" style="font-size:6.75px; font-family:Arial;" text-anchor="middle"><textPath startOffset="22.20632615414155" xlink:href="#id46">October</textPath></text><path d="M 81.26839172434947 90.50648371742162 l -8.110855783723185 -4.110727723711538 a30.093077804728523,30.093077804728523 0 0,0 0.23815169801545832,-0.4600332784028532 l 8.038894652547613 4.249733724374726" fill="red" stroke="none" /><line stroke="#e1ed5e" stroke-width="0.3" x1="26.266209847984257" x2="21.92892807433627" y1="57.711370442889674" y2="55.22380399835377" /><path d="M 25.39875349325466 57.213857153982495 a86.0,86.0 0 0,1 29.58750427330802,-30.492523968695096" fill="none" id="id47" stroke="none" /><text fill="#e1ed5e" style="font-size:6.75px; font-family:Arial;" text-anchor="middle"><textPath startOffset="21.46611528233685" xlink:href="#id47">November</textPath></text><path d="M 82.95767976084542 87.72973835380427 l -27.6365909217151 -19.89800665986923 a55.05454194098675,55.05454194098675 0 0,0 0.5603435220821541,-0.7643079343933407 l 27.289984787119316 20.37077703793407" fill="red" stroke="none" /><path d="M 84.80347519578584 85.50635884689758 l -6.014185600175142 -5.736011952740795 a29.310972359197166,29.310972359197166 0 0,0 0.3513628194485735,-0.36211027110554317 l 5.91455851702345 5.838686419396462" fill="red" stroke="none" /><line stroke="#e1ed5e" stroke-width="0.3" x1="56.762969772571076" x2="54.21961505331055" y1="26.818313649435495" y2="22.513508569990535" /><path d="M 56.25429882871897 25.957352633546506 a86.0,86.0 0 0,1 42.265352541879196,-11.944610805530505" fill="none" id="id48" stroke="none" /><text fill="#e1ed5e" style="font-size:6.75px; font-family:Arial;" text-anchor="middle"><textPath startOffset="22.20632615414155" xlink:href="#id48">December</textPath></text><path d="M 98.19473922651362 79.07773832637324 l -0.7174464411515296 -8.31492181021337 a29.345816563158035,29.345816563158035 0 0,0 0.5036438185969269,-0.0390924535342776 l 0.5742124331922686 8.32603952593611" fill="red" stroke="none" /></svg>