<?xml version="1.0" encoding="utf-8" ?>
<svg baseProfile="full" height="200mm" version="1.1" viewBox="0,0,200,200" width="200mm" xmlns="http://www.w3.org/2000/svg" xmlns:ev="http://www.w3.org/2001/xml-events" xmlns:xlink="http://www.w3.org/1999/xlink"><defs /><rect fill="#1a1a1a" height="200" width="200" x="0" y="0" /><text alignment-baseline="middle" fill="#e1ed5e" style="dominant-baseline: central; font-size:9.0px; font-family:Arial;" text-anchor="middle" x="100.0" y="100.0">2025</text><line stroke="#e1ed5e" stroke-width="0.3" x1="100.0" x2="100.0" y1="15.0" y2="10.0" /><path d="M 100.0 14.0 a86.0,86.0 0 0,1 42.46469731375804,11.215312516191453" fill="none" id="id85" stroke="none" /><text fill="#e1ed5e" style="font-size:6.75px; font-family:Arial;" text-anchor="middle"><textPath startOffset="22.20632615414155" xlink:href="#id85">January</textPath></text><path d="M 102.52436894288641 79.15227682838746 l 2.328095849375859 -19.226784548090567 a40.3672216474789,40.3672216474789 0 0,0 0.6890978291276393,0.08946467546088706 l -2.6587084070113445 19.183861549465544" fill="red" stroke="none" /><path d="M 102.88285421437855 79.19881850522331 l 2.156661030996198 -15.561347953259078 a36.71008392482415,36.71008392482415 0 0,0 0.6251745115516416,0.09213447189295133 l -2.424204522976496 15.521918997205157" fill="red" stroke="none" /><path d="M 103.59715602781102 79.31037775812273 l 10.791468083433088 -62.06886672563182 a84.0,84.0 0 0,0 1.4224195155883965,0.2599380745970459 l -11.858282720124386 61.87391316968404" fill="red" stroke="none" /><path d="M 106.0581310904928 79.89281104454417 l 6.315889209617528 -20.962698869095288 a42.89349676010052,42.89349676010052 0 0,0 0.7051172617701007,0.21908336556692487 l -6.675791844098347 20.85087536864584" fill="red" stroke="none" /><path d="M 107.08798089147638 80.2323363322302 l 6.47379386373098 -18.054758006839126 a40.18031005160246,40.18031005160246 0 0,0 0.6490414916876835,0.23904745887504267 l -6.78361768119124 17.94064728015776" fill="red" stroke="none" /><path d="M 108.43124777332544 80.76684994638697 l 5.64360228354853 -12.874043377756204 a35.056715107991,35.056715107991 0 0,0 0.5505872147824387,0.2470324340407921 l -5.864371616797748 12.774990613198879" fill="red" stroke="none" /><line stroke="#e1ed5e" stroke-width="0.3" x1="143.23703022742887" x2="145.7803849466894" y1="26.81831364943548" y2="22.513508569990506" /><path d="M 143.74570117128098 25.957352633546492 a86.0,86.0 0 0,1 28.547481713284135,27.462654790039103" fill="none" id="id86" stroke="none" /><text fill="#e1ed5e" style="font-size:6.75px; font-family:Arial;" text-anchor="middle"><textPath startOffset="19.985693538727396" xlink:href="#id86">February</textPath></text><path d="M 110.68208982089419 81.91981866633111 l 9.919043599281524 -16.788672435686866 a40.49992174541323,40.49992174541323 0 0,0 0.5971577184570059,0.3597808437270297 l -10.206563383956167 16.615444982501224" fill="red" stroke="none" /><path d="M 112.19680574252982 82.90503203632743 l 5.491802817706849 -7.697277075106767 a30.455578911919517,30.455578911919517 0 0,0 0.4241369855213165,0.3081535576812286 l -5.623485119581954 7.6016042826088634" fill="red" stroke="none" /><path d="M 112.48926042617603 83.11751280151076 l 11.531193627176533 -15.587410475170497 a40.38906371614915,40.38906371614915 0 0,0 0.5553570235302765,0.41828339636446443 l -11.797796804465191 15.386610489300185" fill="red" stroke="none" /><path d="M 113.34407831869373 83.78471172551755 l 11.074325472936302 -13.457158726170084 a38.42801783513723,38.42801783513723 0 0,0 0.5071445482194714,0.4247189744373818 l -11.30432755811489 13.264538594338884" fill="red" stroke="none" /><path d="M 115.19652480421416 85.50635884689758 l 12.110135277514704 -11.550006155298801 a37.734934078960286,37.734934078960286 0 0,0 0.44425280036235215,0.4738979127958266 l -12.30715539984752 11.33983882562492" fill="red" stroke="none" /><path d="M 115.4437574822437 85.77008943001954 l 14.478872005867206 -13.340863066165634 a40.68797505871204,40.68797505871204 0 0,0 0.47015218564060035,0.5191537861251427 l -14.706367832123842 13.08965649277094" fill="red" stroke="none" /><path d="M 115.68641384162765 86.03803664274999 l 7.468770327296515 -6.6477079265052685 a30.998727462933765,30.998727462933765 0 0,0 0.35133092166243407,0.40163197715089244 l -7.582093112536795 6.518160393151429" fill="red" stroke="none" /><path d="M 115.92442197804982 86.31012108654704 l 13.777785595623751 -11.84446234592337 a39.169167955164426,39.169167955164426 0 0,0 0.4351310077371564,0.5150578657758592 l -13.979627216848026 11.605545530518405" fill="red" stroke="none" /><path d="M 117.04232023915458 87.72973835380427 l 11.870304825913509 -8.546473953671232 a35.62690513064491,35.62690513064491 0 0,0 0.3540421664861852,0.5007675366552214 l -12.015659612203576 8.340879916684216" fill="red" stroke="none" /><line stroke="#e1ed5e" stroke-width="0.3" x1="172.23445277983987" x2="176.4835382374775" y1="55.19839476539836" y2="52.563006222186495" /><path d="M 173.08426987136738 54.67131705675599 a86.0,86.0 0 0,1 12.851231095245387,41.99856678651699" fill="none" id="id87" stroke="none" /><text fill="#e1ed5e" style="font-size:6.75px; font-family:Arial;" text-anchor="middle"><textPath startOffset="22.20632615414155" xlink:href="#id87">March</textPath></text><path d="M 117.84615892207809 88.93136811851018 l 5.779056479607769 -3.5843146457685116 a27.80035331981855,27.80035331981855 0 0,0 0.24872605670738251,0.40884023911378425 l -5.839898334601376 3.4843066334476456" fill="red" stroke="none" /><path d="M 118.3937258080291 89.86733742301442 l 13.114855356121318 -7.224659400519168 a35.97314711293167,35.97314711293167 0 0,0 0.29410942880538254,0.5449401040953611 l -13.237272884145165 6.997838313091347" fill="red" stroke="none" /><path d="M 118.56541770881063 90.18545643968196 l 17.798638945907097 -9.409188631725618 a41.13266944630432,41.13266944630432 0 0,0 0.32551722147232753,0.6287956618339149 l -17.95796560053954 9.10142024763136" fill="red" stroke="none" /><path d="M 119.7369772167798 92.82701384747503 l 13.641330562196755 -4.957652539694099 a35.51427635851883,35.51427635851883 0 0,0 0.20386364772802193,0.5763499847011612 l -13.724647290734586 4.722104928566322" fill="red" stroke="none" /><path d="M 119.85752413597 93.16781622104841 l 20.730362693665953 -7.13249279001967 a42.9230561466831,42.9230561466831 0 0,0 0.23436541796975924,0.7007227691361269 l -20.850065405407484 6.7745969179612295" fill="red" stroke="none" /><path d="M 120.94382443527127 98.46500227214037 l 6.426571240144658 -0.47101102676056433 a27.443808601439407,27.443808601439407 0 0,0 0.030474923674928815,0.4714335807306596 l -6.4337267548240025 0.3603183817768695" fill="red" stroke="none" /><path d="M 120.96714384426684 98.82574320788733 l 23.56274063615535 -1.3196221878527434 a44.599664171453796,44.599664171453796 0 0,0 0.03633044418911331,0.7668782562217189 l -23.581964688577962 0.9138328250080247" fill="red" stroke="none" /><line stroke="#e1ed5e" stroke-width="0.3" x1="184.98032266829074" x2="189.97916517819016" y1="98.17113171792111" y2="98.06355123074" /><path d="M 185.9800911702706 98.14961562048488 a86.0,86.0 0 0,1 -9.607161424134198,41.387399972396054" fill="none" id="id88" stroke="none" /><text fill="#e1ed5e" style="font-size:6.75px; font-family:Arial;" text-anchor="middle"><textPath startOffset="21.466115282336823" xlink:href="#id88">April</textPath></text><path d="M 120.8583938346157 102.4346265915055 l 19.7280294115489 2.3026885667318515 a40.861961612547134,40.861961612547134 0 0,0 -0.087558409608469,0.6979266740671747 l -19.68546949269358 -2.6419329950864214" fill="red" stroke="none" /><path d="M 120.76222939487914 103.15116336523771 l 21.493440876352423 3.2621421425566792 a42.73958537009162,42.73958537009162 0 0,0 -0.11665514536855214,0.7264117015660061 l -21.434103976622584 -3.6316330738158906" fill="red" stroke="none" /><line stroke="#e1ed5e" stroke-width="0.3" x1="174.80103733775053" x2="179.2010983576182" y1="140.37084112569926" y2="142.7455964860345" /><path d="M 175.68104954172406 140.8457921977663 a86.0,86.0 0 0,1 -30.038265399797805,32.042727171017184" fill="none" id="id89" stroke="none" /><text fill="#e1ed5e" style="font-size:6.75px; font-family:Arial;" text-anchor="middle"><textPath startOffset="22.206326154141568" xlink:href="#id89">May</textPath></text><line stroke="#e1ed5e" stroke-width="0.3" x1="143.8653032363475" x2="146.44561519142675" y1="172.8068346515853" y2="177.08958963109032" /><path d="M 144.38136562736335 173.6633856474863 a86.0,86.0 0 0,1 -40.68145358897372,12.25698825130547" fill="none" id="id90" stroke="none" /><text fill="#e1ed5e" style="font-size:6.75px; font-family:Arial;" text-anchor="middle"><textPath startOffset="21.466115282336833" xlink:href="#id90">June</textPath></text><line stroke="#e1ed5e" stroke-width="0.3" x1="102.19456741930631" x2="102.32365962044197" y1="184.97166512339345" y2="189.96999836594603" /><path d="M 102.22038585953345 185.97133177190398 a86.0,86.0 0 0,1 -42.740103519485714,-10.115201625700543" fill="none" id="id91" stroke="none" /><text fill="#e1ed5e" style="font-size:6.75px; font-family:Arial;" text-anchor="middle"><textPath startOffset="22.20632615414155" xlink:href="#id91">July</textPath></text><line stroke="#e1ed5e" stroke-width="0.3" x1="58.666819895761336" x2="56.23545636021788" y1="174.27360380694188" y2="178.64263932499728" /><path d="M 58.180547188652646 175.14741091055294 a86.0,86.0 0 0,1 -31.652253787137756,-30.449443065178592" fill="none" id="id92" stroke="none" /><text fill="#e1ed5e" style="font-size:6.75px; font-family:Arial;" text-anchor="middle"><textPath startOffset="22.20632615414155" xlink:href="#id92">August</textPath></text><line stroke="#e1ed5e" stroke-width="0.3" x1="26.63291911575756" x2="22.317208475507996" y1="142.92168965132927" y2="145.44649492493687" /><path d="M 25.769776987707644 143.4266507060508 a86.0,86.0 0 0,1 -11.730757126820373,-40.83630448921669" fill="none" id="id93" stroke="none" /><text fill="#e1ed5e" style="font-size:6.75px; font-family:Arial;" text-anchor="middle"><textPath startOffset="21.46611528233685" xlink:href="#id93">September</textPath></text><line stroke="#e1ed5e" stroke-width="0.3" x1="15.007084014347285" x2="10.007500721073583" y1="101.09737516637583" y2="101.16192664675087" /><path d="M 14.007167355692545 101.11028546245083 a86.0,86.0 0 0,1 10.666146001902534,-42.60595125391555" fill="none" id="id94" stroke="none" /><text fill="#e1ed5e" style="font-size:6.75px; font-family:Arial;" text-anchor="middle"><textPath startOffset="22.20632615414155" xlink:href="#id94">October</textPath></text><line stroke="#e1ed5e" stroke-width="0.3" x1="26.266209847984257" x2="21.92892807433627" y1="57.711370442889674" y2="55.22380399835377" /><path d="M 25.39875349325466 57.213857153982495 a86.0,86.0 0 0,1 29.58750427330802,-30.492523968695096" fill="none" id="id95" stroke="none" /><text fill="#e1ed5e" style="font-size:6.75px; font-family:Arial;" text-anchor="middle"><textPath startOffset="21.46611528233685" xlink:href="#id95">November</textPath></text><line stroke="#e1ed5e" stroke-width="0.3" x1="56.762969772571076" x2="54.21961505331055" y1="26.818313649435495" y2="22.513508569990535" /><path d="M 56.25429882871897 25.957352633546506 a86.0,86.0 0 0,1 42.265352541879196,-11.944610805530505" fill="none" id="id96" stroke="none" /><text fill="#e1ed5e" style="font-size:6.75px; font-family:Arial;" text-anchor="middle"><textPath startOffset="22.20632615414155" xlink:href="#id96">December</textPath></text></svg>