<?xml version="1.0" encoding="utf-8" ?>
<svg baseProfile="full" height="200mm" version="1.1" viewBox="0,0,200,200" width="200mm" xmlns="http://www.w3.org/2000/svg" xmlns:ev="http://www.w3.org/2001/xml-events" xmlns:xlink="http://www.w3.org/1999/xlink"><defs /><rect fill="#1a1a1a" height="200" width="200" x="0" y="0" /><text alignment-baseline="middle" fill="#e1ed5e" style="dominant-baseline: central; font-size:9.0px; font-family:Arial;" text-anchor="middle" x="100.0" y="100.0">2018</text><line stroke="#e1ed5e" stroke-width="0.3" x1="100.0" x2="100.0" y1="15.0" y2="10.0" /><path d="M 100.0 14.0 a86.0,86.0 0 0,1 42.46469731375804,11.215312516191453" fill="none" id="id1" stroke="none" /><text fill="#e1ed5e" style="font-size:6.75px; font-family:Arial;" text-anchor="middle"><textPath startOffset="22.20632615414155" xlink:href="#id1">January</textPath></text><path d="M 102.16513564639614 79.11191278185805 l 0.538929915082706 -5.199311687215085 a26.22716820794801,26.22716820794801 0 0,0 0.4486510520450522,0.05041117323238059 l -0.6283476706374835 5.189264560512103" fill="#ff0000" stroke="none" /><path d="M 103.2404852339499 79.25152402106235 l 0.9165446425892054 -5.868536076372107 a26.93967758060485,26.93967758060485 0 0,0 0.4575521994779561,0.07550003337239077 l -1.0174260482060367 5.851889780060091" fill="#ff0b01" stroke="none" /><path d="M 104.66035177308747 79.52364482259891 l 13.42556375200789 -58.98838225699644 a81.4969007748063,81.4969007748063 0 0,0 1.365175203740113,0.3230928636834588 l -14.438962642710527 58.748543481172106" fill="#4aebff" stroke="none" /><path d="M 106.74666289553966 80.11325718540242 l 19.871291400413078 -58.57344106153538 a82.85237440639841,82.85237440639841 0 0,0 1.346619351951963,0.46980905033194076 l -20.876592756428312 58.22271115803123" fill="#4bddff" stroke="none" /><path d="M 107.76421540070413 80.48803036053334 l 2.052636550885978 -5.158406869819008 a26.55179955011247,26.55179955011247 0 0,0 0.42320550480373526,0.17263615146683783 l -2.1411259252781005 5.122309832168591" fill="#ff0500" stroke="none" /><path d="M 109.08828744355905 81.06846463323043 l 10.156348617255997 -21.156381137690595 a44.46793301674581,44.46793301674581 0 0,0 0.6871962838375955,0.3372042320184145 l -10.519016168104024 20.978421745537347" fill="#f9ff18" stroke="none" /><line stroke="#e1ed5e" stroke-width="0.3" x1="143.23703022742887" x2="145.7803849466894" y1="26.81831364943548" y2="22.513508569990506" /><path d="M 143.74570117128098 25.957352633546492 a86.0,86.0 0 0,1 28.547481713284135,27.462654790039103" fill="none" id="id2" stroke="none" /><text fill="#e1ed5e" style="font-size:6.75px; font-family:Arial;" text-anchor="middle"><textPath startOffset="19.985693538727396" xlink:href="#id2">February</textPath></text><path d="M 111.60114157652 82.49532879139004 l 29.16696906582666 -44.00930721182918 a73.79707573106724,73.79707573106724 0 0,0 1.0528217835977458,0.710869967980372 l -29.920195543830946 43.500725331550136" fill="#3fffc1" stroke="none" /><path d="M 113.34407831869373 83.78471172551755 l 39.70155128567416 -48.24402882434339 a83.47959260184953,83.47959260184953 0 0,0 1.1017019003488582,0.9226436582916551 l -40.52611072298213 47.55348400865791" fill="#4cd7ff" stroke="none" /><path d="M 115.19652480421416 85.50635884689758 l 31.2088990280597 -29.765396307626062 a64.12741814546362,64.12741814546362 0 0,0 0.7549711106296619,0.80535054198133 l -31.716637460659825 29.223776348766677" fill="#33ff4e" stroke="none" /><line stroke="#e1ed5e" stroke-width="0.3" x1="172.23445277983987" x2="176.4835382374775" y1="55.19839476539836" y2="52.563006222186495" /><path d="M 173.08426987136738 54.67131705675599 a86.0,86.0 0 0,1 12.851231095245387,41.99856678651699" fill="none" id="id3" stroke="none" /><text fill="#e1ed5e" style="font-size:6.75px; font-family:Arial;" text-anchor="middle"><textPath startOffset="22.20632615414155" xlink:href="#id3">March</textPath></text><path d="M 118.3937258080291 89.86733742301442 l 18.461305855361772 -10.16989080489903 a42.07715571107223,42.07715571107223 0 0,0 0.34401461159593427,0.6374068285225365 l -18.63362856617617 9.850602993044035" fill="#ffe615" stroke="none" /><path d="M 120.18372546131832 94.20196356495316 l 14.965266375224658 -4.298966504970813 a36.57049487628093,36.57049487628093 0 0,0 0.16859560528376327,0.6065280949420849 l -15.037048751074785 4.040727106609776" fill="#ff9a0e" stroke="none" /><path d="M 120.28053869075195 94.5502522615342 l 60.84161607225586 -16.349243215397394 a84.0,84.0 0 0,0 0.3632146725187799,1.3996142978045985 l -61.114027076644945 15.299532492043943" fill="#4dd2ff" stroke="none" /><path d="M 120.78858239683441 97.02765380044208 l 14.208822007373966 -2.0315737402202063 a35.35332416895776,35.35332416895776 0 0,0 0.0809490129832756,0.6031641712752172 l -14.241687019415078 1.786691226880325" fill="#ff890c" stroke="none" /><line stroke="#e1ed5e" stroke-width="0.3" x1="184.98032266829074" x2="189.97916517819016" y1="98.17113171792111" y2="98.06355123074" /><path d="M 185.9800911702706 98.14961562048488 a86.0,86.0 0 0,1 -9.607161424134198,41.387399972396054" fill="none" id="id4" stroke="none" /><text fill="#e1ed5e" style="font-size:6.75px; font-family:Arial;" text-anchor="middle"><textPath startOffset="21.466115282336823" xlink:href="#id4">April</textPath></text><line stroke="#e1ed5e" stroke-width="0.3" x1="174.80103733775053" x2="179.2010983576182" y1="140.37084112569926" y2="142.7455964860345" /><path d="M 175.68104954172406 140.8457921977663 a86.0,86.0 0 0,1 -30.038265399797805,32.042727171017184" fill="none" id="id5" stroke="none" /><text fill="#e1ed5e" style="font-size:6.75px; font-family:Arial;" text-anchor="middle"><textPath startOffset="22.206326154141568" xlink:href="#id5">May</textPath></text><path d="M 117.55443506779137 111.5257021239791 l 18.228576269532475 11.968322501722007 a42.8064608847788,42.8064608847788 0 0,0 -0.40971265267608936,0.6124648252080507 l -18.019860511445664 -12.280324241135865" fill="#fff016" stroke="none" /><line stroke="#e1ed5e" stroke-width="0.3" x1="143.8653032363475" x2="146.44561519142675" y1="172.8068346515853" y2="177.08958963109032" /><path d="M 144.38136562736335 173.6633856474863 a86.0,86.0 0 0,1 -40.68145358897372,12.25698825130547" fill="none" id="id6" stroke="none" /><text fill="#e1ed5e" style="font-size:6.75px; font-family:Arial;" text-anchor="middle"><textPath startOffset="21.466115282336833" xlink:href="#id6">June</textPath></text><path d="M 105.53697534728816 120.25689768951611 l 13.902015171194835 50.86020459508086 a73.72595601099724,73.72595601099724 0 0,0 -1.2270441066048887,0.3240735009846894 l -13.024480621778448 -51.09196944536913" fill="#3fffc1" stroke="none" /><line stroke="#e1ed5e" stroke-width="0.3" x1="102.19456741930631" x2="102.32365962044197" y1="184.97166512339345" y2="189.96999836594603" /><path d="M 102.22038585953345 185.97133177190398 a86.0,86.0 0 0,1 -42.740103519485714,-10.115201625700543" fill="none" id="id7" stroke="none" /><text fill="#e1ed5e" style="font-size:6.75px; font-family:Arial;" text-anchor="middle"><textPath startOffset="22.20632615414155" xlink:href="#id7">July</textPath></text><path d="M 99.09653310690486 120.98055641714683 l -0.5628659712755794 13.071028231242448 a34.083141714571354,34.083141714571354 0 0,0 -0.5859248011863902,-0.030285619549769473 l 0.7877788408754586 -13.059402804930476" fill="#ff770a" stroke="none" /><line stroke="#e1ed5e" stroke-width="0.3" x1="58.666819895761336" x2="56.23545636021788" y1="174.27360380694188" y2="178.64263932499728" /><path d="M 58.180547188652646 175.14741091055294 a86.0,86.0 0 0,1 -31.652253787137756,-30.449443065178592" fill="none" id="id8" stroke="none" /><text fill="#e1ed5e" style="font-size:6.75px; font-family:Arial;" text-anchor="middle"><textPath startOffset="22.20632615414155" xlink:href="#id8">August</textPath></text><line stroke="#e1ed5e" stroke-width="0.3" x1="26.63291911575756" x2="22.317208475507996" y1="142.92168965132927" y2="145.44649492493687" /><path d="M 25.769776987707644 143.4266507060508 a86.0,86.0 0 0,1 -11.730757126820373,-40.83630448921669" fill="none" id="id9" stroke="none" /><text fill="#e1ed5e" style="font-size:6.75px; font-family:Arial;" text-anchor="middle"><textPath startOffset="21.46611528233685" xlink:href="#id9">September</textPath></text><line stroke="#e1ed5e" stroke-width="0.3" x1="15.007084014347285" x2="10.007500721073583" y1="101.09737516637583" y2="101.16192664675087" /><path d="M 14.007167355692545 101.11028546245083 a86.0,86.0 0 0,1 10.666146001902534,-42.60595125391555" fill="none" id="id10" stroke="none" /><text fill="#e1ed5e" style="font-size:6.75px; font-family:Arial;" text-anchor="middle"><textPath startOffset="22.20632615414155" xlink:href="#id10">October</textPath></text><line stroke="#e1ed5e" stroke-width="0.3" x1="26.266209847984257" x2="21.92892807433627" y1="57.711370442889674" y2="55.22380399835377" /><path d="M 25.39875349325466 57.213857153982495 a86.0,86.0 0 0,1 29.58750427330802,-30.492523968695096" fill="none" id="id11" stroke="none" /><text fill="#e1ed5e" style="font-size:6.75px; font-family:Arial;" text-anchor="middle"><textPath startOffset="21.46611528233685" xlink:href="#id11">November</textPath></text><line stroke="#e1ed5e" stroke-width="0.3" x1="56.762969772571076" x2="54.21961505331055" y1="26.818313649435495" y2="22.513508569990535" /><path d="M 56.25429882871897 25.957352633546506 a86.0,86.0 0 0,1 42.265352541879196,-11.944610805530505" fill="none" id="id12" stroke="none" /><text fill="#e1ed5e" style="font-size:6.75px; font-family:Arial;" text-anchor="middle"><textPath startOffset="22.20632615414155" xlink:href="#id12">December</textPath></text><path d="M 93.94186890950719 79.89281104454417 l -2.920652102087372 -9.69376575260653 a31.124193951512122,31.124193951512122 0 0,0 0.5143047507927728,-0.15013965992127162 l 2.7533571335711775 9.742603741446501" fill="#ff4b07" stroke="none" /><path d="M 97.83486435360386 79.11191278185805 l -0.5824382644879202 -5.619057303895567 a26.649162709322667,26.649162709322667 0 0,0 0.4566840020556718,-0.043367648796069434 l 0.48562913534201213 5.628250497206817" fill="#ff0701" stroke="none" /></svg>