<?xml version="1.0" encoding="utf-8" ?>
<svg baseProfile="full" height="200mm" version="1.1" viewBox="0,0,200,200" width="200mm" xmlns="http://www.w3.org/2000/svg" xmlns:ev="http://www.w3.org/2001/xml-events" xmlns:xlink="http://www.w3.org/1999/xlink"><defs /><rect fill="#fdf6e3" height="200" width="200" x="0" y="0" /><text alignment-baseline="middle" fill="#2aa198" style="dominant-baseline: central; font-size:9.0px; font-family:Arial;" text-anchor="middle" x="100.0" y="100.0">2022</text><line stroke="#2aa198" stroke-width="0.3" x1="100.0" x2="100.0" y1="15.0" y2="10.0" /><path d="M 100.0 14.0 a86.0,86.0 0 0,1 42.46469731375804,11.215312516191453" fill="none" id="id49" stroke="none" /><text fill="#2aa198" style="font-size:6.75px; font-family:Arial;" text-anchor="middle"><textPath startOffset="22.20632615414155" xlink:href="#id49">January</textPath></text><path d="M 107.4271985657038 80.35727306442388 l 3.8691740037544284 -10.232812244030278 a31.939879062078568,31.939879062078568 0 0,0 0.5125846167521487,0.1988748678200158 l -4.044741785506244 10.164694672319715" fill="#859900" stroke="none" /><line stroke="#2aa198" stroke-width="0.3" x1="143.23703022742887" x2="145.7803849466894" y1="26.81831364943548" y2="22.513508569990506" /><path d="M 143.74570117128098 25.957352633546492 a86.0,86.0 0 0,1 28.547481713284135,27.462654790039103" fill="none" id="id50" stroke="none" /><text fill="#2aa198" style="font-size:6.75px; font-family:Arial;" text-anchor="middle"><textPath startOffset="19.985693538727396" xlink:href="#id50">February</textPath></text><line stroke="#2aa198" stroke-width="0.3" x1="172.23445277983987" x2="176.4835382374775" y1="55.19839476539836" y2="52.563006222186495" /><path d="M 173.08426987136738 54.67131705675599 a86.0,86.0 0 0,1 12.851231095245387,41.99856678651699" fill="none" id="id51" stroke="none" /><text fill="#2aa198" style="font-size:6.75px; font-family:Arial;" text-anchor="middle"><textPath startOffset="22.20632615414155" xlink:href="#id51">March</textPath></text><path d="M 118.73160827565052 90.50648371742162 l 37.9745527062134 -19.246186933596242 a63.57325879845129,63.57325879845129 0 0,0 0.4863051176139452,0.9803614423692011 l -38.30021783678076 18.589665902728093" fill="#859900" stroke="none" /><line stroke="#2aa198" stroke-width="0.3" x1="184.98032266829074" x2="189.97916517819016" y1="98.17113171792111" y2="98.06355123074" /><path d="M 185.9800911702706 98.14961562048488 a86.0,86.0 0 0,1 -9.607161424134198,41.387399972396054" fill="none" id="id52" stroke="none" /><text fill="#2aa198" style="font-size:6.75px; font-family:Arial;" text-anchor="middle"><textPath startOffset="21.466115282336823" xlink:href="#id52">April</textPath></text><path d="M 120.8583938346157 102.4346265915055 l 62.575181503847105 7.303879774516526 a84.0,84.0 0 0,0 -0.1799939630126075,1.4347289828504204 l -62.44018603158764 -8.379926511654341" fill="#859900" stroke="none" /><line stroke="#2aa198" stroke-width="0.3" x1="174.80103733775053" x2="179.2010983576182" y1="140.37084112569926" y2="142.7455964860345" /><path d="M 175.68104954172406 140.8457921977663 a86.0,86.0 0 0,1 -30.038265399797805,32.042727171017184" fill="none" id="id53" stroke="none" /><text fill="#2aa198" style="font-size:6.75px; font-family:Arial;" text-anchor="middle"><textPath startOffset="22.206326154141568" xlink:href="#id53">May</textPath></text><path d="M 113.75828350139079 115.86535959552629 l 25.2478597503336 29.11456025135438 a59.53715143341889,59.53715143341889 0 0,0 -0.7800345612187559,0.664762375559031 l -24.742959712537797 -29.54484701713636" fill="#859900" stroke="none" /><line stroke="#2aa198" stroke-width="0.3" x1="143.8653032363475" x2="146.44561519142675" y1="172.8068346515853" y2="177.08958963109032" /><path d="M 144.38136562736335 173.6633856474863 a86.0,86.0 0 0,1 -40.68145358897372,12.25698825130547" fill="none" id="id54" stroke="none" /><text fill="#2aa198" style="font-size:6.75px; font-family:Arial;" text-anchor="middle"><textPath startOffset="21.466115282336833" xlink:href="#id54">June</textPath></text><path d="M 104.83641907484287 120.43548508189849 l 4.399948401385628 18.591250784147665 a40.10482011571758,40.10482011571758 0 0,0 -0.6731495715721082,0.15320665090296443 l -4.079278680420658 -18.66423416862831" fill="#859900" stroke="none" /><line stroke="#2aa198" stroke-width="0.3" x1="102.19456741930631" x2="102.32365962044197" y1="184.97166512339345" y2="189.96999836594603" /><path d="M 102.22038585953345 185.97133177190398 a86.0,86.0 0 0,1 -42.740103519485714,-10.115201625700543" fill="none" id="id55" stroke="none" /><text fill="#2aa198" style="font-size:6.75px; font-family:Arial;" text-anchor="middle"><textPath startOffset="22.20632615414155" xlink:href="#id55">July</textPath></text><line stroke="#2aa198" stroke-width="0.3" x1="58.666819895761336" x2="56.23545636021788" y1="174.27360380694188" y2="178.64263932499728" /><path d="M 58.180547188652646 175.14741091055294 a86.0,86.0 0 0,1 -31.652253787137756,-30.449443065178592" fill="none" id="id56" stroke="none" /><text fill="#2aa198" style="font-size:6.75px; font-family:Arial;" text-anchor="middle"><textPath startOffset="22.20632615414155" xlink:href="#id56">August</textPath></text><path d="M 87.95078237400918 117.19931262002967 l -10.160089844024013 14.502730957238231 a38.70753034323748,38.70753034323748 0 0,0 -0.5424080184035655,-0.38699371930484744 l 10.408225190276463 -14.325692976089167" fill="#859900" stroke="none" /><path d="M 84.67929136418377 114.36230785411682 l -33.07978733054115 31.010451323332905 a66.34225866794276,66.34225866794276 0 0,0 -0.7738464077328125,-0.8398574390722565 l 33.60868014626969 -30.436442629459304" fill="#859900" stroke="none" /><line stroke="#2aa198" stroke-width="0.3" x1="26.63291911575756" x2="22.317208475507996" y1="142.92168965132927" y2="145.44649492493687" /><path d="M 25.769776987707644 143.4266507060508 a86.0,86.0 0 0,1 -11.730757126820373,-40.83630448921669" fill="none" id="id57" stroke="none" /><text fill="#2aa198" style="font-size:6.75px; font-family:Arial;" text-anchor="middle"><textPath startOffset="21.46611528233685" xlink:href="#id57">September</textPath></text><path d="M 81.35079622478065 109.6543875284942 l -12.007143858408945 6.215901832414587 a34.52068560490712,34.52068560490712 0 0,0 -0.268638874354476,-0.5300499848780006 l 12.112361402549688 -6.0082976358339" fill="#859900" stroke="none" /><path d="M 81.18737489456691 109.33194174019688 l -13.014241285361159 6.4556722300696405 a35.5274285465698,35.5274285465698 0 0,0 -0.2670423284252053,-0.550186291880893 l 13.123436870401083 -6.230696982223464" fill="#859900" stroke="none" /><path d="M 80.58989483394504 108.01547362559985 l -43.83380494747735 18.101329408592964 a68.42426153913081,68.42426153913081 0 0,0 -0.4401875645383495,-1.0925094356647513 l 44.138895126273084 -17.344120605085408" fill="#859900" stroke="none" /><line stroke="#2aa198" stroke-width="0.3" x1="15.007084014347285" x2="10.007500721073583" y1="101.09737516637583" y2="101.16192664675087" /><path d="M 14.007167355692545 101.11028546245083 a86.0,86.0 0 0,1 10.666146001902534,-42.60595125391555" fill="none" id="id58" stroke="none" /><text fill="#2aa198" style="font-size:6.75px; font-family:Arial;" text-anchor="middle"><textPath startOffset="22.20632615414155" xlink:href="#id58">October</textPath></text><line stroke="#2aa198" stroke-width="0.3" x1="26.266209847984257" x2="21.92892807433627" y1="57.711370442889674" y2="55.22380399835377" /><path d="M 25.39875349325466 57.213857153982495 a86.0,86.0 0 0,1 29.58750427330802,-30.492523968695096" fill="none" id="id59" stroke="none" /><text fill="#2aa198" style="font-size:6.75px; font-family:Arial;" text-anchor="middle"><textPath startOffset="21.46611528233685" xlink:href="#id59">November</textPath></text><path d="M 85.83668400450813 84.49514656593479 l -32.324486249336246 -35.386234536244245 a68.92763300996215,68.92763300996215 0 0,0 0.8828940919379543,-0.7926710330996781 l 31.710581169802325 35.9374045781132" fill="#859900" stroke="none" /><line stroke="#2aa198" stroke-width="0.3" x1="56.762969772571076" x2="54.21961505331055" y1="26.818313649435495" y2="22.513508569990535" /><path d="M 56.25429882871897 25.957352633546506 a86.0,86.0 0 0,1 42.265352541879196,-11.944610805530505" fill="none" id="id60" stroke="none" /><text fill="#2aa198" style="font-size:6.75px; font-family:Arial;" text-anchor="middle"><textPath startOffset="22.20632615414155" xlink:href="#id60">December</textPath></text><path d="M 99.63851952072746 79.00311137660856 l -0.27885906551267964 -16.197756382242154 a37.20015661025797,37.20015661025797 0 0,0 0.6403395447852114,-0.005511604624375392 l 3.9678939876876514e-15 16.20015661025797" fill="#859900" stroke="none" /></svg>