<?xml version="1.0" encoding="utf-8" ?>
<svg baseProfile="full" height="200mm" version="1.1" viewBox="0,0,200,200" width="200mm" xmlns="http://www.w3.org/2000/svg" xmlns:ev="http://www.w3.org/2001/xml-events" xmlns:xlink="http://www.w3.org/1999/xlink"><defs /><rect fill="#fdf6e3" height="200" width="200" x="0" y="0" /><text alignment-baseline="middle" fill="#2aa198" style="dominant-baseline: central; font-size:9.0px; font-family:Arial;" text-anchor="middle" x="100.0" y="100.0">2019</text><line stroke="#2aa198" stroke-width="0.3" x1="100.0" x2="100.0" y1="15.0" y2="10.0" /><path d="M 100.0 14.0 a86.0,86.0 0 0,1 42.46469731375804,11.215312516191453" fill="none" id="id13" stroke="none" /><text fill="#2aa198" style="font-size:6.75px; font-family:Arial;" text-anchor="middle"><textPath startOffset="22.20632615414155" xlink:href="#id13">January</textPath></text><path d="M 104.307194497241 79.44645832069477 l 2.7356189085250087 -13.054125438514678 a34.33768352365416,34.33768352365416 0 0,0 0.5774572748615242,0.12620979403247268 l -2.95991890754006 13.005102146386333" fill="#859900" stroke="none" /><path d="M 107.08798089147638 80.2323363322302 l 5.6963527780295635 -15.886553247408647 a37.87693719412724,37.87693719412724 0 0,0 0.611834597230954,0.22534384564473017 l -5.968969701033094 15.786146133957592" fill="#859900" stroke="none" /><path d="M 108.43124777332544 80.76684994638697 l 5.358788072078766 -12.224332372472952 a34.347318515497555,34.347318515497555 0 0,0 0.539445706148959,0.24203356388413116 l -5.568415896694505 12.13027847807229" fill="#859900" stroke="none" /><path d="M 109.08828744355905 81.06846463323043 l 27.264862330677165 -56.79460610030869 a84.0,84.0 0 0,0 1.2981149319582728,0.6369793594606721 l -28.23844852964587 56.31687158071319" fill="#859900" stroke="none" /><path d="M 109.73455568895987 81.39251694778311 l 3.493310682426837 -6.677420253818592 a28.535991027732464,28.535991027732464 0 0,0 0.4332781948293412,0.23144220630371007 l -3.6077339237844894 6.616299321013128" fill="#859900" stroke="none" /><line stroke="#2aa198" stroke-width="0.3" x1="143.23703022742887" x2="145.7803849466894" y1="26.81831364943548" y2="22.513508569990506" /><path d="M 143.74570117128098 25.957352633546492 a86.0,86.0 0 0,1 28.547481713284135,27.462654790039103" fill="none" id="id14" stroke="none" /><text fill="#2aa198" style="font-size:6.75px; font-family:Arial;" text-anchor="middle"><textPath startOffset="19.985693538727396" xlink:href="#id14">February</textPath></text><path d="M 111.90073688211348 82.69761687909136 l 3.304816512498272 -4.804845448645475 a26.83166802610114,26.83166802610114 0 0,0 0.3782867321694074,0.2650140305971262 l -3.38703438425133 4.7472465752844135" fill="#859900" stroke="none" /><path d="M 113.34407831869373 83.78471172551755 l 8.300820333952238 -10.086885839178546 a34.063264681892335,34.063264681892335 0 0,0 0.4495417653882452,0.376478300383581 l -8.4732196362996 9.942506381401147" fill="#859900" stroke="none" /><path d="M 113.6212207817346 84.01681056812373 l 4.683683430505706 -5.4958509746128374 a28.22089110929853,28.22089110929853 0 0,0 0.3670143033173251,0.3182711872177806 l -4.7775915324697955 5.414414793975383" fill="#859900" stroke="none" /><path d="M 113.89432698308785 84.25364557470405 l 4.807576910509018 -5.448397036566679 a28.266211256117455,28.266211256117455 0 0,0 0.36206191667553067,0.3250627636518511 l -4.900649814780539 5.364835264145533" fill="#859900" stroke="none" /><path d="M 115.4437574822437 85.77008943001954 l 3.4872323515506767 -3.2131432105407227 a25.74184339314845,25.74184339314845 0 0,0 0.2974486667435028,0.32845024703513814 l -3.542024658910215 3.1526401762360354" fill="#859900" stroke="none" /><line stroke="#2aa198" stroke-width="0.3" x1="172.23445277983987" x2="176.4835382374775" y1="55.19839476539836" y2="52.563006222186495" /><path d="M 173.08426987136738 54.67131705675599 a86.0,86.0 0 0,1 12.851231095245387,41.99856678651699" fill="none" id="id15" stroke="none" /><text fill="#2aa198" style="font-size:6.75px; font-family:Arial;" text-anchor="middle"><textPath startOffset="22.20632615414155" xlink:href="#id15">March</textPath></text><path d="M 118.03404312379186 89.2402003453031 l 11.33409945849378 -6.7623570933415715 a34.19815456769984,34.19815456769984 0 0,0 0.297263917490571,0.5081203945060011 l -11.44882305045468 6.566257286481676" fill="#859900" stroke="none" /><path d="M 118.3937258080291 89.86733742301442 l 4.381199949890291 -2.4134980176319836 a26.001988172920065,26.001988172920065 0 0,0 0.21258717969084015,0.39389175757001615 l -4.422095228799597 2.3377252767295076" fill="#859900" stroke="none" /><path d="M 118.89224826269711 90.83032412892265 l 3.688046289455282 -1.7900563554740434 a25.099510603588907,25.099510603588907 0 0,0 0.1853082598889722,0.39030645482441123 l -3.71831274318601 1.7263074850090918" fill="#859900" stroke="none" /><path d="M 119.04729006885535 91.15688171328212 l 9.005774178830741 -4.181126346003914 a30.929037520391518,30.929037520391518 0 0,0 0.2200345973381048,0.48481706854337847 l -9.076411093132192 4.025487268618473" fill="#859900" stroke="none" /><path d="M 119.34039704204932 91.81776055985345 l 12.117983954160593 -5.126691351228307 a34.15783034257748,34.15783034257748 0 0,0 0.22443046715696682,0.5434761778855666 l -12.204436108203756 4.917340602889437" fill="#859900" stroke="none" /><path d="M 120.73433829027371 96.67025291283417 l 13.866934340849348 -2.226904161731674 a35.04460644371941,35.04460644371941 0 0,0 0.09052206506242445,0.5964273070883559 l -13.903212299351072 1.987877742251236" fill="#859900" stroke="none" /><line stroke="#2aa198" stroke-width="0.3" x1="184.98032266829074" x2="189.97916517819016" y1="98.17113171792111" y2="98.06355123074" /><path d="M 185.9800911702706 98.14961562048488 a86.0,86.0 0 0,1 -9.607161424134198,41.387399972396054" fill="none" id="id16" stroke="none" /><text fill="#2aa198" style="font-size:6.75px; font-family:Arial;" text-anchor="middle"><textPath startOffset="21.466115282336823" xlink:href="#id16">April</textPath></text><path d="M 119.9155931802556 106.66101706037122 l 13.394156927816681 4.47984185045154 a35.12347063621533,35.12347063621533 0 0,0 -0.19670677123405325,0.5717219536047532 l -13.315059325639398 -4.709736507145593" fill="#859900" stroke="none" /><line stroke="#2aa198" stroke-width="0.3" x1="174.80103733775053" x2="179.2010983576182" y1="140.37084112569926" y2="142.7455964860345" /><path d="M 175.68104954172406 140.8457921977663 a86.0,86.0 0 0,1 -30.038265399797805,32.042727171017184" fill="none" id="id17" stroke="none" /><text fill="#2aa198" style="font-size:6.75px; font-family:Arial;" text-anchor="middle"><textPath startOffset="22.206326154141568" xlink:href="#id17">May</textPath></text><path d="M 117.35343817320211 111.8261652097733 l 28.38010201242427 19.340707686816735 a55.34375,55.34375 0 0,0 -0.5432624009164536,0.7826100069446256 l -28.04297870434568 -19.826358955948383" fill="#859900" stroke="none" /><line stroke="#2aa198" stroke-width="0.3" x1="143.8653032363475" x2="146.44561519142675" y1="172.8068346515853" y2="177.08958963109032" /><path d="M 144.38136562736335 173.6633856474863 a86.0,86.0 0 0,1 -40.68145358897372,12.25698825130547" fill="none" id="id18" stroke="none" /><text fill="#2aa198" style="font-size:6.75px; font-family:Arial;" text-anchor="middle"><textPath startOffset="21.466115282336833" xlink:href="#id18">June</textPath></text><path d="M 110.8373102113329 117.98757091392108 l 6.584741434142528 10.929234393660991 a33.75958401305057,33.75958401305057 0 0,0 -0.5003365335989488,0.29560764319470706 l -6.395637029515197 -11.040960609149447" fill="#859900" stroke="none" /><path d="M 105.88484417918355 120.15858648285463 l 3.63742730719179 12.460039843790005 a33.980118270799345,33.980118270799345 0 0,0 -0.5628868595490625,0.15907744903343427 l -3.4224092795381216 -12.520806086161958" fill="#859900" stroke="none" /><line stroke="#2aa198" stroke-width="0.3" x1="102.19456741930631" x2="102.32365962044197" y1="184.97166512339345" y2="189.96999836594603" /><path d="M 102.22038585953345 185.97133177190398 a86.0,86.0 0 0,1 -42.740103519485714,-10.115201625700543" fill="none" id="id19" stroke="none" /><text fill="#2aa198" style="font-size:6.75px; font-family:Arial;" text-anchor="middle"><textPath startOffset="22.20632615414155" xlink:href="#id19">July</textPath></text><line stroke="#2aa198" stroke-width="0.3" x1="58.666819895761336" x2="56.23545636021788" y1="174.27360380694188" y2="178.64263932499728" /><path d="M 58.180547188652646 175.14741091055294 a86.0,86.0 0 0,1 -31.652253787137756,-30.449443065178592" fill="none" id="id20" stroke="none" /><text fill="#2aa198" style="font-size:6.75px; font-family:Arial;" text-anchor="middle"><textPath startOffset="22.20632615414155" xlink:href="#id20">August</textPath></text><line stroke="#2aa198" stroke-width="0.3" x1="26.63291911575756" x2="22.317208475507996" y1="142.92168965132927" y2="145.44649492493687" /><path d="M 25.769776987707644 143.4266507060508 a86.0,86.0 0 0,1 -11.730757126820373,-40.83630448921669" fill="none" id="id21" stroke="none" /><text fill="#2aa198" style="font-size:6.75px; font-family:Arial;" text-anchor="middle"><textPath startOffset="21.46611528233685" xlink:href="#id21">September</textPath></text><path d="M 79.0235259727143 100.99374915477108 l -13.27462053510989 0.6288779953920225 a34.28950856443719,34.28950856443719 0 0,0 -0.02285618978488581,-0.589816699151578 l 13.283478857745976 -0.4002840492264477" fill="#859900" stroke="none" /><line stroke="#2aa198" stroke-width="0.3" x1="15.007084014347285" x2="10.007500721073583" y1="101.09737516637583" y2="101.16192664675087" /><path d="M 14.007167355692545 101.11028546245083 a86.0,86.0 0 0,1 10.666146001902534,-42.60595125391555" fill="none" id="id22" stroke="none" /><text fill="#2aa198" style="font-size:6.75px; font-family:Arial;" text-anchor="middle"><textPath startOffset="22.20632615414155" xlink:href="#id22">October</textPath></text><path d="M 79.05617556472873 98.46500227214037 l -20.832072789120588 -1.526807317199153 a41.887948613376835,41.887948613376835 0 0,0 0.05889349069296822,-0.718649758195972 l 20.80270481460812 1.8851709926029034" fill="#859900" stroke="none" /><line stroke="#2aa198" stroke-width="0.3" x1="26.266209847984257" x2="21.92892807433627" y1="57.711370442889674" y2="55.22380399835377" /><path d="M 25.39875349325466 57.213857153982495 a86.0,86.0 0 0,1 29.58750427330802,-30.492523968695096" fill="none" id="id23" stroke="none" /><text fill="#2aa198" style="font-size:6.75px; font-family:Arial;" text-anchor="middle"><textPath startOffset="21.46611528233685" xlink:href="#id23">November</textPath></text><path d="M 82.15384107792192 88.93136811851018 l -42.19539410715647 -26.17063349630392 a70.65232463295268,70.65232463295268 0 0,0 0.6499085419122882,-1.0279992374313127 l 41.73865796899822 26.89308038144945" fill="#859900" stroke="none" /><path d="M 86.93701828274178 83.55741782278169 l -8.159036092977558 -10.269908076839249 a34.11643556280587,34.11643556280587 0 0,0 0.4629558794952805,-0.3613444072305449 l 7.981047658322852 10.408830873293015" fill="#859900" stroke="none" /><line stroke="#2aa198" stroke-width="0.3" x1="56.762969772571076" x2="54.21961505331055" y1="26.818313649435495" y2="22.513508569990535" /><path d="M 56.25429882871897 25.957352633546506 a86.0,86.0 0 0,1 42.265352541879196,-11.944610805530505" fill="none" id="id24" stroke="none" /><text fill="#2aa198" style="font-size:6.75px; font-family:Arial;" text-anchor="middle"><textPath startOffset="22.20632615414155" xlink:href="#id24">December</textPath></text><path d="M 94.28887869178378 79.79150937346287 l -1.9336951479439966 -6.8422746012396685 a28.110267128874387,28.110267128874387 0 0,0 0.46676711820588135,-0.12758508563570875 l 1.8156301405143929 6.874546227701673" fill="#859900" stroke="none" /></svg>