<?xml version="1.0" encoding="utf-8" ?>
<svg baseProfile="full" height="200mm" version="1.1" viewBox="0,0,200,200" width="200mm" xmlns="http://www.w3.org/2000/svg" xmlns:ev="http://www.w3.org/2001/xml-events" xmlns:xlink="http://www.w3.org/1999/xlink"><defs /><rect fill="#fdf6e3" height="200" width="200" x="0" y="0" /><text alignment-baseline="middle" fill="#2aa198" style="dominant-baseline: central; font-size:9.0px; font-family:Arial;" text-anchor="middle" x="100.0" y="100.0">2023</text><line stroke="#2aa198" stroke-width="0.3" x1="100.0" x2="100.0" y1="15.0" y2="10.0" /><path d="M 100.0 14.0 a86.0,86.0 0 0,1 42.46469731375804,11.215312516191453" fill="none" id="id61" stroke="none" /><text fill="#2aa198" style="font-size:6.75px; font-family:Arial;" text-anchor="middle"><textPath startOffset="22.20632615414155" xlink:href="#id61">January</textPath></text><path d="M 109.08828744355905 81.06846463323043 l 5.395930793470735 -11.240099445317284 a33.4681957262688,33.4681957262688 0 0,0 0.5172091025948998,0.2537922604288465 l -5.588611163076067 11.145552024753606" fill="#859900" stroke="none" /><path d="M 110.05341064243156 81.56283822128135 l 1.609837915749217 -2.9523157011922114 a24.362699230453096,24.362699230453096 0 0,0 0.3664566577182572,0.20393273326600514 l -1.6604186625395094 2.924167570366026" fill="#859900" stroke="none" /><line stroke="#2aa198" stroke-width="0.3" x1="143.23703022742887" x2="145.7803849466894" y1="26.81831364943548" y2="22.513508569990506" /><path d="M 143.74570117128098 25.957352633546492 a86.0,86.0 0 0,1 28.547481713284135,27.462654790039103" fill="none" id="id62" stroke="none" /><text fill="#2aa198" style="font-size:6.75px; font-family:Arial;" text-anchor="middle"><textPath startOffset="19.985693538727396" xlink:href="#id62">February</textPath></text><path d="M 115.4437574822437 85.77008943001954 l 8.320842433034707 -7.666841688307871 a32.31445448393189,32.31445448393189 0 0,0 0.37339561335951116,0.41231276237497966 l -8.451581687010254 7.522476138663342" fill="#859900" stroke="none" /><path d="M 116.60985879189232 87.15038557335679 l 1.4986062045464648 -1.1593423006821018 a22.89470185687776,22.89470185687776 0 0,0 0.2384581970235659,0.3137830355273423 l -1.5183403417941417 1.1333744892737259" fill="#859900" stroke="none" /><path d="M 117.04232023915458 87.72973835380427 l 4.768352560408995 -3.4331553870876084 a26.87569077234734,26.87569077234734 0 0,0 0.2670770237258155,0.37776150958449034 l -4.826742203938693 3.350567377171325" fill="#859900" stroke="none" /><path d="M 117.2510076193507 88.02491185347247 l 4.943874352691921 -3.431876703389388 a27.01827810278586,27.01827810278586 0 0,0 0.26191716197549486,0.38433111631876593 l -5.002215980336149 3.3462675638002155" fill="#859900" stroke="none" /><line stroke="#2aa198" stroke-width="0.3" x1="172.23445277983987" x2="176.4835382374775" y1="55.19839476539836" y2="52.563006222186495" /><path d="M 173.08426987136738 54.67131705675599 a86.0,86.0 0 0,1 12.851231095245387,41.99856678651699" fill="none" id="id63" stroke="none" /><text fill="#2aa198" style="font-size:6.75px; font-family:Arial;" text-anchor="middle"><textPath startOffset="22.20632615414155" xlink:href="#id63">March</textPath></text><path d="M 117.84615892207809 88.93136811851018 l 1.5727046719905573 -0.9754305757653559 a22.850639022996884,22.850639022996884 0 0,0 0.20444162245168712,0.3360482730053947 l -1.5892620927284684 0.9482145295528798" fill="#859900" stroke="none" /><path d="M 119.196687751892 91.48605970444005 l 5.1304256644619155 -2.2753997128349464 a26.612371277075212,26.612371277075212 0 0,0 0.1821164278872148,0.4203498246278462 l -5.168832802191811 2.1867507436204976" fill="#859900" stroke="none" /><path d="M 119.61058180528143 92.48833698450437 l 3.1072957189829804 -1.19022263399683 a24.327448963348395,24.327448963348395 0 0,0 0.14642275821086337,0.39234019518980157 l -3.127323065695469 1.1365593017776952" fill="#859900" stroke="none" /><path d="M 119.7369772167798 92.82701384747503 l 5.323853806260218 -1.9348418560216822 a26.664541672390172,26.664541672390172 0 0,0 0.15306325477262303,0.43273043296176283 l -5.3563701418426515 1.842913796633305" fill="#859900" stroke="none" /><path d="M 120.6074358757038 95.95851677861258 l 5.2009771951890285 -1.0200037596117104 a26.30005391052755,26.30005391052755 0 0,0 0.08330138319001973,0.4449993199203282 l -5.2177643022889075 0.9303263622288195" fill="#859900" stroke="none" /><path d="M 120.94382443527127 98.46500227214037 l 1.757798584612636 -0.12883114264800835 a22.762513355235125,22.762513355235125 0 0,0 0.02527658850943724,0.39101763655810956 l -1.7597557641264887 0.09855444183686353" fill="#859900" stroke="none" /><line stroke="#2aa198" stroke-width="0.3" x1="184.98032266829074" x2="189.97916517819016" y1="98.17113171792111" y2="98.06355123074" /><path d="M 185.9800911702706 98.14961562048488 a86.0,86.0 0 0,1 -9.607161424134198,41.387399972396054" fill="none" id="id64" stroke="none" /><text fill="#2aa198" style="font-size:6.75px; font-family:Arial;" text-anchor="middle"><textPath startOffset="21.466115282336823" xlink:href="#id64">April</textPath></text><path d="M 120.49622156327973 104.57218783832717 l 4.784996302953572 1.0674114658284342 a25.902607148922026,25.902607148922026 0 0,0 -0.10082211663219538,0.43433903969155113 l -4.765913620390824 -1.1496191628685501" fill="#859900" stroke="none" /><path d="M 120.41448212921028 104.9243191809786 l 3.8562847948711623 0.9302012690064155 a24.966888808627697,24.966888808627697 0 0,0 -0.10437192165003711,0.41691394485935473 l -3.8397015589260644 -0.9964430532631662" fill="#859900" stroke="none" /><path d="M 120.13307415673323 105.97154293290107 l 5.710013190070801 1.6936106551088106 a26.955885130010536,26.955885130010536 0 0,0 -0.1357719509597695,0.44371059144903463 l -5.680014466604899 -1.7916482191099024" fill="#859900" stroke="none" /><path d="M 119.41010516605496 108.01547362559984 l 6.761637624083967 2.792242884726424 a28.315487932238916,28.315487932238916 0 0,0 -0.1899146996341366,0.44890225003974593 l -6.7125719432575215 -2.9082196604323336" fill="#859900" stroke="none" /><path d="M 118.97047184881838 109.00673069616215 l 6.7495553230430305 3.2045289963245103 a28.471646615512746,28.471646615512746 0 0,0 -0.21400746176549423,0.4409187581532682 l -6.693394604662822 -3.3202367104430537" fill="#859900" stroke="none" /><line stroke="#2aa198" stroke-width="0.3" x1="174.80103733775053" x2="179.2010983576182" y1="140.37084112569926" y2="142.7455964860345" /><path d="M 175.68104954172406 140.8457921977663 a86.0,86.0 0 0,1 -30.038265399797805,32.042727171017184" fill="none" id="id65" stroke="none" /><text fill="#2aa198" style="font-size:6.75px; font-family:Arial;" text-anchor="middle"><textPath startOffset="22.206326154141568" xlink:href="#id65">May</textPath></text><path d="M 116.71984013943494 112.70617746262583 l 1.438365003891865 1.093079888507725 a22.806576189116004,22.806576189116004 0 0,0 -0.24022186550615166,0.31051914340004655 l -1.4193363211676449 -1.1176770260210243" fill="#859900" stroke="none" /><path d="M 116.498646956653 112.99209946851258 l 4.2562088296321825 3.351613536469093 a26.417437299986204,26.417437299986204 0 0,0 -0.2844052087114697,0.35483922716751654 l -4.19788570886586 -3.42438059721486" fill="#859900" stroke="none" /><path d="M 113.48314897796784 116.09983520530334 l 10.793147516534518 12.88778286486936 a37.810323628226065,37.810323628226065 0 0,0 -0.5025709892395414,0.41358170928539467 l -10.569706398750284 -13.071659693011933" fill="#859900" stroke="none" /><path d="M 113.20401910651253 116.32954008644616 l 7.370768028846368 9.115501198841613 a32.72265257700435,32.72265257700435 0 0,0 -0.44104293477782586,0.35039118135052594 l -7.212767601351191 -9.241026294197265" fill="#859900" stroke="none" /><path d="M 112.34349029814194 116.9893568818739 l 4.091393275294119 5.6313197336521625 a27.960693993830084,27.960693993830084 0 0,0 -0.39181276841733437,0.27954800699154764 l -3.9938531790279 -5.70091200248793" fill="#859900" stroke="none" /><line stroke="#2aa198" stroke-width="0.3" x1="143.8653032363475" x2="146.44561519142675" y1="172.8068346515853" y2="177.08958963109032" /><path d="M 144.38136562736335 173.6633856474863 a86.0,86.0 0 0,1 -40.68145358897372,12.25698825130547" fill="none" id="id66" stroke="none" /><text fill="#2aa198" style="font-size:6.75px; font-family:Arial;" text-anchor="middle"><textPath startOffset="21.466115282336833" xlink:href="#id66">June</textPath></text><path d="M 105.53697534728816 120.25689768951611 l 2.0507826712693795 7.502741505916697 a28.777971436652614,28.777971436652614 0 0,0 -0.47896076445751573,0.1264978910998764 l -1.9213314640003665 -7.536930746320158" fill="#859900" stroke="none" /><path d="M 103.7750983002368 120.6578951692458 l 0.340604083778798 1.8638358255407677 a22.89470185687776,22.89470185687776 0 0,0 -0.3882843625794182,0.06750821349122049 l -0.30847074972732985 -1.8694226175529942" fill="#859900" stroke="none" /><path d="M 103.41894727170886 120.7198165907248 l 0.38973485793456686 2.3619067899167225 a23.393845639080347,23.393845639080347 0 0,0 -0.39787822259799,0.06214039559087762 l -0.34902077172805973 -2.368265492854706" fill="#859900" stroke="none" /><path d="M 102.70371172650421 120.8252237178851 l 0.869059679835181 6.6938949442519515 a27.750073647879486,27.750073647879486 0 0,0 -0.4742257352632616,0.05742213229529407 l -0.7537065215205391 -6.707862605272597" fill="#859900" stroke="none" /><line stroke="#2aa198" stroke-width="0.3" x1="102.19456741930631" x2="102.32365962044197" y1="184.97166512339345" y2="189.96999836594603" /><path d="M 102.22038585953345 185.97133177190398 a86.0,86.0 0 0,1 -42.740103519485714,-10.115201625700543" fill="none" id="id67" stroke="none" /><text fill="#2aa198" style="font-size:6.75px; font-family:Arial;" text-anchor="middle"><textPath startOffset="22.20632615414155" xlink:href="#id67">July</textPath></text><path d="M 98.73552117531835 120.96189622390904 l -0.3046579335353646 5.050466533646154 a26.059647088873476,26.059647088873476 0 0,0 -0.44752758005746296,-0.03086412211531683 l 0.3915482743717576 -5.044474067014552" fill="#859900" stroke="none" /><line stroke="#2aa198" stroke-width="0.3" x1="58.666819895761336" x2="56.23545636021788" y1="174.27360380694188" y2="178.64263932499728" /><path d="M 58.180547188652646 175.14741091055294 a86.0,86.0 0 0,1 -31.652253787137756,-30.449443065178592" fill="none" id="id68" stroke="none" /><text fill="#2aa198" style="font-size:6.75px; font-family:Arial;" text-anchor="middle"><textPath startOffset="22.20632615414155" xlink:href="#id68">August</textPath></text><path d="M 89.4739219176387 118.17145234162733 l -4.204228268376716 7.257872591706251 a29.38762480622844,29.38762480622844 0 0,0 -0.4355415730410289,-0.2573256383935671 l 4.328537712446127 -7.184428381018934" fill="#859900" stroke="none" /><line stroke="#2aa198" stroke-width="0.3" x1="26.63291911575756" x2="22.317208475507996" y1="142.92168965132927" y2="145.44649492493687" /><path d="M 25.769776987707644 143.4266507060508 a86.0,86.0 0 0,1 -11.730757126820373,-40.83630448921669" fill="none" id="id69" stroke="none" /><text fill="#2aa198" style="font-size:6.75px; font-family:Arial;" text-anchor="middle"><textPath startOffset="21.46611528233685" xlink:href="#id69">September</textPath></text><path d="M 80.58989483394504 108.01547362559985 l -7.070542776659205 2.9198063926052464 a28.6496957146586,28.6496957146586 0 0,0 -0.1843094758748427,-0.4574410040112523 l 7.119754866791435 -2.7976660207511888" fill="#859900" stroke="none" /><path d="M 80.45479744820244 107.68017299344265 l -7.317326251688137 2.875300540554165 a28.861972823163118,28.861972823163118 0 0,0 -0.17771515182150485,-0.46395818284770185 l 7.3657356831031535 -2.7489187908733053" fill="#859900" stroke="none" /><path d="M 80.32549172779595 107.34259656027581 l -59.023524816612166 22.027789680827432 a84.0,84.0 0 0,0 -0.4939029559791117,-1.3590088119755315 l 59.3939520335965 -21.008533071845783" fill="#859900" stroke="none" /><path d="M 79.86692584326677 105.97154293290107 l -4.60075796435055 1.3646015255359154 a25.798865612832888,25.798865612832888 0 0,0 -0.12261508324507692,-0.4268391903638251 l 4.623565684481732 -1.2852048596674943" fill="#859900" stroke="none" /><path d="M 79.4281124754447 104.21870165774334 l -6.220513136565345 1.275648092568975 a27.34996549110756,27.34996549110756 0 0,0 -0.09060661582521727,-0.4620011820540737 l 6.241549685366229 -1.1683831834469465" fill="#859900" stroke="none" /><path d="M 79.0235259727143 100.99374915477108 l -5.595643829687276 0.26509061145922563 a26.601919572878668,26.601919572878668 0 0,0 -0.017731911242104527,-0.45758183918226075 l 5.599377873780582 -0.16873152526296814" fill="#859900" stroke="none" /><path d="M 79.0095281055655 100.63252640178507 l -5.386668565399157 0.16232174781092487 a26.389113710367578,26.389113710367578 0 0,0 -0.009773946297021397,-0.45415687843805636 l 5.388664574381186 -0.06957505358273967" fill="#859900" stroke="none" /><line stroke="#2aa198" stroke-width="0.3" x1="15.007084014347285" x2="10.007500721073583" y1="101.09737516637583" y2="101.16192664675087" /><path d="M 14.007167355692545 101.11028546245083 a86.0,86.0 0 0,1 10.666146001902534,-42.60595125391555" fill="none" id="id70" stroke="none" /><text fill="#2aa198" style="font-size:6.75px; font-family:Arial;" text-anchor="middle"><textPath startOffset="22.20632615414155" xlink:href="#id70">October</textPath></text><path d="M 79.05617556472873 98.46500227214037 l -12.597738162244307 -0.9233031681954671 a33.63152783889844,33.63152783889844 0 0,0 0.047285153303925256,-0.576998639209251 l 12.579978525120884 1.1400157246124965" fill="#859900" stroke="none" /><path d="M 79.08570108090925 98.10471618934814 l -7.738786946199188 -0.7012999895409774 a28.770498380026414,28.770498380026414 0 0,0 0.04894118560425367,-0.49283106005352617 l 7.7255686349127055 0.8344065802989338" fill="#859900" stroke="none" /><path d="M 79.12142395522702 97.74499172005258 l -8.291305902031253 -0.8955095127446806 a29.339525816764073,29.339525816764073 0 0,0 0.05855281762012724,-0.5016447837661198 l 8.274662731407536 1.038098034835662" fill="#859900" stroke="none" /><path d="M 79.26566170972629 96.67025291283419 l -2.1154768814918197 -0.3397264424598626 a23.14258173515803,23.14258173515803 0 0,0 0.06654940145725144,-0.392778334546327 l 2.109315618514345 0.37609056532201757" fill="#859900" stroke="none" /><path d="M 79.32604984820605 96.31383870115002 l -4.4174271720202904 -0.7876264072628891 a25.487094625425346,25.487094625425346 0 0,0 0.08072645945957255,-0.4312439743904507 l 4.4032149886508565 0.8635484591159125" fill="#859900" stroke="none" /><path d="M 79.46518482838121 95.60439243477599 l -2.3538301922430698 -0.5038522973694086 a23.407152614912373,23.407152614912373 0 0,0 0.08772734738540654,-0.39326449672461156 l 2.3448084578556254 0.5442949636439794" fill="#859900" stroke="none" /><path d="M 79.81627453868168 94.20196356495316 l -2.106544893837652 -0.6051322918526676 a23.191738232635537,23.191738232635537 0 0,0 0.11352256790685224,-0.38274166389039194 l 2.0958164288190924 0.6413033424895987" fill="#859900" stroke="none" /><path d="M 80.2630227832202 92.82701384747504 l -4.564195410848767 -1.6587601089999988 a25.856270672812897,25.856270672812897 0 0,0 0.15562447483349928,-0.41699622093278627 l 4.53496634751364 1.7370794669621266" fill="#859900" stroke="none" /><path d="M 80.65960295795068 91.81776055985345 l -2.8316172136593543 -1.1979573115602606 a24.074598797406363,24.074598797406363 0 0,0 0.1647496906665486,-0.38026500070638664 l 2.810576813150125 1.2465214568532466" fill="#859900" stroke="none" /><path d="M 81.10775173730289 90.83032412892265 l -4.078826823351851 -1.9797283724162196 a25.53388935500684,25.53388935500684 0 0,0 0.19532207882082334,-0.39375739218797146 l 4.044144731577615 2.0496453531031524" fill="#859900" stroke="none" /><line stroke="#2aa198" stroke-width="0.3" x1="26.266209847984257" x2="21.92892807433627" y1="57.711370442889674" y2="55.22380399835377" /><path d="M 25.39875349325466 57.213857153982495 a86.0,86.0 0 0,1 29.58750427330802,-30.492523968695096" fill="none" id="id71" stroke="none" /><text fill="#2aa198" style="font-size:6.75px; font-family:Arial;" text-anchor="middle"><textPath startOffset="21.46611528233685" xlink:href="#id71">November</textPath></text><path d="M 83.39014120810768 87.1503855733568 l -2.1872401514505264 -1.6920789608597264 a23.76534820409681,23.76534820409681 0 0,0 0.25309634043379287,-0.321406650015132 l 2.1577897304227625 1.7294780048279061" fill="#859900" stroke="none" /><path d="M 83.84228863543731 86.58626213691792 l -1.9383199989629483 -1.6091459844914868 a23.519213214038224,23.519213214038224 0 0,0 0.2612753724746904,-0.30926763051529965 l 1.9103340130011337 1.6422725646359022" fill="#859900" stroke="none" /><path d="M 84.31358615837235 86.03803664274997 l -2.925989057080718 -2.604327057231111 a24.91713305660941,24.91713305660941 0 0,0 0.2879190854191637,-0.3179274453215257 l 2.8807263310455093 2.6543072898221953" fill="#859900" stroke="none" /><path d="M 85.57189188830299 84.74124197986013 l -2.548664740250744 -2.695395560171929 a24.70956185876337,24.70956185876337 0 0,0 0.3115665321468505,-0.2895671358831654 l 2.5018903243090374 2.7388672821297417" fill="#859900" stroke="none" /><path d="M 85.83668400450813 84.49514656593479 l -2.3956310113000647 -2.62254317591528 a24.5520107899389,24.5520107899389 0 0,0 0.3144867207104152,-0.2823492829751242 l 2.350133302993678 2.663391467659683" fill="#859900" stroke="none" /><path d="M 86.93701828274178 83.55741782278169 l -2.1697515783074386 -2.7311007090621 a24.488084430544525,24.488084430544525 0 0,0 0.33230032615297733,-0.25936567542283134 l 2.1224186969950356 2.768044773708153" fill="#859900" stroke="none" /><path d="M 87.51073957382395 83.11751280151077 l -1.932193329987444 -2.611862355768568 a24.248876117972014,24.248876117972014 0 0,0 0.33769987589798983,-0.24535332154202485 l 1.88694813773567 2.6447349121272605" fill="#859900" stroke="none" /><line stroke="#2aa198" stroke-width="0.3" x1="56.762969772571076" x2="54.21961505331055" y1="26.818313649435495" y2="22.513508569990535" /><path d="M 56.25429882871897 25.957352633546506 a86.0,86.0 0 0,1 42.265352541879196,-11.944610805530505" fill="none" id="id72" stroke="none" /><text fill="#2aa198" style="font-size:6.75px; font-family:Arial;" text-anchor="middle"><textPath startOffset="22.20632615414155" xlink:href="#id72">December</textPath></text><path d="M 92.23578459929587 80.48803036053334 l -1.3194431549877366 -3.3158449955919576 a24.568719416546532,24.568719416546532 0 0,0 0.39428914560835626,-0.15297806284663487 l 1.2621708443797028 3.338065762329144" fill="#859900" stroke="none" /><path d="M 95.692805502759 79.44645832069477 l -0.47613088639449813 -2.2720534270236556 a23.321406340180182,23.321406340180182 0 0,0 0.39361379930599766,-0.07895522521441277 l 0.436950677621364 2.279912608315279" fill="#859900" stroke="none" /><path d="M 98.91598698831166 79.02799685794201 l -0.102997037881347 -1.992646009576966 a22.99530611919458,22.99530611919458 0 0,0 0.3954745531886189,-0.017029966163125014 l 0.068681652303404 1.9941237022642835" fill="#859900" stroke="none" /></svg>