<?xml version="1.0" encoding="utf-8" ?>
<svg baseProfile="full" height="200mm" version="1.1" viewBox="0,0,200,200" width="200mm" xmlns="http://www.w3.org/2000/svg" xmlns:ev="http://www.w3.org/2001/xml-events" xmlns:xlink="http://www.w3.org/1999/xlink"><defs /><rect fill="#fdf6e3" height="200" width="200" x="0" y="0" /><text alignment-baseline="middle" fill="#2aa198" style="dominant-baseline: central; font-size:9.0px; font-family:Arial;" text-anchor="middle" x="100.0" y="100.0">2024</text><line stroke="#2aa198" stroke-width="0.3" x1="100.0" x2="100.0" y1="15.0" y2="10.0" /><path d="M 100.0 14.0 a86.0,86.0 0 0,1 42.35913384403234,11.155469271406648" fill="none" id="id73" stroke="none" /><text fill="#2aa198" style="font-size:6.75px; font-family:Arial;" text-anchor="middle"><textPath startOffset="22.145653131862478" xlink:href="#id73">January</textPath></text><path d="M 104.9986988182912 79.60360301121754 l 1.66824601634782 -6.80701303704808 a28.008457123904154,28.008457123904154 0 0,0 0.46600031733407643,0.11845545838625682 l -1.784851626907291 6.777372346826556" fill="#859900" stroke="none" /><path d="M 106.72888874123014 80.10723608172694 l 2.8583988470588393 -8.450348287139358 a29.92069672967456,29.92069672967456 0 0,0 0.4851345015640802,0.1687549628239288 l -3.0030391206679377 8.40003489174684" fill="#859900" stroke="none" /><path d="M 107.74402155503746 80.48000691201159 l 3.715218407074085 -9.364777346116592 a31.074815261561902,31.074815261561902 0 0,0 0.49415694885380174,0.20096932914115986 l -3.8754298171183263 9.299620760396138" fill="#859900" stroke="none" /><line stroke="#2aa198" stroke-width="0.3" x1="143.13028292997686" x2="145.6673583964461" y1="26.7553504044142" y2="22.446841604673864" /><path d="M 143.63769802327073 25.89364864446614 a86.0,86.0 0 0,1 29.32050498858742,28.57503671076993" fill="none" id="id74" stroke="none" /><text fill="#2aa198" style="font-size:6.75px; font-family:Arial;" text-anchor="middle"><textPath startOffset="20.669276256404974" xlink:href="#id74">February</textPath></text><path d="M 110.65571695917076 81.90426304109057 l 7.676867580940326 -13.036999475996438 a36.12936387269551,36.12936387269551 0 0,0 0.5317334714032106,0.3192906716340753 l -7.899533808900971 12.903294803826443" fill="#859900" stroke="none" /><path d="M 111.27062007382361 82.28071324371311 l 2.1935109988080175 -3.4485636226190874 a25.08706270580027,25.08706270580027 0 0,0 0.36139032918923714,0.23424884518637487 l -2.252386960254262 3.410400935728818" fill="#859900" stroke="none" /><path d="M 112.45986205192187 83.09580414077388 l 7.5860266225883946 -10.291902052138537 a33.785579680618056,33.785579680618056 0 0,0 0.4639033770868268,0.3481217426543461 l -7.761582988585987 10.160161282220177" fill="#859900" stroke="none" /><path d="M 113.31354834802062 83.75963576809568 l 4.593305231067781 -5.603085520919212 a28.245206712060682,28.245206712060682 0 0,0 0.37233324546672264,0.310613635859099 l -4.688812810696396 5.523409701148243" fill="#859900" stroke="none" /><path d="M 113.59037401385872 83.9905735841838 l 4.372689626441464 -5.151017384976374 a27.756729583868044,27.756729583868044 0 0,0 0.3606002573882137,0.3114779138108855 l -4.460469363592538 5.075195338700768" fill="#859900" stroke="none" /><path d="M 113.86319453409587 84.22622945171908 l 7.210981675466094 -8.204773445031849 a31.923212165302274,31.923212165302274 0 0,0 0.4085182649978189,0.3652995516096787 l -7.350764967287288 8.079778363538786" fill="#859900" stroke="none" /><path d="M 114.65682725009322 84.96080404539774 l 3.904755177603058 -4.006622802376732 a26.594652739674114,26.594652739674114 0 0,0 0.3242117134616382,0.32144068982649704 l -3.9729588111946583 3.939002102321576" fill="#859900" stroke="none" /><path d="M 115.6541949942343 86.00192230759917 l 4.1626168905661185 -3.72223769151373 a26.58412328031463,26.58412328031463 0 0,0 0.3012727245274197,0.34279305664095466 l -4.225900679052126 3.6502323570614776" fill="#859900" stroke="none" /><path d="M 115.8921839302757 86.27271002978787 l 4.4760709354385 -3.8663234661503774 a26.91469932997294,26.91469932997294 0 0,0 0.29901646072638616,0.35224063886949286 l -4.541781959672001 3.7889160448313324" fill="#859900" stroke="none" /><path d="M 116.35404254752997 86.82634096563983 l 9.891888892446394 -7.968205481680441 a33.70203780732787,33.70203780732787 0 0,0 0.35906081968031334,0.45366161607452743 l -10.027216142768268 7.797223921691235" fill="#859900" stroke="none" /><path d="M 116.57777611688842 87.10902102172516 l 5.9944732579208875 -4.661338662606639 a28.593535919941388,28.593535919941388 0 0,0 0.29798279983465603,0.3900690503599451 l -6.073608035109849 4.557748699005812" fill="#859900" stroke="none" /><path d="M 117.62189284568427 88.57770195909679 l 3.5028967113311933 -2.2705353274874573 a25.17440008188284,25.17440008188284 0 0,0 0.2319429066560037,0.36465277395604195 l -3.541357309613087 2.2100688788527436" fill="#859900" stroke="none" /><path d="M 117.81537515405839 88.88188828441811 l 8.108726336729143 -5.060444952925873 a30.558218763219315,30.558218763219315 0 0,0 0.27390646287704234,0.44740562223981684 l -8.194400764061589 4.920502214561501" fill="#859900" stroke="none" /><line stroke="#2aa198" stroke-width="0.3" x1="172.87174338648825" x2="177.1583165268699" y1="56.24261187166439" y2="53.66864786411523" /><path d="M 173.72905801456457 55.72781907015455 a86.0,86.0 0 0,1 12.242430191666344,42.057860355516425" fill="none" id="id75" stroke="none" /><text fill="#2aa198" style="font-size:6.75px; font-family:Arial;" text-anchor="middle"><textPath startOffset="22.145653131862474" xlink:href="#id75">March</textPath></text><path d="M 118.00360718960297 89.18935116829356 l 19.522695696559964 -11.722817833176167 a43.77191483407388,43.77191483407388 0 0,0 0.3812873324339486,0.6475092478456665 l -19.721056739123682 11.385957417036943" fill="#859900" stroke="none" /><path d="M 118.18653347947321 89.5 l 20.43058966282771 -11.795606441536366 a44.59121288307273,44.59121288307273 0 0,0 0.3770434105363187,0.6661995788158598 l -20.630066438385406 11.443150092621389" fill="#859900" stroke="none" /><path d="M 118.36410011445183 89.81374322990088 l 23.527100963320187 -13.0500863083309 a47.904074642944835,47.904074642944835 0 0,0 0.39270996295984584,0.7225421000011711 l -23.747656275895373 12.644289374855125" fill="#859900" stroke="none" /><path d="M 118.53625476483649 90.13048839642627 l 15.169714149024708 -8.07701834680823 a38.185995832008025,38.185995832008025 0 0,0 0.30310939920724456,0.5812522394522521 l -15.306131617206898 7.81541986425148" fill="#859900" stroke="none" /><path d="M 119.83427380445688 93.10060997987247 l 7.839366020140495 -2.7269384408382282 a29.300111617192545,29.300111617192545 0 0,0 0.16117095434964993,0.4764732883329247 l -7.885022396062509 2.591963478031142" fill="#859900" stroke="none" /><path d="M 120.7213421655516 96.59031103205396 l 22.970385188679955 -3.7797681415405697 a44.279287852512425,44.279287852512425 0 0,0 0.11697851520179185,0.7510859823202143 l -23.031885196020013 3.384893977288914" fill="#859900" stroke="none" /><path d="M 120.96210409425399 98.7389718711861 l 4.7727664985897515 -0.28711778073042477 a25.781394845656678,25.781394845656678 0 0,0 0.02278389094894752,0.44200139764419877 l -4.776991978995272 0.20514458970949537" fill="#859900" stroke="none" /><line stroke="#2aa198" stroke-width="0.3" x1="184.99686870605535" x2="189.99668451229388" y1="99.2704041080226" y2="99.22748670261217" /><path d="M 185.99683186730306 99.26182062694052 a86.0,86.0 0 0,1 -10.086455211305974,41.156179273409016" fill="none" id="id76" stroke="none" /><text fill="#2aa198" style="font-size:6.75px; font-family:Arial;" text-anchor="middle"><textPath startOffset="21.40746469413373" xlink:href="#id76">April</textPath></text><path d="M 120.99922638620191 99.81974689727618 l 14.25489359401811 -0.122361117122302 a35.25541874585808,35.25541874585808 0 0,0 0.0,0.605228439692256 l -14.25489359401811 -0.12236111712230026" fill="#859900" stroke="none" /><path d="M 120.77682067341334 103.0534771498775 l 23.647126708159202 3.4753132925683254 a44.901138132591896,44.901138132591896 0 0,0 -0.11862134023284454,0.7616340975027444 l -23.58398387578809 -3.8807355720025205" fill="#859900" stroke="none" /><path d="M 120.51834098615036 104.47187691870673 l 14.170101711198031 3.0883077155606817 a35.50273860523208,35.50273860523208 0 0,0 -0.13489204407880603,0.5943592354636854 l -14.11499880556156 -3.331101284963384" fill="#859900" stroke="none" /><path d="M 120.43855184770803 104.8234425847677 l 20.610330753465785 4.863981938796828 a42.17649768182169,42.17649768182169 0 0,0 -0.1723461709027063,0.7032311905580882 l -20.52379705604678 -5.2170689539630155" fill="#859900" stroke="none" /><path d="M 120.35273937422433 105.17358676015961 l 7.175602104005763 1.824009994864511 a28.403801592180706,28.403801592180706 0 0,0 -0.12417941768083521,0.4715294754743336 l -7.143233205520197 -1.946919974711648" fill="#859900" stroke="none" /><path d="M 119.94978838288452 106.5578916946017 l 9.302601124358679 3.0579497627133927 a30.79231558060698,30.79231558060698 0 0,0 -0.16937911205259584,0.500739248087643 l -9.248736590733719 -3.217190685275196" fill="#859900" stroke="none" /><line stroke="#2aa198" stroke-width="0.3" x1="174.33088141563837" x2="178.70328620479359" y1="141.23008692659167" y2="143.65538615756765" /><path d="M 175.20536237346943 141.71514677278685 a86.0,86.0 0 0,1 -30.301960400862466,31.631185727798858" fill="none" id="id77" stroke="none" /><text fill="#2aa198" style="font-size:6.75px; font-family:Arial;" text-anchor="middle"><textPath startOffset="22.145653131862474" xlink:href="#id77">May</textPath></text><path d="M 118.36410011445183 110.18625677009912 l 37.61216204908943 20.86283226092283 a64.01084170246341,64.01084170246341 0 0,0 -0.5412471315836026,0.9563318202097483 l -37.24848155248445 -21.505420851231698" fill="#859900" stroke="none" /><path d="M 118.00360718960297 110.81064883170644 l 7.757882954937705 4.658385812357982 a30.04905002302955,30.04905002302955 0 0,0 -0.2693425643817248,0.4399508370380053 l -7.676772426100576 -4.790873765520544" fill="#859900" stroke="none" /><path d="M 117.423217284605 111.72311816256416 l 11.190778974914041 7.529655522919692 a34.48811500392895,34.48811500392895 0 0,0 -0.33471579979496463,0.48836035500372005 l -11.059873438303756 -7.720650612993456" fill="#859900" stroke="none" /><path d="M 117.01052211995028 112.31430620078461 l 25.75593752248275 18.645312525013626 a52.796477742313925,52.796477742313925 0 0,0 -0.5377647601032534,0.72958117779265 l -25.43207074279567 -19.084700012075153" fill="#859900" stroke="none" /><path d="M 114.13192950727249 115.5334660781643 l 10.105901150719859 11.10815565795205 a36.017335322533526,36.017335322533526 0 0,0 -0.46091036389497386,0.41214888950922807 l -9.913725760001507 -11.280000077344665" fill="#859900" stroke="none" /><line stroke="#2aa198" stroke-width="0.3" x1="143.1302829299769" x2="145.66735839644613" y1="173.24464959558577" y2="177.55315839532614" /><path d="M 143.63769802327073 174.10635135553383 a86.0,86.0 0 0,1 -40.68552437913181,11.842963189579606" fill="none" id="id78" stroke="none" /><text fill="#2aa198" style="font-size:6.75px; font-family:Arial;" text-anchor="middle"><textPath startOffset="21.407464694133747" xlink:href="#id78">June</textPath></text><path d="M 109.71004243097381 118.62028667847754 l 29.130127292921426 55.86086003543263 a84.0,84.0 0 0,0 -1.2842911131456707,0.655768193308655 l -28.166908958062173 -56.352686180414125" fill="#859900" stroke="none" /><path d="M 106.38641147887787 120.00534299687104 l 1.6186322325700258 5.070342414586169 a26.322437646930787,26.322437646930787 0 0,0 -0.4316370461606293,0.13372226025816283 l -1.5313545535377722 -5.097381262650977" fill="#859900" stroke="none" /><path d="M 106.0420521117495 120.11202640906438 l 2.0263258640970494 6.744979774808615 a28.04277989646744,28.04277989646744 0 0,0 -0.46222511838802693,0.13454699542169848 l -1.9102407333274158 -6.7787704645328315" fill="#859900" stroke="none" /><path d="M 104.9986988182912 120.39639698878246 l 5.064298140853839 20.664064610661733 a42.275588873003215,42.275588873003215 0 0,0 -0.706340229392808,0.16669437087197148 l -4.708825757721152 -20.747955125179928" fill="#859900" stroke="none" /><path d="M 104.29559338865022 120.5559693870025 l 1.1099867033833872 5.311688195399326 a26.426426261070215,26.426426261070215 0 0,0 -0.44484926467358515,0.0889823116649846 l -1.0186409531788434 -5.329959903727173" fill="#859900" stroke="none" /><path d="M 103.94208987418118 120.62667999033965 l 0.8894893971802206 4.654184388489493 a25.7384199592011,25.7384199592011 0 0,0 -0.4346915987049927,0.0792152896230764 l -0.8094630649241707 -4.668767852043933" fill="#859900" stroke="none" /><path d="M 102.51750503828377 120.84855314841334 l 0.744654685036418 6.1668090200846 a27.211605596795685,27.211605596795685 0 0,0 -0.4642353021490786,0.05201853390798182 l -0.6386834812865401 -6.178683314499554" fill="#859900" stroke="none" /><path d="M 101.44090949804482 120.95050786540614 l 2.2465674211458526 32.66459724968615 a53.74176199690478,53.74176199690478 0 0,0 -0.9209179324256682,0.05540013597376825 l -1.6855051365877192 -32.69834936348461" fill="#859900" stroke="none" /><line stroke="#2aa198" stroke-width="0.3" x1="101.45913802915013" x2="101.54496967792366" y1="184.9874750549273" y2="189.98673829345242" /><path d="M 101.47630435890484 185.9873277026323 a86.0,86.0 0 0,1 -42.54439059252881,-10.42667462771756" fill="none" id="id79" stroke="none" /><text fill="#2aa198" style="font-size:6.75px; font-family:Arial;" text-anchor="middle"><textPath startOffset="22.145653131862474" xlink:href="#id79">July</textPath></text><path d="M 96.05791012581884 120.62667999033965 l -1.2071816930724306 6.316484724583702 a27.430806086019736,27.430806086019736 0 0,0 -0.46175649314889333,-0.09236423087459557 l 1.3154346717522822 -6.294831097046246" fill="#859900" stroke="none" /><path d="M 91.26138138417905 119.09545874513695 l -23.79067490081601 51.98691819151082 a78.1719850563819,78.1719850563819 0 0,0 -1.215430256189425,-0.5688827305680364 l 24.67959387087693 -51.57085922937225" fill="#859900" stroke="none" /><path d="M 90.93487009805054 118.94263497670748 l -3.290695905007035 6.876288814624627 a28.623124516978706,28.623124516978706 0 0,0 -0.44139550042472064,-0.2159086578683247 l 3.408251654693825 -6.818786406659079" fill="#859900" stroke="none" /><path d="M 90.28995756902619 118.62028667847754 l -9.348831914628507 17.927617885993595 a41.21880662240415,41.21880662240415 0 0,0 -0.6245850127228538,-0.33255633938417334 l 9.655205743137921 -17.76449107888685" fill="#859900" stroke="none" /><line stroke="#2aa198" stroke-width="0.3" x1="58.13341422392154" x2="55.670673884152215" y1="173.97424548756322" y2="178.32567169271397" /><path d="M 57.64086615596767 174.84453072859336 a86.0,86.0 0 0,1 -31.369924170532244,-30.572349798747897" fill="none" id="id80" stroke="none" /><text fill="#2aa198" style="font-size:6.75px; font-family:Arial;" text-anchor="middle"><textPath startOffset="22.145653131862474" xlink:href="#id80">August</textPath></text><path d="M 88.72937992617639 117.7192867562869 l -2.742874409108224 4.312254150448108 a26.11066491585955,26.11066491585955 0 0,0 -0.3761357756366796,-0.24380666542418092 l 2.8164958170019156 -4.264533643320032" fill="#859900" stroke="none" /><path d="M 88.1277618465304 117.32195027204791 l -5.077969825149735 7.40890973186026 a29.982077764080252,29.982077764080252 0 0,0 -0.4220404458986675,-0.29461700855008216 l 5.204405362222167 -7.320647907505049" fill="#859900" stroke="none" /><path d="M 87.54013794807813 116.9041958592261 l -4.199276575457927 5.697125169026405 a28.077510787610557,28.077510787610557 0 0,0 -0.3855269673539628,-0.28930662362991844 l 4.296456531722656 -5.624199518132471" fill="#859900" stroke="none" /><path d="M 87.2517909369889 116.68781488649013 l -15.606162721346584 20.42896796679619 a46.70787908547752,46.70787908547752 0 0,0 -0.6329808521384337,-0.4922097391733012 l 15.954553518120246 -20.158057176002092" fill="#859900" stroke="none" /><path d="M 86.96720088162412 116.46651593811092 l -3.318174908159202 4.192405600237028 a26.346639078714414,26.346639078714414 0 0,0 -0.3522285059560488,-0.2837303514504986 l 3.389654184470513 -4.134826954993119" fill="#859900" stroke="none" /><path d="M 86.40962598614128 116.0094264158162 l -9.197602593246609 10.834752727801751 a35.212239800112584,35.212239800112584 0 0,0 -0.45745817052293103,-0.3951414722836078 l 9.382240243532403 -10.67526712305342" fill="#859900" stroke="none" /><path d="M 85.86807049272751 115.53346607816431 l -6.006497339325027 6.602192759380457 a29.925634964490445,29.925634964490445 0 0,0 -0.3770205755299988,-0.34896461612019464 l 6.118947686168994 -6.498110397127882" fill="#859900" stroke="none" /><path d="M 84.3458050057657 113.99807769240083 l -9.243816904177223 8.265878075918907 a33.4005198005531,33.4005198005531 0 0,0 -0.378521627169695,-0.43068812746239715 l 9.384349595305512 -8.10597767064521" fill="#859900" stroke="none" /><path d="M 84.1078160697243 113.72728997021213 l -9.04368565358431 7.811720271478471 a32.950365007006035,32.950365007006035 0 0,0 -0.36607139478854855,-0.43123118258748006 l 9.17645161187997 -7.655322306441437" fill="#859900" stroke="none" /><path d="M 83.20337586046588 112.60449989151573 l -6.461634492491533 4.848930986550186 a29.078666475779457,29.078666475779457 0 0,0 -0.2961841920173652,-0.4018307402926543 l 6.543920704092726 -4.737293936988651" fill="#859900" stroke="none" /><path d="M 82.98947788004972 112.3143062007846 l -18.276656233584855 13.230889657577448 a43.56308055677739,43.56308055677739 0 0,0 -0.43331760903970634,-0.60951548296522 l 18.501088941154524 -12.915196947902725" fill="#859900" stroke="none" /><path d="M 82.78059297857968 112.02048342749411 l -17.252826973130293 12.043813149311918 a42.040757442171866,42.040757442171866 0 0,0 -0.4080160875605777,-0.5953076654593886 l 17.457032797506194 -11.745870748782478" fill="#859900" stroke="none" /><path d="M 82.576782715395 111.72311816256416 l -5.994284997870115 4.033222463006789 a28.224841594927412,28.224841594927412 0 0,0 -0.26702791620218164,-0.4043142991641362 l 6.062637352993024 -3.9297282855035935" fill="#859900" stroke="none" /><path d="M 82.37810715431573 111.42229804090321 l -6.062637352993024 3.9297282855035935 a28.224841594927412,28.224841594927412 0 0,0 -0.2600479764419121,-0.40883861178749886 l 6.1292030210608255 -3.8250759990374203" fill="#859900" stroke="none" /><path d="M 82.18462484594161 111.11811171558189 l -6.1292030210608255 3.8250759990374203 a28.224841594927412,28.224841594927412 0 0,0 -0.25299139934937853,-0.4132424377954257 l 6.193962384865609 -3.719296445117438" fill="#859900" stroke="none" /><path d="M 81.99639281039703 110.81064883170644 l -26.796336388089955 16.090430079768144 a52.25612874262552,52.25612874262552 0 0,0 -0.455191416850932,-0.7730145401618095 l 27.068601515070657 -15.628064371312774" fill="#859900" stroke="none" /><line stroke="#2aa198" stroke-width="0.3" x1="26.387840678322732" x2="22.057713659400548" y1="142.50000000000003" y2="145.00000000000006" /><path d="M 25.521815274538298 143.00000000000003 a86.0,86.0 0 0,1 -11.493303480769221,-40.785679425670985" fill="none" id="id81" stroke="none" /><text fill="#2aa198" style="font-size:6.75px; font-family:Arial;" text-anchor="middle"><textPath startOffset="21.40746469413373" xlink:href="#id81">September</textPath></text><path d="M 81.63589988554817 110.18625677009913 l -8.098520219887513 4.492112649325771 a30.26094518967473,30.26094518967473 0 0,0 -0.24807440187800597,-0.4564289582533294 l 8.174439971380849 -4.352428857597855" fill="#859900" stroke="none" /><path d="M 81.4637452351635 109.86951160357371 l -8.696208136733443 4.630241016939322 a30.852064140693372,30.852064140693372 0 0,0 -0.24489476893909054,-0.4696180100263564 l 8.774410974647484 -4.480276763808463" fill="#859900" stroke="none" /><path d="M 81.29705330413844 109.54985784667822 l -6.844020205504921 3.4946054825054764 a28.68458717510036,28.68458717510036 0 0,0 -0.2201611547794368,-0.44046978966969536 l 6.903001273496095 -3.3766038366720275" fill="#859900" stroke="none" /><path d="M 81.1358732173502 109.22738970284198 l -11.800025050845832 5.771983559164646 a34.13607191697184,34.13607191697184 0 0,0 -0.25296575438347463,-0.5286011340955122 l 11.897370063189218 -5.56856992300403" fill="#859900" stroke="none" /><path d="M 80.9802524753101 108.90220220490708 l -22.22161512049322 10.40083791151568 a45.53523197006612,45.53523197006612 0 0,0 -0.325285342473268,-0.7108071779617912 l 22.396884927821542 -10.0178417513392" fill="#859900" stroke="none" /><path d="M 80.83023694016515 108.57439118712176 l -8.333891838318955 3.727643816455377 a30.129571818829035,30.129571818829035 0 0,0 -0.20712806285596708,-0.47394954253199434 l 8.396653783191889 -3.5840322041475337" fill="#859900" stroke="none" /><path d="M 80.5471966667186 107.91128576633889 l -18.18465973654005 7.395542805559103 a40.63099343188209,40.63099343188209 0 0,0 -0.2572161002036714,-0.6483525985059999 l 18.308934511709843 -7.082289189839538" fill="#859900" stroke="none" /><path d="M 80.41425534168474 107.57618678355246 l -12.25141668471792 4.739111164055081 a34.13607191697184,34.13607191697184 0 0,0 -0.20671718680678783,-0.5483418974842125 l 12.330964555339143 -4.528100986376724" fill="#859900" stroke="none" /><path d="M 80.28708602549918 107.23885506374661 l -23.4898574616346 8.625801028340632 a46.023545850826835,46.023545850826835 0 0,0 -0.2659718904014822,-0.7439707142740758 l 23.634469522080025 -8.221295357685634" fill="#859900" stroke="none" /><path d="M 80.16572619554312 106.89939002012753 l -7.195988720855111 2.5031384186327923 a28.618920895606507,28.618920895606507 0 0,0 -0.15742393249094067,-0.46539588400981186 l 7.237898074918419 -2.3792408601488186" fill="#859900" stroke="none" /><path d="M 80.05021161711548 106.5578916946017 l -12.479135948854301 4.102139853523815 a34.13607191697184,34.13607191697184 0 0,0 -0.17821514032691793,-0.5582563887821802 l 12.547715804958473 -3.8873144310502434" fill="#859900" stroke="none" /><path d="M 79.94057633289273 106.21446072829308 l -20.609902626901103 6.385000517180435 a42.57629064261833,42.57629064261833 0 0,0 -0.21029378790701908,-0.6999996255946791 l 20.716472734811752 -6.030263287995033" fill="#859900" stroke="none" /><path d="M 79.83685265289637 105.86919833188381 l -9.774744675394091 2.845285716351922 a31.18043635002063,31.18043635002063 0 0,0 -0.1451842897179881,-0.5152078258430551 l 9.822147457186654 -2.677069966605871" fill="#859900" stroke="none" /><path d="M 79.64726062577567 105.17358676015961 l -12.731192767961673 3.236219416673804 a34.13607191697184,34.13607191697184 0 0,0 -0.13949051267681156,-0.5691688929755577 l 12.784870807154778 -3.017194699090147" fill="#859900" stroke="none" /><path d="M 79.56144815229197 104.8234425847677 l -12.784870807154778 3.017194699090147 a34.13607191697184,34.13607191697184 0 0,0 -0.12969941752670103,-0.5714795647712144 l 12.834781086239145 -2.797280800379906" fill="#859900" stroke="none" /><path d="M 79.48165901384964 104.47187691870673 l -12.834781086239145 2.797280800379906 a34.13607191697184,34.13607191697184 0 0,0 -0.11987009936293087,-0.5736218189160719 l 12.880908896426444 -2.576542530178425" fill="#859900" stroke="none" /><path d="M 79.407916724674 104.11899336999214 l -12.880908896426444 2.576542530178425 a34.13607191697184,34.13607191697184 0 0,0 -0.11000545493068685,-0.5755950240780016 l 12.923240643639287 -2.355044941067109" fill="#859900" stroke="none" /><path d="M 79.34024301695615 103.76489593502545 l -30.62440533896754 5.58078680537624 a52.12875493386212,52.12875493386212 0 0,0 -0.15287423269068995,-0.8817379494134693 l 30.715694389150467 -5.054255823042178" fill="#859900" stroke="none" /><path d="M 79.22317932658666 103.0534771498775 l -13.061435575491384 1.9195812343606173 a34.2017381964657,34.2017381964657 0 0,0 -0.08038301539707704,-0.5816114566589341 l 13.092463107443674 -1.6950814695015974" fill="#859900" stroke="none" /><path d="M 79.17382384314188 102.69636545807758 l -13.027340369143452 1.6866500272259919 a34.13607191697184,34.13607191697184 0 0,0 -0.07025189578769934,-0.5817864754324666 l 13.054374351190814 -1.462769874870126" fill="#859900" stroke="none" /><path d="M 79.13060592940153 102.33845913500099 l -13.054374351190814 1.462769874870126 a34.13607191697184,34.13607191697184 0 0,0 -0.060254405525520624,-0.5829067150690822 l 13.077561149198 -1.2384586375181126" fill="#859900" stroke="none" /><path d="M 79.0935383218832 101.97986365728391 l -32.19169484866007 3.048586971747049 a53.335724821836806,53.335724821836806 0 0,0 -0.07849590643015046,-0.9122414180460595 l 32.23928437778796 -2.495524506325327" fill="#859900" stroke="none" /><path d="M 79.03789590574601 101.26102812881392 l -13.11236699586525 0.7888074375916218 a34.13607191697184,34.13607191697184 0 0,0 -0.030167201760720175,-0.5852356549252531 l 13.123975787082543 -0.563599989289638" fill="#859900" stroke="none" /><path d="M 79.00696218219943 100.54070618675478 l -27.2290893790019 0.7013247541735439 a48.238119700531655,48.238119700531655 0 0,0 -0.014215471586594093,-0.8279799530433641 l 27.23711628218716 -0.23379788516112743" fill="#859900" stroke="none" /><line stroke="#2aa198" stroke-width="0.3" x1="15.003131293944662" x2="10.003315487706104" y1="100.72959589197737" y2="100.7725132973878" /><path d="M 14.003168132696942 100.73817937305945 a86.0,86.0 0 0,1 10.791469493833615,-42.45332614584628" fill="none" id="id82" stroke="none" /><text fill="#2aa198" style="font-size:6.75px; font-family:Arial;" text-anchor="middle"><textPath startOffset="22.145653131862435" xlink:href="#id82">October</textPath></text><path d="M 79.00077361379809 100.18025310272382 l -13.135588000472422 0.11275322479225858 a34.13607191697184,34.13607191697184 0 0,0 0.0,-0.5860126550321474 l 13.135588000472422 0.11275322479225375" fill="#859900" stroke="none" /><path d="M 79.00077361379809 99.81974689727619 l -13.135588000472422 -0.11275322479225375 a34.13607191697184,34.13607191697184 0 0,0 0.010059686476715995,-0.5859263047226058 l 13.13171688239704 0.33822644548391184" fill="#859900" stroke="none" /><path d="M 79.00696218219943 99.45929381324524 l -13.13171688239704 -0.33822644548391184 a34.13607191697184,34.13607191697184 0 0,0 0.0201164083176452,-0.585667279241571 l 13.123975787082545 0.5635999892896214" fill="#859900" stroke="none" /><path d="M 79.03789590574601 98.7389718711861 l -21.786428199316408 -1.3106174199971368 a42.82581434232338,42.82581434232338 0 0,0 0.05044480984330862,-0.7334564640077441 l 21.760719428308036 1.684417308159206" fill="#859900" stroke="none" /><path d="M 79.06263194458094 98.37931529534042 l -13.096893929909216 -1.0137824207211705 a34.13607191697184,34.13607191697184 0 0,0 0.050239158013471744,-0.5838551694212565 l 13.077561149198 1.2384586375181075" fill="#859900" stroke="none" /><path d="M 79.0935383218832 98.0201363427161 l -53.48083764635423 -5.064690928926978 a74.72011810822139,74.72011810822139 0 0,0 0.13189028627425145,-1.275918878480706 l 53.386014967598314 5.982014329690597" fill="#859900" stroke="none" /><path d="M 79.22317932658666 96.9465228501225 l -22.431987371917362 -3.2967296557619656 a43.6729460784663,43.6729460784663 0 0,0 0.11537666106472434,-0.7408009296676301 l 22.372089218714372 3.681318767361046" fill="#859900" stroke="none" /><path d="M 79.2786578344484 96.59031103205396 l -7.064177206393788 -1.1624076710773998 a28.159175315433554,28.159175315433554 0 0,0 0.08258037862234027,-0.4763016790120222 l 7.043182010279214 1.2835023830100145" fill="#859900" stroke="none" /><path d="M 79.34024301695615 96.23510406497455 l -30.7147843897268 -5.597256879109151 a52.22062242618074,52.22062242618074 0 0,0 0.16828395899586074,-0.8805327834987796 l 30.614174138448778 6.123692227641245" fill="#859900" stroke="none" /><path d="M 79.56144815229197 95.17655741523228 l -12.784870807154777 -3.0171946990901537 a34.13607191697184,34.13607191697184 0 0,0 0.13949051267680398,-0.5691688929755284 l 12.731192767961675 3.2362194166737996" fill="#859900" stroke="none" /><path d="M 79.64726062577567 94.8264132398404 l -25.690849194827273 -6.530513402040788 a47.50787312565064,47.50787312565064 0 0,0 0.20770107131091467,-0.7886747984469556 l 25.574958642711632 6.970568704860528" fill="#859900" stroke="none" /><path d="M 79.73907114497095 94.47779374421319 l -12.673762787824359 -3.4542904055413017 a34.13607191697184,34.13607191697184 0 0,0 0.15894650412819136,-0.5640450697269574 l 12.612597791621585 3.6713433991712727" fill="#859900" stroke="none" /><path d="M 79.83685265289637 94.1308016681162 l -12.612597791621585 -3.6713433991712727 a34.13607191697184,34.13607191697184 0 0,0 0.16860566665947957,-0.561233428288243 l 12.547715804958475 3.887314431050239" fill="#859900" stroke="none" /><path d="M 79.94057633289273 93.78553927170692 l -12.547715804958475 -3.887314431050239 a34.13607191697184,34.13607191697184 0 0,0 0.17821514032691793,-0.5582563887821802 l 12.479135948854303 4.102139853523811" fill="#859900" stroke="none" /><path d="M 80.05021161711548 93.44210830539832 l -12.479135948854303 -4.102139853523811 a34.13607191697184,34.13607191697184 0 0,0 0.187772093174493,-0.5551148285559752 l 12.406878434107442 4.315756356553948" fill="#859900" stroke="none" /><path d="M 80.68587082218212 91.75594674310238 l -12.08151380445237 -5.156879831902518 a34.13607191697184,34.13607191697184 0 0,0 0.23467105646869063,-0.5369733020492683 l 11.991208865966701 5.363515203727654" fill="#859900" stroke="none" /><path d="M 80.83023694016515 91.42560881287825 l -11.991208865966701 -5.363515203727654 a34.13607191697184,34.13607191697184 0 0,0 0.24385433792243524,-0.5328657370617006 l 11.89737006318922 5.568569923004025" fill="#859900" stroke="none" /><path d="M 80.9802524753101 91.09779779509293 l -11.89737006318922 -5.568569923004025 a34.13607191697184,34.13607191697184 0 0,0 0.252965754383486,-0.5286011340955388 l 11.800025050845829 5.771983559164652" fill="#859900" stroke="none" /><path d="M 81.1358732173502 90.77261029715801 l -11.800025050845829 -5.771983559164652 a34.13607191697184,34.13607191697184 0 0,0 0.2620026206756033,-0.5241807499488551 l 11.699202516958483 5.973696165277277" fill="#859900" stroke="none" /><path d="M 81.29705330413844 90.45014215332179 l -11.699202516958483 -5.973696165277277 a34.13607191697184,34.13607191697184 0 0,0 0.2709622735928743,-0.5196058873293086 l 11.594932174390667 6.1736482957110725" fill="#859900" stroke="none" /><path d="M 81.46374523516351 90.13048839642627 l -11.594932174390667 -6.1736482957110725 a34.13607191697184,34.13607191697184 0 0,0 0.27984207268436256,-0.5148778944696955 l 11.487244752090957 6.371781023655387" fill="#859900" stroke="none" /><path d="M 81.63589988554816 89.8137432299009 l -5.743604531449151 -3.185880613730917 a27.56801555255693,27.56801555255693 0 0,0 0.23310284546219212,-0.41187039244844337 l 5.688068320965587 3.2840077762784654" fill="#859900" stroke="none" /><line stroke="#2aa198" stroke-width="0.3" x1="26.387840678322718" x2="22.05771365940052" y1="57.49999999999999" y2="54.99999999999999" /><path d="M 25.521815274538284 56.99999999999999 a86.0,86.0 0 0,1 29.574782752854787,-30.34633250058573" fill="none" id="id83" stroke="none" /><text fill="#2aa198" style="font-size:6.75px; font-family:Arial;" text-anchor="middle"><textPath startOffset="21.40746469413373" xlink:href="#id83">November</textPath></text><path d="M 81.81346652052679 89.5 l -11.37617198603696 -6.56803595848592 a34.13607191697184,34.13607191697184 0 0,0 0.29735166602451274,-0.5049681361930419 l 11.26174660988267 6.762355262972535" fill="#859900" stroke="none" /><path d="M 81.99639281039701 89.18935116829357 l -11.26174660988267 -6.762355262972535 a34.13607191697184,34.13607191697184 0 0,0 0.30597630011564875,-0.49978929122724947 l 11.144002345311625 6.954681670324325" fill="#859900" stroke="none" /><path d="M 82.18462484594161 88.88188828441811 l -11.144002345311625 -6.954681670324325 a34.13607191697184,34.13607191697184 0 0,0 0.31451076158667923,-0.494463156063246 l 11.022973892099055 7.144958501066245" fill="#859900" stroke="none" /><path d="M 82.37810715431573 88.57770195909679 l -5.511469822664095 -3.5724681513615644 a27.56801555255693,27.56801555255693 0 0,0 0.26081385513078004,-0.3949054186890873 l 5.449331528612588 3.666553448389713" fill="#859900" stroke="none" /><path d="M 82.576782715395 88.27688183743585 l -14.65824604747822 -9.862722117479573 a38.66741250876969,38.66741250876969 0 0,0 0.37527692952777114,-0.5475402554679311 l 14.486779381135136 10.112897108017538" fill="#859900" stroke="none" /><path d="M 82.78059297857968 87.97951657250589 l -10.77120804766605 -7.519139751444326 a34.13607191697184,34.13607191697184 0 0,0 0.3395480961404972,-0.47761691999466316 l 10.64054485299558 7.70293389814851" fill="#859900" stroke="none" /><path d="M 82.98947788004972 87.6856937992154 l -5.32025589718796 -3.8514549831286415 a27.56801555255693,27.56801555255693 0 0,0 0.2807972786082763,-0.3809554371109462 l 5.253356598995865 3.942216729508451" fill="#859900" stroke="none" /><path d="M 83.64595745247003 86.82634096563983 l -10.229899001789098 -8.24048249928671 a34.13607191697184,34.13607191697184 0 0,0 0.37151941977727587,-0.4531932839156144 l 10.086932762773191 8.414878064900819" fill="#859900" stroke="none" /><path d="M 83.8745106332314 86.54754324733833 l -10.086932762773191 -8.414878064900819 a34.13607191697184,34.13607191697184 0 0,0 0.3792443408924593,-0.4467488799749857 l 9.940993858373618 8.586793727325361" fill="#859900" stroke="none" /><path d="M 84.10781606972428 86.27271002978789 l -9.940993858373618 -8.586793727325361 a34.13607191697184,34.13607191697184 0 0,0 0.38685749695967125,-0.4401728170888823 l 9.792125297455355 8.756178822225541" fill="#859900" stroke="none" /><path d="M 84.34580500576568 86.00192230759919 l -17.378087372619742 -15.539592887200987 a44.31259032862614,44.31259032862614 0 0,0 0.5119207759703429,-0.5626906081119825 l 17.108768895807533 15.83562107087063" fill="#859900" stroke="none" /><path d="M 84.58840730492382 85.73525988315684 l -4.820170500520623 -4.461477854314697 a27.56801555255693,27.56801555255693 0 0,0 0.32444162948962757,-0.34454576734052866 l 4.742873037294724 4.543565081599736" fill="#859900" stroke="none" /><path d="M 84.83555147118756 85.47280134310135 l -16.325799249126327 -15.639746376143224 a43.608259283564024,43.608259283564024 0 0,0 0.5224958864087028,-0.5361268088306175 l 16.05491656156682 15.917695877041572" fill="#859900" stroke="none" /><path d="M 85.34317274990677 84.96080404539775 l -14.226532443274554 -14.597675575902782 a41.38348246936357,41.38348246936357 0 0,0 0.5130123389279254,-0.49145421588435395 l 13.973847618481331 14.839741922092704" fill="#859900" stroke="none" /><path d="M 85.60350026404147 84.71141617570332 l -10.049139542537622 -10.671837951998652 a35.6585582790093,35.6585582790093 0 0,0 0.44924728183296264,-0.41581657719210435 l 9.864462489390707 10.842772275323123" fill="#859900" stroke="none" /><path d="M 86.68645165197937 83.75963576809568 l -8.333782814953869 -10.165859980112492 a34.14521377315992,34.14521377315992 0 0,0 0.4564877363271479,-0.3677142073137738 l 8.158044308271476 10.307422481219664" fill="#859900" stroke="none" /><path d="M 87.25179093698888 83.31218511350988 l -7.974351955443154 -10.438682689811777 a34.13607191697184,34.13607191697184 0 0,0 0.4687159194088778,-0.3517331641323994 l 7.7939830471235245 10.57403488120818" fill="#859900" stroke="none" /><path d="M 87.54013794807813 83.09580414077388 l -16.739644658210157 -22.7105429207048 a49.21319661144973,49.21319661144973 0 0,0 0.6843422833687056,-0.4954110381869265 l 16.347321364467483 22.994554730264806" fill="#859900" stroke="none" /><path d="M 87.83215693770416 82.88440491214696 l -3.8056467844871915 -5.353118796585034 a27.56801555255693,27.56801555255693 0 0,0 0.3880590820920861,-0.2708953774873818 l 3.71319261122134 5.417658989877542" fill="#859900" stroke="none" /><path d="M 88.12776184653039 82.6780497279521 l -7.426408295209223 -10.835351643611009 a34.13607191697184,34.13607191697184 0 0,0 0.48620122953116174,-0.3271378857000254 l 7.239310777581072 10.961239203368143" fill="#859900" stroke="none" /><path d="M 88.4268655584334 82.4767994020092 l -7.239310777581072 -10.961239203368143 a34.13607191697184,34.13607191697184 0 0,0 0.491745343485306,-0.3187433905484846 l 7.05007980183874 11.083896435620535" fill="#859900" stroke="none" /><path d="M 88.72937992617638 82.28071324371311 l -2.637343014394047 -4.146341269658657 a25.91403338409983,25.91403338409983 0 0,0 0.3774019512666194,-0.23552673011800226 l 2.5657769343377286 4.191003796618195" fill="#859900" stroke="none" /><path d="M 89.03521579738668 82.08984904055464 l -6.858771135219299 -11.203287192718873 a34.13607191697184,34.13607191697184 0 0,0 0.5023972213969365,-0.30167509640422935 l 6.665441157264929 11.319376289659026" fill="#859900" stroke="none" /><line stroke="#2aa198" stroke-width="0.3" x1="56.869717070023135" x2="54.33264160355391" y1="26.7553504044142" y2="22.446841604673864" /><path d="M 56.362301976729285 25.89364864446614 a86.0,86.0 0 0,1 42.16139366436587,-11.88097634709845" fill="none" id="id84" stroke="none" /><text fill="#2aa198" style="font-size:6.75px; font-family:Arial;" text-anchor="middle"><textPath startOffset="22.145653131862474" xlink:href="#id84">December</textPath></text><path d="M 89.34428304082924 81.90426304109057 l -4.935386536902657 -8.381365318217277 a30.726526865539178,30.726526865539178 0 0,0 0.4568120535195769,-0.26374056206859203 l 4.79078201552268 8.464852777562044" fill="#859900" stroke="none" /><path d="M 89.65649057296885 81.72400993836675 l -4.852615157856071 -8.57410601532788 a30.852064140693372,30.852064140693372 0 0,0 0.4631567870349659,-0.25690526234060146 l 4.704714182665002 8.656144193101627" fill="#859900" stroke="none" /><path d="M 89.97174638481275 81.54914285379989 l -12.621158501975364 -23.221510092926387 a47.429759229472126,47.429759229472126 0 0,0 0.7186990405413606,-0.38266675820382484 l 12.220670645647441 23.43474731885279" fill="#859900" stroke="none" /><path d="M 90.28995756902619 81.37971332152246 l -6.1042589547757 -11.705721422495156 a34.2017381964657,34.2017381964657 0 0,0 0.5229165288078064,-0.26700490553705053 l 5.902415204254312 11.80878427970504" fill="#859900" stroke="none" /><path d="M 90.93487009805054 81.0573650232925 l -5.670485634699995 -11.849134064332176 a34.13607191697184,34.13607191697184 0 0,0 0.5307529878564131,-0.24841919760621894 l 5.466243932972059 11.944729493508937" fill="#859900" stroke="none" /><path d="M 91.26138138417902 80.90454125486306 l -5.466243932972059 -11.944729493508937 a34.13607191697184,34.13607191697184 0 0,0 0.5349392260491493,-0.2392715116595243 l 5.260391304067291 12.036804756078308" fill="#859900" stroke="none" /><path d="M 91.92203290615298 80.6158196554323 l -10.072773659357175 -24.170989917960178 a47.18582675431067,47.18582675431067 0 0,0 0.7503569685544184,-0.3051636467655813 l 9.656362229612316 24.340340821305052" fill="#859900" stroke="none" /><path d="M 92.25597844496254 80.48000691201159 l -2.4220406672772468 -6.105124675605314 a27.56801555255693,27.56801555255693 0 0,0 0.4413872141323529,-0.17073805650370436 l 2.3168811906513644 6.145802620247059" fill="#859900" stroke="none" /><path d="M 92.592206182469 80.34994680014964 l -4.6337767777707874 -12.291643428836045 a34.13607191697184,34.13607191697184 0 0,0 0.550096050315151,-0.20200288929996674 l 4.42209157580151 12.369377167144734" fill="#859900" stroke="none" /><path d="M 92.93061703081487 80.22567764915836 l -6.365636193888944 -17.80581736975189 a39.909480594609335,39.909480594609335 0 0,0 0.6470927515783994,-0.22509244938091136 l 6.059037670265541 17.912468251701387" fill="#859900" stroke="none" /><path d="M 93.27111125876988 80.10723608172694 l -4.20910316314767 -12.443465593227492 a34.13607191697184,34.13607191697184 0 0,0 0.5567061170277934,-0.18300035825556088 l 3.9948743084721157 12.513886872885081" fill="#859900" stroke="none" /><path d="M 93.61358852112211 79.99465700312896 l -7.140504732994871 -22.367529374953804 a44.479633263348546,44.479633263348546 0 0,0 0.729379921936634,-0.22596376426872425 l 6.75548417818662 22.48680972702917" fill="#859900" stroke="none" /><path d="M 93.95794788825049 79.88797359093562 l -3.779468146001575 -12.580620252643172 a34.13607191697184,34.13607191697184 0 0,0 0.5626599766990769,-0.16378211892274075 l 3.5629481569208736 12.643646065868433" fill="#859900" stroke="none" /><path d="M 94.30408787586887 79.78721728523814 l -3.5629481569208736 -12.643646065868433 a34.13607191697184,34.13607191697184 0 0,0 0.5653886053216304,-0.154099178551859 l 3.3453781506645655 12.702945738564432" fill="#859900" stroke="none" /><path d="M 95.00130118170881 79.60360301121753 l -3.1268222461121504 -12.75850179484544 a34.13607191697184,34.13607191697184 0 0,0 0.5703452396803613,-0.13459992359499165 l 2.907344852691883 12.810297862086664" fill="#859900" stroke="none" /><path d="M 95.35216902796891 79.52079915486377 l -2.907344852691883 -12.810297862086664 a34.13607191697184,34.13607191697184 0 0,0 0.5725717846738161,-0.12478935552898089 l 2.6870106513989485 12.85831867574936" fill="#859900" stroke="none" /><path d="M 95.70440661134978 79.44403061299748 l -2.6870106513989485 -12.85831867574936 a34.13607191697184,34.13607191697184 0 0,0 0.5746295901341367,-0.11494201146708906 l 2.465884575733835 12.902550083879314" fill="#859900" stroke="none" /><path d="M 96.05791012581881 79.37332000966035 l -2.465884575733835 -12.902550083879314 a34.13607191697184,34.13607191697184 0 0,0 0.5765180496168442,-0.10506079346686982 l 2.244031792565952 12.942979051277545" fill="#859900" stroke="none" /><path d="M 96.41257539226777 79.30868818359171 l -2.244031792565952 -12.942979051277545 a34.13607191697184,34.13607191697184 0 0,0 0.5782366065840524,-0.09514861356857154 l 2.021517682928827 12.979593663341785" fill="#859900" stroke="none" /><path d="M 96.76829788921471 79.25015418208739 l -2.021517682928827 -12.979593663341785 a34.13607191697184,34.13607191697184 0 0,0 0.5797847545692573,-0.08520839293713074 l 1.798407822751885 13.0123831295778" fill="#859900" stroke="none" /><path d="M 97.12497278360702 79.19773525538626 l -3.4800894686271233 -25.18019379035616 a46.41954330883111,46.41954330883111 0 0,0 0.7902864871718049,-0.10231840785106862 l 3.047325159564524 25.236223794407625" fill="#859900" stroke="none" /><path d="M 97.84075906011542 79.11130261209362 l -1.3506640129711267 -13.066449101876183 a34.13607191697184,34.13607191697184 0 0,0 0.5834024340629381,-0.05524881706698435 l 1.126162015523173 13.08770967444835" fill="#859900" stroke="none" /><path d="M 98.1996594967304 79.07731436759882 l -1.126162015523173 -13.08770967444835 a34.13607191697184,34.13607191697184 0 0,0 0.584264887787746,-0.04522579746417124 l 0.9013281329602099 13.105113238907576" fill="#859900" stroke="none" /><path d="M 98.5590905019552 79.04949213459386 l -0.9013281329602099 -13.105113238907576 a34.13607191697184,34.13607191697184 0 0,0 0.584955155968287,-0.03518944961125925 l 0.6762286248594391 13.118654666343529" fill="#859900" stroke="none" /><path d="M 99.27912038922189 79.0123766808444 l -0.4509298290790459 -13.128329966035393 a34.13607191697184,34.13607191697184 0 0,0 0.5858183728000108,-0.015088603242500968 l 0.22549814220829112 13.134136286627939" fill="#859900" stroke="none" /><path d="M 99.63950707515114 79.00309439819443 l -0.4530350007695896 -26.38701758005705 a47.39090634067277,47.39090634067277 0 0,0 0.8135279256184352,-0.006983158810152943 l 6.463907795340499e-15 26.39090634067277" fill="#859900" stroke="none" /></svg>