<?xml version="1.0" encoding="utf-8" ?>
<svg baseProfile="full" height="200mm" version="1.1" viewBox="0,0,200,200" width="200mm" xmlns="http://www.w3.org/2000/svg" xmlns:ev="http://www.w3.org/2001/xml-events" xmlns:xlink="http://www.w3.org/1999/xlink"><defs /><rect fill="#1a1a1a" height="200" width="200" x="0" y="0" /><text alignment-baseline="middle" fill="#e1ed5e" style="dominant-baseline: central; font-size:9.0px; font-family:Arial;" text-anchor="middle" x="100.0" y="100.0">2020</text><line stroke="#e1ed5e" stroke-width="0.3" x1="100.0" x2="100.0" y1="15.0" y2="10.0" /><path d="M 100.0 14.0 a86.0,86.0 0 0,1 42.35913384403234,11.155469271406648" fill="none" id="id25" stroke="none" /><text fill="#e1ed5e" style="font-size:6.75px; font-family:Arial;" text-anchor="middle"><textPath startOffset="22.145653131862478" xlink:href="#id25">January</textPath></text><line stroke="#e1ed5e" stroke-width="0.3" x1="143.13028292997686" x2="145.6673583964461" y1="26.7553504044142" y2="22.446841604673864" /><path d="M 143.63769802327073 25.89364864446614 a86.0,86.0 0 0,1 29.32050498858742,28.57503671076993" fill="none" id="id26" stroke="none" /><text fill="#e1ed5e" style="font-size:6.75px; font-family:Arial;" text-anchor="middle"><textPath startOffset="20.669276256404974" xlink:href="#id26">February</textPath></text><path d="M 116.35404254752997 86.82634096563983 l 3.1682201042211475 -2.5520938494267393 a25.0682676466861,25.0682676466861 0 0,0 0.26707680943932377,0.3374428240155754 l -3.2115633443020304 2.4973310814964855" fill="#ff0000" stroke="none" /><line stroke="#e1ed5e" stroke-width="0.3" x1="172.87174338648825" x2="177.1583165268699" y1="56.24261187166439" y2="53.66864786411523" /><path d="M 173.72905801456457 55.72781907015455 a86.0,86.0 0 0,1 12.242430191666344,42.057860355516425" fill="none" id="id27" stroke="none" /><text fill="#e1ed5e" style="font-size:6.75px; font-family:Arial;" text-anchor="middle"><textPath startOffset="22.145653131862474" xlink:href="#id27">March</textPath></text><line stroke="#e1ed5e" stroke-width="0.3" x1="184.99686870605535" x2="189.99668451229388" y1="99.2704041080226" y2="99.22748670261217" /><path d="M 185.99683186730306 99.26182062694052 a86.0,86.0 0 0,1 -10.086455211305974,41.156179273409016" fill="none" id="id28" stroke="none" /><text fill="#e1ed5e" style="font-size:6.75px; font-family:Arial;" text-anchor="middle"><textPath startOffset="21.40746469413373" xlink:href="#id28">April</textPath></text><line stroke="#e1ed5e" stroke-width="0.3" x1="174.33088141563837" x2="178.70328620479359" y1="141.23008692659167" y2="143.65538615756765" /><path d="M 175.20536237346943 141.71514677278685 a86.0,86.0 0 0,1 -30.301960400862466,31.631185727798858" fill="none" id="id29" stroke="none" /><text fill="#e1ed5e" style="font-size:6.75px; font-family:Arial;" text-anchor="middle"><textPath startOffset="22.145653131862474" xlink:href="#id29">May</textPath></text><line stroke="#e1ed5e" stroke-width="0.3" x1="143.1302829299769" x2="145.66735839644613" y1="173.24464959558577" y2="177.55315839532614" /><path d="M 143.63769802327073 174.10635135553383 a86.0,86.0 0 0,1 -40.68552437913181,11.842963189579606" fill="none" id="id30" stroke="none" /><text fill="#e1ed5e" style="font-size:6.75px; font-family:Arial;" text-anchor="middle"><textPath startOffset="21.407464694133747" xlink:href="#id30">June</textPath></text><path d="M 102.51750503828377 120.84855314841334 l 1.1602026133852166 9.608141981943982 a30.677936890127995,30.677936890127995 0 0,0 -0.5233715905090136,0.05864487836520628 l -0.9950951212754037 -9.62664262081616" fill="#ff5407" stroke="none" /><line stroke="#e1ed5e" stroke-width="0.3" x1="101.45913802915013" x2="101.54496967792366" y1="184.9874750549273" y2="189.98673829345242" /><path d="M 101.47630435890484 185.9873277026323 a86.0,86.0 0 0,1 -42.54439059252881,-10.42667462771756" fill="none" id="id31" stroke="none" /><text fill="#e1ed5e" style="font-size:6.75px; font-family:Arial;" text-anchor="middle"><textPath startOffset="22.145653131862474" xlink:href="#id31">July</textPath></text><path d="M 100.0 121.0 l 7.715274834628325e-15 63.0 a84.0,84.0 0 0,0 -1.4419716993954086,-0.012377592777739643 l 1.0814787745465488 -62.990716805416696" fill="#4dd2ff" stroke="none" /><path d="M 96.41257539226777 120.69131181640829 l -3.0425143131145806 17.548414041329465 a38.810214168039536,38.810214168039536 0 0,0 -0.6554588070880133,-0.11944642913310324 l 3.343307853753651 -17.493599438264997" fill="#ffc612" stroke="none" /><line stroke="#e1ed5e" stroke-width="0.3" x1="58.13341422392154" x2="55.670673884152215" y1="173.97424548756322" y2="178.32567169271397" /><path d="M 57.64086615596767 174.84453072859336 a86.0,86.0 0 0,1 -31.369924170532244,-30.572349798747897" fill="none" id="id32" stroke="none" /><text fill="#e1ed5e" style="font-size:6.75px; font-family:Arial;" text-anchor="middle"><textPath startOffset="22.145653131862474" xlink:href="#id32">August</textPath></text><line stroke="#e1ed5e" stroke-width="0.3" x1="26.387840678322732" x2="22.057713659400548" y1="142.50000000000003" y2="145.00000000000006" /><path d="M 25.521815274538298 143.00000000000003 a86.0,86.0 0 0,1 -11.493303480769221,-40.785679425670985" fill="none" id="id33" stroke="none" /><text fill="#e1ed5e" style="font-size:6.75px; font-family:Arial;" text-anchor="middle"><textPath startOffset="21.40746469413373" xlink:href="#id33">September</textPath></text><path d="M 81.29705330413844 109.54985784667822 l -11.171046555181173 5.704015967933567 a33.543049043213784,33.543049043213784 0 0,0 -0.2574510264727695,-0.5150745125511104 l 11.267317494865678 -5.511409599218703" fill="#ff7d0b" stroke="none" /><line stroke="#e1ed5e" stroke-width="0.3" x1="15.003131293944662" x2="10.003315487706104" y1="100.72959589197737" y2="100.7725132973878" /><path d="M 14.003168132696942 100.73817937305945 a86.0,86.0 0 0,1 10.791469493833615,-42.45332614584628" fill="none" id="id34" stroke="none" /><text fill="#e1ed5e" style="font-size:6.75px; font-family:Arial;" text-anchor="middle"><textPath startOffset="22.145653131862435" xlink:href="#id34">October</textPath></text><path d="M 79.22317932658666 96.9465228501225 l -35.26345954619502 -5.182514189368802 a56.64225066531492,56.64225066531492 0 0,0 0.1496394070877093,-0.9607923375707792 l 35.16929864696905 5.787094708871031" fill="#60ff29" stroke="none" /><path d="M 80.5471966667186 92.08871423366112 l -22.309463896278036 -9.073064748221205 a45.08386769737675,45.08386769737675 0 0,0 0.2977127275220408,-0.7144021675399109 l 22.150425324219515 9.454699425202378" fill="#e7ff1a" stroke="none" /><path d="M 81.46374523516351 90.13048839642627 l -40.53546058458642 -21.582849592395 a66.92322899505766,66.92322899505766 0 0,0 0.5486259566788637,-1.0094099672597954 l 40.1589892782922 22.275514393129413" fill="#37ff75" stroke="none" /><line stroke="#e1ed5e" stroke-width="0.3" x1="26.387840678322718" x2="22.05771365940052" y1="57.49999999999999" y2="54.99999999999999" /><path d="M 25.521815274538284 56.99999999999999 a86.0,86.0 0 0,1 29.574782752854787,-30.34633250058573" fill="none" id="id35" stroke="none" /><text fill="#e1ed5e" style="font-size:6.75px; font-family:Arial;" text-anchor="middle"><textPath startOffset="21.40746469413373" xlink:href="#id35">November</textPath></text><path d="M 87.83215693770416 82.88440491214696 l -16.03345778449448 -22.553066298819804 a48.67151184894183,48.67151184894183 0 0,0 0.6851208486924498,-0.47826756155387384 l 15.643941844628264 22.824978676178805" fill="#bbff1f" stroke="none" /><line stroke="#e1ed5e" stroke-width="0.3" x1="56.869717070023135" x2="54.33264160355391" y1="26.7553504044142" y2="22.446841604673864" /><path d="M 56.362301976729285 25.89364864446614 a86.0,86.0 0 0,1 42.16139366436587,-11.88097634709845" fill="none" id="id36" stroke="none" /><text fill="#e1ed5e" style="font-size:6.75px; font-family:Arial;" text-anchor="middle"><textPath startOffset="22.145653131862474" xlink:href="#id36">December</textPath></text><path d="M 89.65649057296885 81.72400993836675 l -4.755707331417023 -8.402879171538666 a30.655316182993282,30.655316182993282 0 0,0 0.46020317098099583,-0.25526694130453015 l 4.610759972279924 8.483279028276343" fill="#ff5407" stroke="none" /><path d="M 95.00130118170881 79.60360301121753 l -2.459124168369837 -10.034065785129071 a31.331010011405397,31.331010011405397 0 0,0 0.5234782858978694,-0.12353945011442262 l 2.286513728732061 10.074801378889726" fill="#ff5e08" stroke="none" /><path d="M 97.12497278360702 79.19773525538626 l -1.652038513153048 -11.953327719110638 a33.0669496895197,33.0669496895197 0 0,0 0.5629603750678385,-0.07288649141189149 l 1.4466003161944152 11.979925806722923" fill="#ff760a" stroke="none" /><path d="M 99.63950707515114 79.00309439819443 l -0.18798991075314256 -10.949469845574693 a31.951083512862755,31.951083512862755 0 0,0 0.5484828356019921,-0.004708065482497217 l 2.6822418742445454e-15 10.951083512862755" fill="#ff6609" stroke="none" /></svg>